<?xml version="1.0" encoding="UTF-8" standalone="no"?>
<!DOCTYPE svg  PUBLIC '-//W3C//DTD SVG 1.1//EN'  'http://www.w3.org/Graphics/SVG/1.1/DTD/svg11.dtd'>
<svg xmlns="http://www.w3.org/2000/svg">
<defs>
<font id="AvalonMedium-Regular" horiz-adv-x="208">
<font-face underline-position="-123" font-weight="400" descent="-200" panose-1="2 0 4 0 0 0 0 0 0 0" units-per-em="1000" unicode-range="U+0020-25CA" bbox="-442 -393 1373.2 862" x-height="279" underline-thickness="20" font-family="AvalonMedium" ascent="800" cap-height="698"/>
<missing-glyph horiz-adv-x="1000"/>
<glyph glyph-name=".notdef" horiz-adv-x="1000"/>
<glyph glyph-name=".null" horiz-adv-x="0"/>
<glyph glyph-name="nonmarkingreturn" horiz-adv-x="1000"/>
<glyph glyph-name="space" horiz-adv-x="200" unicode=" "/>
<glyph glyph-name="exclam" horiz-adv-x="134" unicode="!" d="M42 18q-3 -27 -29 -29h-3q-10 0 -16.5 5.5t-6.5 15.5q0 30 29 32q12 1 19.5 -6t6.5 -18zM209 458q1 0 1 -2q0 -6 -12 -28q-33 -61 -70 -141q-54 -118 -78 -184q-12 -31 -21 -31h-1q-4 1 -4 11q0 12 5 36q16 79 57 167q39 85 75 133q11 14 26.5 26.5t20.5 12.5h1z"/>
<glyph glyph-name="quotedbl" horiz-adv-x="169" unicode='&quot;' d="M172 454q-10 -26 -66 -69q9 24 28 75q8 21 21 21h3q18 -3 18 -15q0 -5 -4 -12zM247 454q-10 -24 -65 -69q9 24 28 75q8 21 21 21h3q17 -3 17 -15q0 -5 -4 -12z"/>
<glyph glyph-name="numbersign" horiz-adv-x="320" unicode="#" d="M188 183q-19 1 -48 1q-20 0 -28 -1q-3 -7 -8.5 -18t-16.5 -35q11 1 34 1q28 0 44 -1q7 19 14 34q4 9 9 19zM279 179q-48 3 -60 3q-3 -6 -9 -17q-6 -15 -16 -36q46 -4 60 -6q8 -1 14 -5.5t5 -6.5q-3 -5 -19 -4q-22 2 -67 4q-5 -11 -34 -88q-10 -27 -22 -27q-7 0 -1 26 q10 42 28 90q-16 1 -44 1q-23 0 -34 -1q-11 -28 -34 -89q-10 -27 -22 -27q-7 0 -1 26q10 42 28 90q-31 0 -59 -3q-4 0 -8 4q0 6 23 10q20 4 50 5l16 37q3 7 8 18q-20 0 -65 -3q-6 -1 -9 4q0 6 24 10t59 7q56 104 70 104h2q9 -2 -3 -26t-38 -77q7 1 27 1q33 0 49 -1 q21 38 45 75q17 26 24 26h1q3 -1 2 -9q0 -9 -4 -17q-12 -23 -38 -77q23 -1 50 -6q6 -1 12 -5t6 -6q0 -5 -16 -4z"/>
<glyph glyph-name="dollar" horiz-adv-x="185" unicode="$" d="M71 138q-26 -45 -74 -127h5q67 3 69 127zM164 301h-6q-29 0 -41 -35q-5 -16 -5 -35v-12q3 5 52 82zM200 288q1 -3 1 -6q0 -20 -28 -35q9 13 9 28t-9 22q-19 -32 -60 -98v-41q-2 -75 -41 -119q-33 -37 -75 -37h-5q-13 -19 -22 -35l-2 11l13 24q-29 8 -33 33q-1 4 -1 8 q0 24 20 41.5t27 17.5q2 0 3 -2q1 -1 -6 -6q-9 -8 -17 -17q-9 -12 -9 -26q0 -5 3 -18.5t19 -18.5q27 49 83 146q1 36 3 53q5 31 16 50q27 45 71 45h9q11 17 21 31l2 -10q-3 -4 -14 -23q19 -3 22 -18z"/>
<glyph glyph-name="percent" horiz-adv-x="368" unicode="%" d="M293 124q5 19 4 29q-1 14 -12 17q-2 1 -4 1q-16 0 -41 -34.5t-38 -82.5q-5 -19 -5 -30q0 -17 6 -19t9 -2q16 0 37 28q29 36 44 93zM307 78q-16 -38 -45.5 -60.5t-49.5 -22.5q-4 0 -8 1q-34 7 -34 56q0 17 7 36q13 38 43 64t57 26q39 0 39 -55q0 -22 -9 -45zM312 322 q0 -1 -12 -13q-1 -2 -23 -29q-47 -60 -119 -162.5t-112 -168.5q-15 -23 -18 -23h-1q-6 1 5 27q30 69 99 171q38 57 91 122q17 21 52 56q-33 -14 -74 -14h-6q-31 1 -48 13q14 -27 14 -54q0 -23 -10 -44q-18 -39 -46.5 -61t-48.5 -22q-3 0 -7 1q-34 7 -34 55q0 18 7 37 q19 55 87 85q16 7 17 4q0 -1 -6 -4t-10 -7q-44 -43 -63 -112q-5 -18 -5 -30q0 -17 10 -20q2 -1 5 -1q15 0 36 27q30 36 45 93q4 16 4 28t-4 22q-2 7 -14 19q-2 3 -1 4q2 2 4 2t4 -2.5t6 -6.5q16 -15 60 -15q58 0 83 10q6 4 15 9q11 5 15 5q3 0 3 -1z"/>
<glyph glyph-name="ampersand" horiz-adv-x="442" unicode="&amp;" d="M208 17q-18 53 -22 120q-1 19 -1 37q0 47 7 94q-60 -35 -88 -63q-58 -58 -58 -125v-11q5 -70 75 -71h4q44 0 83 19zM395 460q-39 0 -77.5 -30.5t-56.5 -68.5q-12 -24 -22 -63q34 15 104 52q86 53 86 82q0 28 -34 28zM470 273q0 -16 -17 -27t-45 -11q-23 0 -47 14 q10 -25 10 -46q-1 -76 -56 -131q-35 -35 -66 -50q13 -41 37 -78q35 -54 76 -54q8 0 15 3q4 1 5 0q4 -6 -11.5 -9.5t-26.5 -3.5q-54 0 -92 49q-28 36 -39 75q-43 -16 -92 -16q-111 0 -119 82q-1 8 -1 15q0 69 65 124q40 34 128 71q9 49 35 90q63 100 160 100h6q42 -1 45 -36 v-4q0 -42 -82 -91q-20 -12 -57 -27q-58 -23 -65 -26q-10 -54 -10 -106q0 -16 1 -32q4 -57 18 -111q21 12 54 44q23 22 39 58t17 66v9q0 23 -4 38q-11 7 -31 27q-6 10 -1 14q4 3 9 3q13 0 25 -25q22 -17 54 -17q47 0 54 23q2 5 -3 9.5t-4 5.5q3 3 9.5 -2.5t6.5 -16.5z"/>
<glyph glyph-name="quotesingle" horiz-adv-x="95" unicode="&apos;" d="M172 454q-10 -26 -66 -69q9 24 28 75q8 21 21 21h3q18 -3 18 -15q0 -5 -4 -12z"/>
<glyph glyph-name="parenleft" horiz-adv-x="339" unicode="(" d="M526 663q0 -3 -12 -9q-58 -29 -133 -94q-158 -137 -237 -312q-47 -104 -47 -231q0 -99 44 -181q9 -18 10 -17q-2 -1 -4 -1q-5 0 -12 9q-73 97 -73 223q0 118 52 225q39 80 108 162q63 75 129 126q86 66 159 97q10 4 14 4q2 0 2 -1zM151 -181v0v0z"/>
<glyph glyph-name="parenright" horiz-adv-x="339" unicode=")" d="M284 429q0 -118 -52 -225q-80 -166 -237 -288q-84 -66 -159 -97q-10 -4 -14 -4q-2 0 -2 1q0 3 12 9q60 30 133 94q158 138 237 312q47 105 47 229q0 94 -44 183q-9 18 -10 17q2 1 4 1q5 0 12 -9q73 -94 73 -223zM195 660v0v0z"/>
<glyph glyph-name="asterisk" horiz-adv-x="347" unicode="*" d="M354 441q0 -14 -35.5 -21t-74.5 -14q23 -14 64 -41q22 -17 22 -30q0 -14 -15 -14q-12 0 -29 21q-31 37 -46 59q-2 -30 -6 -78q-5 -35 -20 -35h-3q-13 2 -13 15q0 9 6 29q9 34 28 71q-24 -13 -70 -36q-16 -7 -26 -7q-13 0 -16 11q-1 2 -1 4q0 16 34 22l77 13 q-23 14 -64 41q-24 17 -24 28q0 15 15 15q11 0 29 -21q23 -27 48 -57q0 34 5 77q4 34 20 34h3q13 -2 13 -16q0 -9 -6 -27q-13 -33 -27 -71q19 12 68 35q18 8 28 8q16 0 16 -15z"/>
<glyph glyph-name="plus" horiz-adv-x="273" unicode="+" d="M245 157q0 -1 -12 2q-21 4 -46.5 6t-54.5 2q-1 -3 -4 -10q-11 -31 -20 -64q-4 -15 -8 -31q-1 -6 -6 -6q-9 0 -7 26q2 32 15 72q3 8 5 13q-28 0 -63 -2q-25 -1 -34 -1h-4q-3 11 25 18q32 8 72 9h12q12 26 26 47q25 37 37 37q2 0 3 -1q-10 -16 -28 -52q-5 -11 -13 -31 q39 -3 57 -7q48 -10 48 -27z"/>
<glyph glyph-name="comma" horiz-adv-x="100" unicode="," d="M29 19q-14 -33 -78 -69q26 38 41 75q9 22 21 22h3q17 -3 17 -15q0 -5 -4 -13z"/>
<glyph glyph-name="period" horiz-adv-x="95" unicode="." d="M3 -8h-3q-10 0 -16.5 5t-6.5 15v3q2 28 28 30h3q10 0 16.5 -6.5t6.5 -15.5q0 -29 -28 -31z"/>
<glyph glyph-name="slash" horiz-adv-x="150" unicode="/" d="M323 529q0 -4 -13 -21q-68 -90 -170 -263q-109 -186 -180 -341q-15 -31 -17 -31v0q-2 2 -2 7q0 10 6 31q48 161 150 334q84 143 201 267q18 19 23 19q2 -1 2 -2z"/>
<glyph glyph-name="zero" horiz-adv-x="236" unicode="0" d="M214 223q0 -39 -16 -78q-28 -69 -80 -113q-40 -34 -70 -34q-5 0 -9 1q-20 4 -34 24q-16 24 -16 60q0 28 10 61q31 97 131 149q20 10 28 10q3 0 4 -1l-8 -5q-11 -6 -19 -14q-75 -73 -104 -187q-7 -28 -7 -48q0 -31 20 -38q4 -1 8 -1q24 0 60 46q47 62 70 157q6 23 6 43 q0 21 -7 39q-11 23 -23 33t-10 12h2q5 0 15 -8q26 -19 37.5 -47t11.5 -61z"/>
<glyph glyph-name="one" horiz-adv-x="139" unicode="1" d="M133 286q-19 -37 -51 -105q-44 -98 -61 -155q-10 -33 -20 -33h-1q-8 1 -8 20q0 8 1 18q8 63 44 144q30 67 63 112q-22 -10 -48 -28q-7 -5 -18.5 -15.5t-12.5 -9.5q-3 3 9.5 17t31 25t57.5 33q11 6 16 6q6 0 6 -6q0 -7 -8 -23z"/>
<glyph glyph-name="two" horiz-adv-x="220" unicode="2" d="M133 125q-47 -45 -93 -72l-20 -12q25 2 41 2q52 -1 88 -19q9 -5 16 -12.5t6 -9.5q-4 2 -16 5q-29 8 -101 8q-46 0 -80 -6q-24 -4 -24 -2q0 4 11 13q16 13 41 19q10 6 27 19q39 30 75 74q51 64 51 112q0 44 -39 44h-2q-40 -1 -60 -35q-12 -22 -12 -45v-9q2 -21 15 -37 q-18 10 -25 34q-3 10 -3 20q0 20 10 42q25 55 84 58h7q31 0 50 -18t19 -50q0 -60 -66 -123z"/>
<glyph glyph-name="three" horiz-adv-x="203" unicode="3" d="M183 252q0 -47 -48 -84q-30 -23 -60 -31q59 -10 59 -70q0 -28 -24.5 -64.5t-65.5 -57.5t-84 -21h-4q-27 1 -45 15t-19 38q13 -39 65 -39q74 0 114 73q21 39 21 71q0 39 -24 52q-8 -4 -27 -11q-10 -3 -13 -1q0 11 12.5 16t23.5 3q26 13 47 38q30 36 30 69q0 45 -43 47h-6 q-30 0 -45 -18q-13 -15 -13 -32t10 -30q-15 7 -19 25q-1 6 -1 12q0 14 8 28q23 37 72 37h3q35 0 55.5 -18t20.5 -47z"/>
<glyph glyph-name="four" horiz-adv-x="244" unicode="4" d="M253 308q-12 -1 -30 -5q-53 -19 -115 -87q-9 -10 -73 -87q-32 -38 -45 -48q26 3 61 4q21 0 53 -2q6 17 19 51q29 69 66 117q19 25 29 25h3q2 -1 2 -5q0 -8 -11 -31q-12 -24 -42 -93q-15 -36 -26 -66q26 -2 41.5 -6.5t13.5 -8.5q-2 -1 -10 0q-22 3 -49 3q-23 -57 -41 -117 q-9 -31 -17.5 -31t-8.5 19q0 8 1 18q5 46 25 110q-21 0 -98 -8q-19 -2 -27 -2q-9 0 -9 2q-1 1 -1 3q0 5 8 9q21 20 47.5 58.5t81.5 108.5q67 72 128 75q13 -1 24 -6z"/>
<glyph glyph-name="five" horiz-adv-x="191" unicode="5" d="M205 267q0 1 1 3.5t1 5.5q0 12 -61 12q-28 0 -43 -3q-8 -22 -23 -48q-30 -53 -50 -81q18 9 38 9q32 0 51 -21t19 -53q0 -37 -28 -78q-59 -87 -159 -87h-2q-24 0 -40 11t-16 27q13 -26 54 -26h3q77 1 120 83q24 45 25 78v4q0 50 -43 50q-15 0 -29 -7q-12 -16 -16 -21 q-9 -9 -13 -7q-5 3 1.5 13.5t20.5 18.5q25 43 45 96q11 29 11 40q0 2 -4 4.5t-3 4.5q2 5 9 11q15 6 44 6h8q42 -1 72 -13q15 -6 15 -18q0 -19 -8 -14z"/>
<glyph glyph-name="six" horiz-adv-x="236" unicode="6" d="M290 361v-1v1zM290 361q0 1 -7 3q-9 2 -23 3q-68 -1 -148 -108q-57 -77 -77 -157q-6 -25 -6 -45q0 -49 32 -51h3q21 0 42.5 26t35.5 75q9 31 9 52q0 41 -30 53q-18 7 -19 6q4 6 26 0q61 -18 61 -84q0 -18 -6 -36q-15 -45 -50.5 -72.5t-67.5 -27.5h-5q-26 1 -44 23 q-21 24 -21 65q0 28 11 62q21 66 71 126q37 45 86.5 73t92.5 28q20 -1 28 -7q7 -6 6 -7z"/>
<glyph glyph-name="seven" horiz-adv-x="215" unicode="7" d="M258 301q3 -4 -17 -15q-12 -7 -27 -23q-56 -62 -107 -134q-62 -88 -94 -173l-7 -18q-8 -21 -13 -21t-5 17v7q0 14 3 29q15 69 60 143q48 80 138 155q7 6 19 14q-9 0 -73 -1q-46 -1 -65 -10q-10 -5 -21 -23l16 6l-22 -24q-7 -14 -14 -10q-3 1 6 18q8 14 23 44q7 16 12 20 t28 5q11 1 22 1q50 0 101 -15q5 4 15 9q18 8 22 -1z"/>
<glyph glyph-name="eight" horiz-adv-x="211" unicode="8" d="M116 115q0 25 -21 88q-51 -46 -74 -100q-11 -26 -11 -55q0 -42 30 -44h3q36 0 61 54q12 26 12 57zM282 294q-9 7 -24 7q-31 -1 -78 -35q-18 -13 -51 -38q3 -12 9 -28q17 -46 17 -78q0 -37 -20 -66q-39 -59 -92 -59h-3q-54 2 -54 65q0 28 14 56q21 43 92 96q-9 27 -9 51 q0 14 3 27q7 32 35 51t61 19h7q28 -2 44.5 -18.5t11.5 -19.5l-17 13q-16 12 -36 12h-3q-48 -2 -63 -50q-4 -15 -4 -29q0 -15 4 -31l40 30q63 45 94 45h1q12 0 17 -6t5 -11q0 -1 -1 -3z"/>
<glyph glyph-name="nine" horiz-adv-x="234" unicode="9" d="M203 237v-12q0 -62 -38 -136q-39 -76 -101 -119t-126 -43q-16 0 -27 4q-6 2 -10 6t-4 6q0 1 1 1q6 3 19.5 -2.5t18.5 -5.5q113 0 190 165q48 103 48 159q0 43 -28 44h-2q-39 0 -72 -71q-18 -39 -18 -81q0 -40 32 -54q4 -2 12 -3q5 0 5 -1q0 -7 -24 -2q-63 12 -63 81 q0 31 14 60q19 41 57 63q29 17 55 17h5q52 -4 56 -76z"/>
<glyph glyph-name="colon" horiz-adv-x="98" unicode=":" d="M28 20q-2 -26 -28 -28h-3q-10 0 -16.5 5t-6.5 15q0 31 28 33q12 1 19.5 -6.5t6.5 -18.5zM51 157h-3q-10 0 -16.5 5t-6.5 15v3q2 28 29 30h3q10 0 16.5 -6.5t6.5 -15.5q0 -29 -29 -31z"/>
<glyph glyph-name="semicolon" horiz-adv-x="103" unicode=";" d="M27 19q-14 -33 -78 -69q28 42 41 75q8 22 21 22h3q17 -3 17 -15q0 -5 -4 -13zM51 157h-3q-10 0 -16.5 5t-6.5 15v3q2 28 29 30h3q10 0 16.5 -6.5t6.5 -15.5q0 -29 -29 -31z"/>
<glyph glyph-name="less" horiz-adv-x="355" unicode="&lt;" d="M350 250q0 -2 -15 -7q-187 -55 -259 -86q69 -51 166 -99q21 -10 20 -12t-5 -2q-7 0 -21 5q-114 40 -211 102q-10 6 -10 9v0q0 1 20 8q146 49 296 83q8 2 13 2q6 0 6 -3z"/>
<glyph glyph-name="equal" horiz-adv-x="255" unicode="=" d="M206 125h-6q-10 1 -41 3q-42 2 -59 2l-64 -2l-34 -1q-3 9 22 16q30 8 71 9h9q37 0 67 -7q40 -9 40 -17q0 -3 -5 -3zM229 178q0 1 -52 3q-42 2 -59 2t-64 -3q-16 -1 -25 -1t-9 2q0 7 22 15q38 9 72 9q40 0 75 -7q44 -9 40 -20z"/>
<glyph glyph-name="greater" horiz-adv-x="355" unicode="&gt;" d="M279 141q-146 -49 -296 -83q-8 -2 -13 -2q-6 0 -6 3v0q0 2 15 7q187 55 259 86q-69 51 -166 99q-21 10 -20 12t5 2q7 0 21 -5q116 -41 211 -102q10 -6 10 -9q0 -1 -20 -8z"/>
<glyph glyph-name="question" horiz-adv-x="224" unicode="?" d="M42 18q-3 -27 -29 -29h-3q-10 0 -16.5 5.5t-6.5 15.5q0 30 29 32q12 1 19.5 -6t6.5 -18zM284 384q0 -61 -79 -128q-34 -24 -103 -78q-54 -46 -68 -78q-9 -21 0 -23q6 -1 23 17q11 11 12 17q10 -11 -2 -24q-15 -16 -28 -16q-3 0 -7 1q-11 5 -11 19q0 7 3 16q11 37 57 82 q35 30 93 81q66 61 66 111q0 25 -14 40.5t-35 15.5h-3q-40 -2 -64 -41q-12 -23 -12 -44q0 -5 2 -19.5t12 -29.5q-19 13 -24 34q-2 11 -2 22q0 20 8 41q8 19 28 36q26 21 61 23h7q34 0 57 -19.5t23 -55.5z"/>
<glyph glyph-name="at" horiz-adv-x="589" unicode="@" d="M381 273q2 6 2 11q0 19 -20 19q-32 0 -72 -49q-37 -45 -67 -114q-17 -39 -17 -59q0 -15 10 -16h1q20 0 61 45q36 41 69 95q20 33 33 68zM566 222q-24 -85 -108 -148q-52 -39 -103 -39q-27 0 -34 10t-7 24q0 8 2 17q6 30 44 122q-35 -61 -80.5 -111t-71.5 -50h-1 q-31 2 -31 45q0 30 20 76q23 53 75.5 99t89.5 46h3q27 -1 29 -22q4 6 12 17.5t19 9.5q15 -3 10 -15q-35 -82 -56 -138q-23 -60 -29 -90q-4 -19 4 -25q4 -3 24 -1q34 4 72 34q63 50 89 149q9 35 9 66q0 134 -153 137h-7q-154 0 -257 -133q-66 -86 -69 -193v-7 q0 -85 49 -132.5t146 -47.5q51 0 105 22q51 21 84 53l24 23q1 -1 1 -2q0 -7 -21 -28q-34 -34 -85 -56q-55 -25 -108 -25q-108 0 -169 49q-62 51 -62 141v8q4 120 81 208q57 65 131.5 97.5t148.5 32.5h9q85 -2 134 -48q46 -43 46 -113q0 -30 -9 -62z"/>
<glyph glyph-name="A" horiz-adv-x="800" unicode="A" d="M803 642q-2 -6 -12 -25q-19 -35 -29 -50q6 -1 16.5 -4t15.5 -5q5 33 9 84zM931 526q-1 -5 -23 -1q-43 7 -75 14q-2 -16 -7 -46q-27 -142 -58 -238q-28 -85 -85 -200q48 53 84 66q8 3 8 -2q0 -2 -5 -4t-7 -4q-34 -22 -76 -72q-20 -23 -47 -59q-14 -18 -26 -18q-9 0 -2 13 q7 15 17 39q45 100 91 244q44 137 61 223q9 43 12 66q-11 2 -38 7q-106 -167 -227 -295q22 -6 56 -14q54 -12 109 -16q11 -1 10 -2q0 -5 -17 -5h-20q-60 0 -116 10q-16 3 -39 10q-81 -80 -174 -149q-213 -159 -352 -170q-14 -1 -25 -1q-66 0 -72 33q-1 3 -1 6q0 20 23 39 q23 21 60 32q13 4 15 2q1 -2 -8 -6q-53 -21 -53 -59q0 -36 54 -36h9q125 7 327 168q85 68 167 150q-15 5 -31 12q-21 9 -16 20q3 6 10 6q9 0 33 -10q8 -3 22 -9q120 121 241 288l-164 33q-143 30 -171 35q-86 17 -166 25q-24 3 -48 3q-172 0 -172 -99v-8q2 -26 37 -61 q29 -28 63 -48l8 -7q-2 -2 -14 3q-116 51 -130 106q-3 12 -3 23q0 58 85 83q59 18 148 18q22 0 40 -1q111 -7 332 -54q46 -10 163 -39q19 26 35.5 52.5t19.5 48.5q1 7 1 24q0 10 4 10q15 0 22 -36q6 -31 6 -72q0 -23 -2 -48q31 -8 76 -17q21 -4 21 -6z"/>
<glyph glyph-name="B" horiz-adv-x="738" unicode="B" d="M333 390q-56 -11 -57 -33q-3 -15 34 -15q8 16 23 48zM510 379q-41 14 -104 16q-14 0 -25 -1l-24 -51q59 1 153 36zM636 529q1 6 1 11q0 33 -28.5 52.5t-80.5 19.5q-31 0 -43 -1q-36 -73 -99 -208q7 1 21 1q63 0 121 -15q39 17 68 51q34 39 40 89zM697 161 q-28 -109 -163 -176q-123 -61 -274 -61q-99 0 -169 33q-80 37 -80 104q0 45 43 81q38 32 87 39q7 0 7 -4q0 -3 -7 -3q-40 -9 -69.5 -41t-29.5 -70q0 -61 69 -97q62 -32 150 -32q138 0 242 59q111 63 140 169q7 26 7 50q0 60 -39 106q-34 39 -83 55q-46 -18 -88 -28t-88 -12 q0 -1 -37 -73q-47 -93 -94 -156q-48 -65 -71 -65h-1q-15 1 -15 16q0 4 1 9q3 13 12 21.5t13 5.5q3 -2 1 -7q-4 -11 -6 -19q-3 -14 2 -14q11 0 22 27q29 49 128 256q-59 4 -59 24q0 28 91 42q59 119 111 209q-69 -5 -184 -5q-140 0 -140 49q0 3 1 7q5 27 63 44q44 13 85 13 q10 0 21 -1q25 -2 25 -5q0 -2 -16 -2h-7l-75 -9q-59 -15 -59 -47q0 -40 102 -40q18 0 191 8q19 29 37 43q25 15 28 11q1 -2 -11 -15q-7 -11 -21 -37q21 2 36 2h6q73 0 115 -23t42 -72q0 -48 -54 -95q-36 -31 -84 -54q66 -23 106 -66q46 -48 46 -110q0 -21 -6 -44z"/>
<glyph glyph-name="C" horiz-adv-x="743" unicode="C" d="M290 -73h-17q-125 0 -193 43q-77 47 -77 145q0 9 1 19q7 92 71 188q55 82 139 148q91 72 202 117q99 40 184 48q18 2 37 2q137 0 152 -69q2 -10 2 -19q0 -55 -65 -92q-60 -35 -133 -35q-48 0 -82 15q-25 12 -39 30q-11 15 -8 19l12 -12q16 -17 39 -27q33 -15 78 -15 q60 0 105 29q51 33 51 83q0 11 -3 22q-14 60 -119 60q-15 0 -31 -1q-69 -6 -156 -45q-104 -46 -191 -121q-78 -67 -127 -149q-56 -91 -61 -177q-1 -8 -1 -17q0 -88 60 -132q57 -42 164 -42h10q154 3 280 73q106 59 120 147q2 15 0 29q-3 18 -4 18q8 4 21 -14q8 -14 8 -29 q0 -84 -141 -162q-134 -74 -288 -77zM690 209v0v0z"/>
<glyph glyph-name="D" horiz-adv-x="945" unicode="D" d="M888 280q13 45 13 91q0 114 -74 166.5t-235 52.5q-37 0 -77 -3q-117 -187 -179 -272q-48 -61 -135 -182q2 -2 79 -71q138 -124 244 -124q75 0 127.5 22t108.5 81q84 88 128 239zM944 277q-34 -144 -154 -254q-106 -97 -270 -97q-139 0 -260 104q-45 39 -79 74 q-25 -33 -58 -89.5t-43 -84.5l-6 -17q-8 0 0 27q21 72 86 185q-27 34 -50 57q-15 -11 -28 -43q-37 -92 -38 -153v-6q0 -49 15 -75l6 -11q-9 2 -16 15q-20 32 -20 79q0 91 33 168q18 43 31 44q9 1 30 -5.5t56 -41.5q48 89 124 198q27 38 189 235q-79 -8 -158 -17 q-98 -10 -176 -11h-7q-48 0 -85 13q-47 17 -47 47q0 38 68 58q44 12 83 12h16q40 -2 36 -10q0 1 -26 2h-12q-35 0 -71 -10q-57 -16 -57 -50q0 -44 111 -44q118 0 334 22l16 24l-26 -5q22 18 49 42q18 13 20 12q4 -2 -4 -18.5t-33 -52.5q40 4 78 4q156 0 245 -54 q107 -64 107 -201q0 -36 -9 -72z"/>
<glyph glyph-name="E" horiz-adv-x="628" unicode="E" d="M841 481q1 1 -13 9q-50 30 -226 83q-27 -58 -85 -176q-17 -36 -51 -101q35 -8 78 -16q76 -14 114 -15q9 0 8 -3q-1 -5 -17 -5h-14q-80 0 -179 20q-86 -153 -156 -221q23 -17 71 -51q103 -72 166 -103q76 -37 140 -37q84 0 119 62q5 9 7 8q4 -2 -2 -13q-9 -26 -37 -47 q-37 -27 -91 -27q-143 0 -319 126q-28 20 -80 58q-91 -75 -174 -75h-6q-46 2 -69 25q-16 16 -16 34q0 5 2 6l9 -12q9 -12 24 -20q23 -12 56 -14h12q48 0 87 21q31 17 58 47q-45 34 -89 67q-71 51 -93 56q-20 5 -20 -5q0 -18 36 -54q42 -41 90 -53q-62 3 -103 39 q-34 30 -34 60q0 13 8 18q13 9 28 9q7 0 14 -2q61 -16 186 -108q50 58 132 218q-16 5 -40 13q-18 9 -13 19q4 6 28 -1l34 -12q9 17 48 93q67 132 95 182q-128 38 -244 38q-182 0 -182 -118q0 -28 31 -66q26 -32 57 -53q7 -7 7 -8q-1 -3 -13 4q-107 61 -116 114q-2 10 -2 18 q0 70 90 102q64 22 153 22q21 0 36 -1q101 -9 195 -32q28 49 55 74q17 16 30 22t17 6q2 0 3 -1l-17 -20q-26 -32 -52 -90q139 -37 218 -97q12 -9 12 -14q0 -1 -1 -2z"/>
<glyph glyph-name="F" horiz-adv-x="605" unicode="F" d="M844 481q1 1 -13 9q-55 33 -225 82q-22 -48 -74 -158q-36 -75 -60 -118q50 -13 84 -18q45 -8 128 -17q9 0 8 -3t-17 -4q-13 -1 -26 -1q-61 0 -127 12q-29 5 -59 12q-74 -136 -165 -234q-127 -135 -241 -135q-37 0 -58 15t-21 39q0 56 86 98q26 13 26 6l-22 -14 q-57 -37 -57 -80q0 -21 16.5 -35.5t44.5 -14.5q100 0 208 142q58 76 136 225q-50 14 -50 29q0 2 1 3q2 2 6 2q10 0 32 -9q6 -2 21 -6q17 31 58 112q31 61 84 163q-131 38 -246 38q-181 0 -181 -118q0 -28 31 -66q26 -32 57 -53q7 -7 7 -8q-1 -3 -13 4q-107 60 -116 114 q-2 10 -2 18q0 70 90 102q64 22 153 22q21 0 36 -1q107 -10 194 -32q20 34 48 65q11 12 33 22q15 8 20 8q2 0 2 -1l-13 -17q-26 -33 -53 -87q141 -38 218 -96q12 -9 12 -14q0 -1 -1 -2z"/>
<glyph glyph-name="G" horiz-adv-x="777" unicode="G" d="M594 11q-45 -33 -92 -94q-32 -41 -46 -96q-6 -24 0 -27q2 -1 4 -1q10 0 24 17q25 30 48 72q28 51 62 129zM794 576q0 -45 -59 -74q-51 -25 -109 -25q-40 0 -62 12q-26 14 -20 20q1 1 10 -5t12 -7q25 -9 53 -9h6q45 1 83 22q45 26 45 64q0 30 -47 45q-36 12 -91 12h-8 q-77 -1 -172 -37q-112 -42 -194 -115q-176 -157 -176 -330q0 -80 51.5 -124t146.5 -44q16 0 32 1q142 11 262 97q65 47 110 114q19 29 37 73q10 25 18 25h2q18 -5 18 -27q0 -13 -8.5 -28.5t-17.5 -28.5q-22 -57 -61 -152q15 8 30 15q24 11 42 15q5 2 6 -1q0 -3 -3 -5 q-16 -7 -44 -20q-20 -10 -38 -22q-34 -78 -66 -133t-79 -95q-41 -35 -61 -35q-14 0 -14 18q0 5 1 12q8 49 64 120q47 59 110 107q25 54 55 130q-33 -50 -95 -95q-134 -96 -304 -96q-109 0 -176 44q-73 49 -73 136q0 97 59 192q50 81 133 147q87 69 214 113q109 37 194 40h27 q157 0 157 -66z"/>
<glyph glyph-name="H" horiz-adv-x="918" unicode="H" d="M565 310q-10 0 -27 1h-24q-80 0 -170 -22q-100 -23 -158 -61q-168 -109 -168 -226q0 -81 96 -81q116 0 272 150q83 80 179 239zM997 547q-47 -145 -101 -264q-5 -11 -9 -19q14 -6 40 -17q10 -5 9 -7q-1 -3 -13 2q-25 10 -40 14q-37 -80 -119 -198q55 56 101 73q8 3 8 -2 l-19 -12q-36 -23 -85.5 -72.5t-67.5 -72.5q-14 -14 -15 -14q-5 2 0 11l27 47q62 108 128 254q-53 16 -115 26q-52 9 -112 12q-89 -146 -197 -249q-67 -64 -143 -103q-87 -45 -162 -45q-107 0 -107 96q0 64 44.5 130t122.5 113q61 37 155 58q87 19 172 19h9q29 0 65 -2 q33 54 55 100q44 92 66 153q-46 10 -106 26.5t-95 24.5q-63 14 -96 17t-43 3q-44 0 -79 -18q-57 -29 -57 -99v-9q2 -29 27 -67q20 -30 43 -49q7 -7 6 -9q-1 -3 -10 4q-91 66 -100 113q-3 15 -3 28q0 73 82 101q46 16 111 16h8q73 -1 209 -38q70 -19 107 -32q4 14 6 30 q1 7 5 8q5 1 9 -16t3 -30q21 -6 61 -17q16 -4 16 -5q-1 -3 -17 -2q-26 5 -61 14q-9 -72 -47 -155q-28 -61 -51 -96q49 -4 104 -13q59 -9 118 -30q4 7 8 16q50 109 102 242q12 25 32 71q7 16 32 22q3 1 5 -1q1 -3 -2 -10.5t-24 -70.5z"/>
<glyph glyph-name="I" horiz-adv-x="425" unicode="I" d="M572 564q-1 -5 -17 -3q-10 2 -31 6q-7 -77 -50 -180q-71 -169 -178 -306q-74 -94 -140 -147q-45 -35 -76 -35q-6 0 -12 1q-28 7 -28 42q0 58 51 110q16 17 27 22q-9 -11 -16 -24q-36 -72 -36 -122q0 -20 13 -20q24 0 52 26q59 56 125 152q98 142 170 305q43 97 69 184 q-63 13 -124 30q-129 35 -212 43q-11 1 -21 1q-44 0 -77 -18q-54 -28 -54 -94q0 -7 1 -14q2 -29 29 -67q21 -30 44 -49l7 -9q-1 -3 -11 4q-93 62 -104 113q-4 17 -4 32q0 70 81 98q45 15 103 15h7q75 -1 171 -26l166 -48q1 10 1 18t-1 15q-2 8 1 9q6 3 16 -14t11 -36 q3 -1 30 -9z"/>
<glyph glyph-name="J" horiz-adv-x="574" unicode="J" d="M372 58q-88 -32 -265 -105q-165 -77 -165 -121q0 -32 53 -32q14 0 33 3q58 9 133 52.5t131 103.5q44 47 80 99zM698 560l-42 9q-9 -81 -52 -179q-49 -112 -101 -205q-32 -56 -58 -94q31 11 91 39q8 5 15 12q4 4 5 3q2 -1 2 -3q0 -7 -24 -22q-40 -25 -101 -46 q-46 -65 -97 -113q-66 -63 -158 -112q-107 -57 -184 -57q-69 0 -70 38v1q0 65 174 144q77 35 285 99q26 36 66 107q53 92 106 211q49 108 68 184q-74 15 -103 19q-67 10 -135 12h-26q-95 0 -142 -20q-84 -35 -84 -137q0 -13 1 -26q6 -62 69 -116q8 -6 6 -8q-1 -2 -9 2 q-31 17 -60 45q-37 36 -44 69q-4 21 -4 40q0 101 118 143q74 26 180 26h8q88 -1 227 -37q1 19 6 42h1q5 0 13 -14t11 -35q19 -5 32.5 -9.5t13.5 -8.5q0 -3 -4 -3z"/>
<glyph glyph-name="K" horiz-adv-x="699" unicode="K" d="M970 552q1 -11 -3 -22t-8 -11q1 0 -4 21q-9 39 -58 39q-62 0 -176 -81q-79 -56 -197 -162q-14 -12 -15 -19q-1 -5 8 -30q36 -98 82 -188q65 -125 105 -175q64 -80 134 -80q41 0 68 24q24 21 31 55q3 15 4 15q3 0 7.5 -10.5t2.5 -22.5q-5 -34 -42 -53q-32 -18 -73 -18 q-149 0 -280 247q-57 106 -86 207q-7 23 -4 30q1 5 19 20q103 89 225 173q139 96 201 96q61 0 59 -55zM618 663q0 -1 -5 -7q-10 -9 -17 -17q-21 -26 -36 -57q14 -6 19 -9q15 -7 13 -10q-1 -2 -3 -1q-11 4 -33 11q-30 -71 -125 -271q-89 -175 -187 -281q-109 -118 -202 -120 h-3q-32 0 -47 21q-10 13 -10 21q0 3 1 5q0 -1 13 -12q20 -16 56 -16q83 0 164 104q58 75 165 283q58 117 144 278q-55 19 -113 35q-106 29 -212 32h-10q-53 0 -89 -19q-57 -29 -57 -101v-10q1 -31 26 -71q20 -32 43 -52q8 -7 6 -9q-1 -2 -9 3q-92 63 -102 117q-3 15 -3 28 q0 78 87 110q50 18 118 18q80 0 204 -30q53 -13 117 -41q12 21 29 38t37.5 27t20.5 3z"/>
<glyph glyph-name="L" horiz-adv-x="365" unicode="L" d="M774 580q-3 -43 -37 -75q-5 -5 -8 -1q1 -1 6 8q21 29 21 62q0 73 -85 73q-83 0 -162 -65q-65 -54 -160 -184q-100 -137 -170 -255q44 -60 115 -134q159 -166 266 -166q64 0 100 52q7 10 8 9q3 -2 -1 -11q-38 -77 -118 -77q-61 0 -122.5 35t-143.5 118q-59 59 -119 149 q-64 -106 -96 -187q-8 -21 -9 -21q-3 2 -3 10q0 9 4 26q19 81 83 203q-21 37 -43 62q-16 -8 -35 -38q-55 -88 -56 -201q0 -31 7 -57q4 -12 12 -23q-14 6 -24 28q-18 40 -19 85v7q0 105 59 178q25 31 43 33h3q11 0 28 -6q8 -2 37 -44q67 132 154 243q79 101 179 174 q110 79 185 79q51 0 79 -28q22 -23 22 -56v-5z"/>
<glyph glyph-name="M" horiz-adv-x="993" unicode="M" d="M740 629q-2 -3 -9 -16.5t-9 -17.5l7 -1q4 11 11 35zM1065 579q3 -7 3 -18q0 -23 -13 -63q-27 -81 -88 -235q-42 -104 -102 -216q55 62 89 73q5 1 8 -2q-5 -3 -16 -10q-32 -21 -74 -76q-19 -25 -52 -61q-20 -22 -21 -22q-17 5 -9 20t20 38q21 43 108 258q37 92 113 261 q7 15 12 31q4 13 2 13q-1 1 -8 -9.5t-20 -31.5q-48 -79 -153 -215q-62 -80 -183 -206q-50 -52 -125 -116q-20 -32 -37 -32q-2 0 -4 1q-4 1 -4 5q0 7 9 22q6 9 15 20q20 48 51 135q44 123 74 223l65 214l-10 1q-66 -110 -161 -230q-90 -112 -168 -188q-127 -123 -254 -192 q-112 -61 -185 -62h-4q-73 0 -81 35q-1 5 -1 9q0 21 23 42t56 30q16 4 17 2q0 -1 -8 -5q-26 -10 -42 -28.5t-16 -34.5q0 -4 1 -8q7 -29 61 -29q158 0 454 289q158 154 296 372q-29 5 -95 16q-173 29 -183 30q-100 15 -179 17h-20q-69 0 -119 -18q-78 -28 -78 -93v-10 q2 -28 36 -62q30 -31 63 -46q12 -5 11 -7q-1 -1 -14 3q-47 15 -87 43.5t-48 56.5q-4 15 -4 28q0 69 105 99q61 17 133 17q17 0 34 -1q163 -9 354 -40q1 0 99 -19q34 52 56 121q3 9 6 9h1q10 -2 10 -30q0 -25 -9 -69q-3 -15 -9 -40q78 -12 117 -13l23 -1q0 -6 -24 -6 q-53 0 -119 7q-15 -69 -55 -218q-28 -94 -82 -223q-31 -74 -56 -117q60 56 97 95q63 66 87 92q53 59 99 117q90 114 151 209q17 27 33 48q8 11 16 10q9 -2 12 -9z"/>
<glyph glyph-name="N" horiz-adv-x="795" unicode="N" d="M1054 587q-42 0 -73 -20q-36 -23 -89 -106q-34 -53 -81 -148q-56 -113 -95 -207q-13 -29 -41 -100q-22 -57 -36 -57h-1q-7 1 -7 11q0 8 5 22q5 9 12 26q4 26 4 65q0 34 -3 78q-7 93 -24 202q-13 82 -34 142q0 -12 -6 -34q-35 -126 -124 -258q-100 -148 -227 -231 q-109 -72 -200 -72q-8 0 -16 1q-40 3 -62.5 22.5t-22.5 49.5v5q3 38 32 49q-7 -11 -7 -34v-11q3 -59 72 -65q9 -1 18 -1q184 0 393 306q105 154 133 240q7 22 7 41q0 17 -6 30q-69 152 -242 152q-78 0 -127 -50t-49 -122v-9q5 -116 97 -155q11 -4 10 -6q-2 -3 -17 0 q-124 43 -128 163v7q0 76 64.5 129.5t159.5 53.5q202 0 281 -170q34 -72 51 -183q14 -90 14 -169v-20q-1 -71 -13 -129q14 47 31 90q25 65 90 213q53 113 86 165q42 66 85 93q23 14 48 15h4q27 0 34 -14z"/>
<glyph glyph-name="O" horiz-adv-x="619" unicode="O" d="M536 557q-30 45 -82 72q-57 30 -126 30h-4q-76 -1 -126 -49.5t-50 -114.5q0 -8 1 -16q2 -21 7 -36q57 65 145 107q67 32 139 32q10 0 20 -1q46 -3 76 -24zM629 498q12 -44 12 -95q0 -135 -76 -261q-53 -88 -143 -149q-98 -66 -195 -66q-83 0 -138.5 49.5t-61.5 133.5 q-1 13 -1 25q0 94 46 188q29 61 65 101q-14 26 -16 60v11q0 70 59.5 121t148.5 52h7q188 0 244 -164q8 -23 -4 -25q-8 -1 -16 22q-5 14 -18 38q-28 31 -81 33h-12q-75 0 -133 -36q-77 -47 -141 -136q29 -46 85 -68q11 -4 10 -6q-3 -4 -16 1q-59 21 -90 57q-15 -22 -43 -69 q-60 -115 -60 -205q0 -149 128 -170q18 -3 35 -3q86 0 169 67q68 55 121 145q98 164 98 295q0 137 -125 215q-6 2 -3 5q3 2 9 -1q39 -20 75 -60q46 -49 61 -105z"/>
<glyph glyph-name="P" horiz-adv-x="618" unicode="P" d="M694 401q8 26 8 48q0 108 -191 132q-31 4 -47 5q-26 -53 -91 -186q-33 -68 -59 -114q62 -30 134 -31h5q196 0 241 146zM746 399q-25 -88 -117 -127q-69 -29 -166 -29h-13q-79 2 -141 33q-143 -260 -236 -345q-34 -31 -55 -31h-4q-34 6 -34 65q0 69 64 138q14 16 30 26 t18 7l-10 -9q-14 -12 -26 -30q-45 -68 -48 -149v-5q0 -32 11 -34h2q14 0 45 34t89 140q17 31 114 216q-23 16 -38 32t-15 24q0 2 1 3q1 0 6 -6q6 -10 14 -16q13 -14 36 -29q15 31 48 94q70 135 102 188q-43 2 -151 9q-64 5 -89 11q-43 11 -43 34q0 28 63 43q38 9 75 9 q10 0 20 -1q24 -2 24 -5q0 -4 -16 -3q-13 1 -24 1q-106 0 -106 -42q0 -26 99 -35q46 -2 154 -11q21 33 35 48q20 21 41 33.5t25 8.5l-15 -21q-29 -40 -46 -72q13 -1 47 -5q236 -29 236 -153q0 -19 -6 -39z"/>
<glyph glyph-name="Q" horiz-adv-x="594" unicode="Q" d="M137 -134q-83 -30 -140 -64q-25 -15 -52 -37q98 41 192 101zM669 511q3 -19 3 -40q0 -153 -146 -322q-83 -96 -223 -191q-35 -21 -102 -59q118 33 205 33q148 0 148 -79q0 -20 -14 -36q-11 -11 -14 -8q1 -1 10 13q5 7 5 18q-1 32 -49 51q-41 17 -92 17q-136 0 -241 -35 q-58 -45 -138 -84l-90 -42q-6 -3 -8 -3h-1q-1 1 -1 2q0 3 4 8q30 37 68 60q67 40 173 76q56 33 90 58q120 88 221 213q156 193 156 326q0 59 -31 95.5t-89 37.5h-3q-88 0 -185 -60q-115 -72 -200 -213q-100 -166 -100 -263q0 -103 92 -103q75 0 175 74q63 46 104 101 q31 41 39 70q3 9 3 17q0 7 -2 14q-2 11 -1 11h3q9 0 9 -26q0 -10 -3 -22q-8 -33 -34 -74q-38 -62 -101 -108q-91 -67 -189 -67q-120 0 -128 120q-1 10 -1 20q0 116 84 245q89 136 217 212q103 61 214 61h7q54 -1 95 -26q51 -32 61 -92z"/>
<glyph glyph-name="R" horiz-adv-x="573" unicode="R" d="M335 273q-10 19 -27 38q-2 -4 -7 -13t-7 -13q14 -6 41 -12zM270 338q-34 24 -55 24q-7 0 -12 -5q-1 -2 -1 -4q0 -13 24 -32q9 -7 27 -16q3 5 9 17zM646 414q7 23 7 45q0 90 -125 139q-26 10 -67 18q-28 -58 -104 -213q-20 -40 -40 -76q36 -28 60 -61q16 -2 27 -2h5 q82 0 144 35q71 41 93 115zM826 -85q-5 -34 -43 -54q-33 -18 -74 -18q-150 0 -285 248q-32 68 -84 171q-31 7 -51 14q-137 -250 -237 -341q-38 -35 -62 -35h-5q-25 4 -25 35q0 38 25 81t58 58q-6 -7 -17 -24q-41 -78 -41 -127q0 -13 6 -14h3q16 0 44 30q44 47 211 358 q-22 10 -31 18q-31 22 -31 40q0 4 2 7q7 8 24 8q34 0 65 -19q22 44 34 67q79 151 114 204q-65 7 -136 7h-18q-106 -1 -175 -23q-106 -33 -106 -110q0 -7 1 -14q3 -30 37 -63q30 -28 67 -45q8 -6 8 -7q-1 -2 -14 2q-49 15 -86 41q-42 30 -48 60q-3 14 -3 26q0 88 134 124 q81 22 186 22q74 0 159 -10q10 13 32 37q14 13 27.5 18.5t18.5 5.5q2 0 3 -1t-13.5 -17.5t-33.5 -48.5q42 -6 69 -15q171 -55 171 -162q0 -19 -6 -38q-24 -82 -121 -125q-73 -32 -156 -32h-19q-11 0 -20 2q25 -44 85 -150q79 -138 112 -178q61 -74 130 -74q41 0 68 24 q25 21 32 55l3 15q4 0 8.5 -9t4.5 -17q0 -4 -1 -7z"/>
<glyph glyph-name="S" horiz-adv-x="808" unicode="S" d="M779 195q-59 -78 -160 -144q-193 -126 -426 -126q-89 0 -146 34q-65 40 -65 115v9q4 84 71.5 162t173.5 124q117 51 249 51h19q64 -2 105 -23q44 -22 44 -60v-6q-4 -39 -43.5 -79t-95.5 -67q-91 -44 -184 -44q-39 0 -39 20v1q1 23 32 28q14 2 14 -3q0 -3 -13 -6 q-24 -6 -24 -18q0 -9 29 -9q63 0 170 52q136 66 141 128v4q0 60 -135 60q-122 0 -254 -58q-99 -43 -168 -110q-77 -75 -80 -148v-9q0 -69 61 -102q52 -29 138 -29q188 0 407 138q231 146 235 285v4q0 58 -58 75q-32 10 -104 10q-18 0 -39 -1h-14q-72 0 -118 19 q-51 21 -51 64v6q5 59 92 97q74 31 154 31h10q38 -1 71.5 -11t33.5 -23v-1q-1 -13 -24 -13q-11 0 -12 4q-1 3 8.5 7t9.5 7q0 7 -44 7.5t-47 0.5q-82 0 -155 -27q-84 -30 -88 -76v-3q0 -32 61 -42q27 -4 113 -4q212 0 212 -127q0 -85 -67 -174z"/>
<glyph glyph-name="T" horiz-adv-x="599" unicode="T" d="M931 507l-30 11q-116 44 -196 64q-7 -86 -56 -194q-77 -170 -183 -297q-62 -75 -158 -126t-176 -51q-146 0 -166 82q-8 16 -8 38q0 26 10 43q6 11 10 10q1 0 -4 -18q-1 -6 -1 -14q0 -44 28 -79q43 -53 133 -53q69 0 148 49q73 45 133 117q100 121 185 302q59 125 76 199 q-179 44 -278 46h-7q-72 0 -128 -21q-76 -30 -76 -92q0 -7 1 -15q7 -57 99 -116q8 -6 7 -9q-1 -2 -12 4q-119 59 -132 112q-4 14 -4 27q0 74 111 103q63 17 142 17h9q139 -2 272 -33q-1 8 -1 16q0 12 2 24q3 1 12 -13t12 -34q94 -26 198 -79q30 -15 28 -20z"/>
<glyph glyph-name="U" horiz-adv-x="761" unicode="U" d="M967 600q-10 -2 -26 -8q-35 -17 -77 -80q-35 -53 -75 -140q-65 -142 -108 -246q-28 -67 -59 -146q26 29 57 40q5 1 8 -1q0 -2 -6 -5q-9 -4 -12 -6q-24 -17 -45 -43q-30 -37 -33 -39q-7 -7 -12 -7h-2q-18 6 -11 24q38 103 75 191q-111 -182 -238 -182q-112 0 -218 99 q-71 -47 -136 -47q-18 0 -29 5t-11 9q0 1 1 2l12 -4q8 -3 18 -3q57 0 131 52q-9 8 -33 32q-27 28 -72 69q-12 9 -21 9q-5 0 -9 -2q-8 -4 -8 -12q0 -12 22.5 -37.5t42.5 -31.5q-40 0 -61 28q-11 15 -11 33t11 27q9 7 20 7q10 0 23 -6q33 -16 78 -56q17 -14 47 -40 q25 19 41 34q82 81 153 211q66 121 68 207v6q0 104 -110 106h-2q-76 0 -166 -92t-90 -170q0 -46 45 -46q34 0 65 17q12 7 13 6q3 -4 -11 -13q-36 -19 -67 -19q-56 0 -60 57v11q0 84 82 172q82 87 192 87h3q61 -1 102.5 -34t44.5 -88v-14q0 -91 -60 -204q-56 -104 -167 -202 q-15 -13 -60 -47q114 -101 191 -103h3q120 0 250 216q34 81 70 155q59 120 96 172q30 42 69 68q33 23 58 26q7 1 11 0t3 -4z"/>
<glyph glyph-name="V" horiz-adv-x="629" unicode="V" d="M805 614q-37 0 -77 -71q-18 -32 -18 -79q0 -26 7 -51q57 75 96 152q10 20 10 33q0 16 -18 16zM837 591q0 -26 -18 -64q-30 -66 -87 -144q10 -21 19 -36q-12 10 -24 29q-12 -16 -31 -38q-66 -76 -180 -184q-120 -113 -290 -217q-31 -18 -42 -18h-3q-4 1 -4 7q0 14 18 41 q110 162 179 341q55 141 55 226q0 129 -113 134h-10q-85 0 -169 -62q-64 -47 -103 -107q-39 -59 -39 -112v-10q3 -44 48 -46h3q23 0 61 15l14 5q3 -3 -11 -11q-32 -18 -66 -18q-26 0 -45 15t-21 42q-1 8 -1 17q0 54 33 110q34 61 96 108q85 64 195 64h16q58 -3 100 -32 q46 -33 55 -85q4 -25 4 -51q0 -79 -54 -216q-22 -56 -75 -149.5t-100 -159.5q-20 -29 -20 -32q0 -1 1 -1q6 0 32 18q121 82 238 193q75 71 179 198q18 22 33 43q-19 40 -19 82q0 44 20 78q15 26 43 43t51 17q32 0 32 -33z"/>
<glyph glyph-name="W" horiz-adv-x="1096" unicode="W" d="M1277 518v-10q0 -36 -28.5 -59.5t-79.5 -23.5q-54 0 -149 40q-14 6 -40 20l14 -14q77 -88 77 -200q0 -110 -72 -217q-78 -115 -178 -115h-7q-79 3 -126 68q-51 69 -51 191t42 244q-23 -38 -61 -87q-54 -69 -181 -187q-39 -36 -117.5 -95.5t-121.5 -85.5q-19 -24 -58 -69 q-16 -16 -24 -16h-3q-15 2 -5 22q17 35 60 69q129 167 201 315q38 78 53 123q21 62 21 116q0 9 -1 18q-3 45 -31.5 72.5t-75.5 29.5h-8q-84 0 -169 -58q-66 -45 -110 -106q-45 -64 -45 -119v-7q2 -44 46 -46h4q29 0 61 15q13 6 14 5q3 -4 -11 -11q-34 -18 -67 -18 q-59 0 -64 57q-1 7 -1 15q0 56 40 117q39 62 103 106q87 61 189 61q9 0 19 -1q62 -3 103 -33.5t47 -82.5q2 -18 2 -36q0 -87 -72 -231q-54 -108 -193 -275q119 78 210 163q116 109 178 184q38 47 80 118q15 48 37 88q12 21 21 21q2 0 4 -1q14 -4 6 -26q-4 -11 -46 -77 q-28 -101 -28 -233q0 -27 1 -56q5 -123 33 -183q31 -65 94 -68h6q95 0 160 124q57 107 57 218q0 106 -51 173q-18 23 -37 31q-22 8 -59 26q-8 5 -6 12q2 4 16 1q44 -8 71 -37q23 -11 51 -22q80 -30 145 -30q47 0 73.5 20.5t26.5 53.5q0 13 -5 26q-3 8 -1 9q5 1 8 -7 q8 -13 9 -29z"/>
<glyph glyph-name="X" horiz-adv-x="638" unicode="X" d="M940 552l-13 14q-16 16 -44 18h-11q-67 0 -141.5 -57.5t-172.5 -157.5q0 -97 -7 -165q-11 -110 -30 -166q29 55 73 69q9 5 9 -1q0 1 -17 -10q-24 -16 -53 -55q-11 -17 -37 -55q-12 -16 -19 -15q-16 2 -11 12q6 13 11 30q10 36 28 193q7 60 7 121q-45 -49 -149 -162 q-49 -52 -99 -94q-27 -23 -48 -36q35 -25 51 -34q35 -20 60 -21h7q64 0 92 56q5 10 8 8t-5 -19q-30 -60 -106 -60h-2q-62 1 -135 52q-57 -34 -102 -34q-17 0 -30.5 6t-9.5 12q0 1 11.5 -3.5t26.5 -4.5q37 0 92 33q-12 9 -32 25q-31 28 -77 69q-15 13 -23 13q-4 0 -7 -2 q-4 -3 -4 -9q0 -11 13 -34q17 -29 37 -40q-25 4 -42.5 22t-17.5 42q0 19 10 25q6 5 15 5q11 0 28 -7q21 -9 90 -60q27 -20 40 -31q16 11 45 34q55 45 105 98q46 49 157 171q0 101 -9 157q-24 150 -135 150q-95 0 -192 -86q-111 -99 -111 -191q0 -45 45 -47h7q28 0 58 14 q15 7 15 6q3 -3 -12 -11q-34 -17 -65 -17h-3q-56 2 -61 56q-1 7 -1 14q0 46 28 96q29 54 78 95q96 80 215 80q148 0 177 -143q13 -63 13 -131q91 97 161 152q88 68 154 68h10q28 -3 45 -23q13 -15 13 -29q0 -4 -1 -5z"/>
<glyph glyph-name="Y" horiz-adv-x="695" unicode="Y" d="M802 528q-15 -37 -44 -74q-43 -141 -89 -242q-120 -262 -285 -414q-178 -164 -353 -164q-38 0 -60 19q-17 13 -17 28q0 4 2 5q-2 -1 16 -11q23 -12 66 -14h14q82 0 153 33q70 33 147 108q148 144 286 440q24 50 75 162q-99 -169 -249 -300q-131 -114 -217 -142 q-19 -6 -33 -6q-10 0 -16 3q-13 6 -13 24q0 14 8 30q6 13 73.5 118.5t102.5 176.5q73 151 73 243v14q-6 96 -103 100h-9q-81 0 -165 -53q-70 -44 -118 -105q-53 -66 -53 -124v-6q2 -44 46 -46h3q28 0 63 16q13 6 13 5q2 -4 -11 -11q-36 -19 -68 -19q-57 0 -60 54v8 q0 60 41 125q40 62 96 100q98 66 208 66h13q70 -2 111 -44t41 -107q0 -93 -73 -230q-33 -63 -175 -276q-16 -24 -16 -35q0 -3 1 -5q3 -5 11 -5q9 0 25 7q80 35 197 137q151 132 266 331q14 39 37 86q14 28 28 28q2 0 8.5 -2t6.5 -14q0 -7 -4 -18z"/>
<glyph glyph-name="Z" horiz-adv-x="440" unicode="Z" d="M690 654q3 -4 3 -8q0 -12 -20 -30q-15 -14 -55 -50q25 -16 40 -31q11 -11 7 -13l-9 7q-21 15 -47 27q-77 -73 -196 -192q-143 -143 -210 -217q48 -76 95 -131q86 -102 156 -102q61 0 100 56q6 11 9 10q4 -3 -1 -12q-41 -70 -112 -71h-4q-92 0 -169 92q-29 34 -92 140 q-87 -85 -141 -171l-14 -22q-5 2 3 24q29 78 136 198q-15 28 -33 56q-18 -7 -41 -40q-86 -120 -92 -208v-9q0 -14 2 -26t3 -11q-5 -5 -12 15q-8 16 -8 42q0 96 76 202q33 46 52 48q15 2 29.5 -2.5t39.5 -49.5q80 97 196 216q94 96 197 181q-49 23 -99 39q-54 18 -75 24 q-46 13 -94 19q-16 2 -33 2q-135 0 -135 -107q0 -26 22 -60q19 -28 41 -47q7 -6 5 -8t-9 3q-80 53 -87 104q-1 9 -1 17q0 61 66 89q47 19 115 19q18 0 32 -1q82 -9 163 -36q49 -16 102 -46q9 8 34 27l-1 12q16 4 38 22q14 12 22 12q4 0 6 -2z"/>
<glyph glyph-name="bracketleft" horiz-adv-x="339" unicode="[" d="M506 638h-111l-352 -793h113q22 0 22 -6t-18 -6h-127q-27 0 -27 14q0 10 11 33q65 140 330 740q9 21 17 25.5t35 4.5h103q18 0 18 -5q0 -7 -14 -7z"/>
<glyph glyph-name="backslash" horiz-adv-x="150" unicode="\" d="M116 -130h-1q-5 0 -12 22q-42 145 -51 289q-3 39 -3 80q0 135 21 242q7 34 13 34q2 0 1 -15v-18q-2 -53 -2 -111q0 -106 7 -230q10 -164 26 -269q2 -13 2 -19q0 -4 -1 -5z"/>
<glyph glyph-name="bracketright" horiz-adv-x="339" unicode="]" d="M400 603q-65 -140 -330 -740q-9 -21 -17 -25.5t-35 -4.5h-103q-18 0 -18 5q0 7 14 7h111l352 793h-113q-22 0 -22 6t18 6h127q27 0 27 -14q0 -10 -11 -33z"/>
<glyph glyph-name="asciicircum" horiz-adv-x="500" unicode="^" d="M391 194q-4 -3 -13 9q-29 40 -56 96q-68 -48 -178 -100q-18 -8 -25 -8q-4 0 -4 2q0 4 12 11q88 51 186 127q15 12 24 12q7 0 12 -16q20 -70 42 -119q3 -6 3 -10t-3 -4z"/>
<glyph glyph-name="underscore" horiz-adv-x="500" unicode="_" d="M410 -237h-508v32h508v-32z"/>
<glyph glyph-name="grave" horiz-adv-x="275" unicode="`" d="M277 314h-2q-14 0 -43 13.5t-45 28.5q-19 18 -19 30t12 12q14 0 31 -20l32 -36q20 -20 34 -28z"/>
<glyph glyph-name="a" horiz-adv-x="259" unicode="a" d="M192 234q2 6 2 11q0 19 -20 19q-32 0 -72 -49q-35 -45 -66 -114q-17 -38 -17 -60q0 -14 10 -15h1q20 0 60 46q35 40 69 94q20 33 33 68zM245 264q-18 -44 -55 -139q-23 -60 -54 -117q26 33 54 55q23 18 35 22q6 3 7 1q2 -3 -5 -6q-16 -8 -42 -33t-50 -54q-14 -17 -26 -17 h-2q-14 2 -5 22q24 54 69 171q-37 -66 -85 -116q-43 -45 -67 -45h-1q-30 2 -30 44q0 33 20 77q23 50 72 95q54 50 93 50h3q25 -1 28 -24q7 13 11 19q8 10 17 10h3q11 -2 11 -10q0 -2 -1 -5z"/>
<glyph glyph-name="b" horiz-adv-x="221" unicode="b" d="M264 514q0 -1 -5 -4q-9 -5 -18 -14q-15 -15 -52 -79q-41 -68 -73 -138q-64 -138 -85 -228q-3 -14 -3 -24q0 -20 14 -22h3q19 0 47 37q26 34 43.5 78.5t23.5 77.5q2 9 2 17q0 25 -22 39q-18 11 -5 23q3 2 6 2q10 0 21 -13q5 -5 14 -23q11 -11 25 -11q9 -1 20.5 4.5 t10.5 6.5q6 -4 -6.5 -12.5t-24.5 -8.5q-13 0 -21 5q7 -17 7 -41q0 -39 -15 -73q-23 -52 -60.5 -85t-67.5 -33h-3q-42 3 -42 55q0 74 78 234q76 155 150 215q21 17 34 17q3 0 4 -2z"/>
<glyph glyph-name="c" horiz-adv-x="177" unicode="c" d="M196 266q0 -14 -16 -25q-10 -5 -11 -2q-1 1 2 9.5t3 16.5q0 10 -7 11h-4q-28 0 -69.5 -59.5t-60.5 -128.5q-9 -34 -9 -52q0 -25 18 -25q23 0 56 42q24 29 40 62q11 22 10 22q6 -1 -4 -27q-19 -49 -57 -85q-28 -27 -55 -27q-44 0 -45 50v3q0 44 25 95q29 58 73 97.5 t83 40.5q28 0 28 -18zM148 137v0v0z"/>
<glyph glyph-name="d" horiz-adv-x="217" unicode="d" d="M193 368q-2 49 -16 78q-12 23 -23 23q-5 0 -5 -23q0 -21 3 -36q9 -45 39 -82q2 14 2 30v10zM283 273q-3 -3 -9 -3q-9 0 -24 7t-27 16q-12 -86 -58 -171q-28 -52 -69 -90q-39 -38 -66 -38q-3 0 -6 1q-37 6 -37 57q0 40 28 99q45 97 138 120q17 4 17 -1q0 -1 -16 -7 q-62 -22 -106 -126q-30 -70 -30 -108q0 -21 11 -23h3q18 0 49 39q39 51 69 133q14 39 22 63q12 42 17 75q-8 8 -22 25q-35 47 -35 89q0 44 24 46h2q21 0 39 -25q23 -30 27 -78q2 -17 2 -34t-2 -34q12 -12 34 -24q8 -4 18 -6q7 -1 7 -2z"/>
<glyph glyph-name="e" horiz-adv-x="187" unicode="e" d="M174 275q-17 0 -42 -19q-21 -16 -31 -31q13 -7 27 -7h2q20 0 38 15.5t18 29.5q0 12 -12 12zM215 268q0 -20 -19 -36q-27 -23 -60 -23q-5 0 -11 1q-16 2 -29 8q-18 -26 -28 -45q-29 -59 -42 -105q-5 -20 -5 -34q0 -23 13 -27q3 -1 6 -1q14 0 35 16.5t37.5 44.5t25.5 63 q3 12 6 12q4 0 3 -11q-1 -28 -24 -67q-43 -73 -89 -73q-5 0 -9 1q-39 6 -39 57q0 18 5 38q15 59 53 108q72 91 145 91h2q24 0 24 -18z"/>
<glyph glyph-name="f" horiz-adv-x="167" unicode="f" d="M90 245q-18 0 -34 -2q12 -13 12 -36q0 -11 -3 -25zM377 493q-3 -23 -38 -45q-13 -8 -14 -4l9 9q15 15 15 32q0 23 -25 23q-67 0 -133 -126q-24 -45 -55 -123q15 0 42 -2q38 -3 38 -8q0 -1 -37 -1q-17 0 -49 -2q-28 -71 -93 -232q-60 -143 -143 -227q-93 -95 -197 -95 q-32 0 -51 18q-13 12 -13 18q0 2 1 4q0 1 15 -8q20 -11 51 -11q114 0 187 87q47 57 112 213q39 93 57 147q4 14 4 30v12q-2 26 -22 37q-11 6 -10 9q3 7 26 9q15 1 42 1q30 76 61 124q91 140 190 140q30 0 30 -23v-6z"/>
<glyph glyph-name="g" horiz-adv-x="242" unicode="g" d="M77 -45q-44 -26 -82 -79q-28 -39 -39 -86q-4 -16 2 -18q7 -1 21 11q24 21 48 65q27 49 50 107zM259 264q0 -6 -6 -10.5t-9 -3.5q1 2 -2 12.5t-20 10.5q-34 0 -71 -22q-73 -43 -118 -149q-16 -38 -17 -62q-1 -15 8 -17h3q16 0 46 32q25 27 85 114q11 17 29 42q15 13 34 21 q10 4 11 1q0 -1 -8 -9q-37 -75 -96 -235q12 7 27 14q12 6 28 8q10 2 10 -1q0 -2 -7.5 -4.5t-28.5 -11.5q-12 -5 -34 -20q-30 -64 -71 -126q-22 -33 -56.5 -63.5t-51.5 -30.5q-13 0 -13 15q0 4 1 8q7 44 53 105q38 50 97 89q6 12 68 170q-38 -61 -72 -96q-36 -37 -58 -37h-1 q-32 2 -33 45v3q0 32 17 70q39 87 129 131q51 25 91 25q36 0 36 -18z"/>
<glyph glyph-name="h" horiz-adv-x="225" unicode="h" d="M277 527q0 -1 -4 -5q-10 -6 -19 -15q-34 -33 -68 -89q-42 -69 -86 -167q-29 -65 -57 -139q29 38 64 79q42 48 74 75q16 13 28 13q3 0 11 -3t-1 -24q-18 -40 -53 -126q-23 -60 -37 -108q-2 -13 0 -14t3 -1q5 0 27 17q7 7 9 6q5 -3 -4 -10q-32 -36 -55 -36h-3q-14 2 -14 20 q0 5 1 12q8 48 38 121q14 32 40 95q4 11 2 13q-4 2 -13 -7q-41 -41 -76 -84q-27 -33 -79 -122q-5 -6 -16 -21q-8 -11 -17 -8q-4 1 -4 6t4 14l49 129q18 49 61 148q34 70 75 130q39 57 89 89q20 13 28 13q3 1 3 -1z"/>
<glyph glyph-name="i" horiz-adv-x="142" unicode="i" d="M134 275q-30 -54 -58 -127q-26 -67 -43 -119q26 24 49 35q8 4 8 0l-17 -12q-17 -12 -38 -37q-32 -36 -37 -35q-12 0 -12 11q0 5 2 10q15 49 50 147q17 41 52 112q-11 -5 -17 -7q-11 0 -11 3t14 7q23 7 48 21q10 5 12 3q3 -3 -2 -12zM207 440q-20 -24 -45 -62 q-8 -21 -16 -21h-1q-7 1 -10.5 7.5t-3.5 11.5q0 3 1 6q5 16 32 35q24 17 43 23z"/>
<glyph glyph-name="j" horiz-adv-x="137" unicode="j" d="M-38 -38q-57 -38 -91.5 -87t-41.5 -89q-3 -16 3 -19q1 -1 3 -1q18 0 67 82q38 62 60 114zM126 277q-16 -45 -48.5 -130t-65.5 -152q6 4 23 12q12 5 29 9q9 0 9 -2t-8.5 -4.5t-28 -11.5t-30.5 -17q-32 -69 -65 -120q-28 -44 -64.5 -76.5t-56.5 -32.5q-12 0 -12 17 q0 4 1 10q7 48 53 105q40 50 104 91q29 59 74 173q24 61 41 113q-9 -6 -16 -7q-12 0 -12 3q0 2 14 6q26 10 50 23q7 4 9 1q3 -2 0 -10zM199 440q-20 -24 -45 -62q-8 -21 -17 -21h-1q-7 1 -10.5 7.5t-3.5 11.5q0 3 1 6q5 16 32 35q24 17 44 23z"/>
<glyph glyph-name="k" horiz-adv-x="263" unicode="k" d="M61 184q-31 -39 -50.5 -86.5t-19.5 -95.5q13 21 38 93q16 44 32 89zM238 257q0 16 -23 16q-43 0 -98 -50q20 -5 43 -5h14q26 2 45 13.5t19 25.5zM401.5 -128.5q-30.5 -16.5 -67.5 -16.5h-5q-52 1 -101 52q-45 46 -77 123q-39 93 -45 177q-46 -125 -88 -193q-5 -8 -14 -20 q-6 -8 -14 -7q-10 3 -10 21q0 41 18 84q23 56 69 108q18 50 39 95q38 83 78.5 137t83.5 82q23 14 31 14q2 0 3 -1l-22 -22q-35 -35 -70 -90q-32 -50 -71 -131q-7 -16 -24 -54q63 60 123 60q40 0 40 -25q0 -22 -32 -38.5t-72 -17.5q-24 0 -36 3q9 -73 46 -171 q66 -176 153 -179h3q68 0 79 79l5 -1q8 -10 8 -21q0 -31 -30.5 -47.5z"/>
<glyph glyph-name="l" horiz-adv-x="137" unicode="l" d="M268 512q0 -1 -5 -4q-9 -5 -18 -14q-17 -17 -54 -79q-42 -72 -73 -141q-64 -144 -86 -228q-6 -22 -6 -31q0 -7 3 -8h3q15 0 39 41q10 16 11 16q6 -2 -6 -23q-32 -54 -60 -54h-1q-22 1 -22 31v8q2 26 11 54q35 113 79 205q70 148 147 212q20 17 34 17q3 0 4 -2z"/>
<glyph glyph-name="m" horiz-adv-x="353" unicode="m" d="M344 252q-17 -40 -52 -126q-14 -35 -38 -108q-3 -13 2 -15q8 -1 23 14q7 7 9 6q3 -3 -4 -10q-30 -33 -50 -33h-3q-14 2 -14 22v8q4 31 40 123q12 30 39 95q5 13 2 14q-3 2 -13 -8q-45 -45 -75 -82.5t-81 -125.5q-3 -5 -14.5 -17.5t-19.5 -10.5q-5 2 4 25q12 33 42 110 q13 31 38 95q4 12 2 13q-4 2 -13 -7q-41 -41 -76 -84q-24 -29 -79 -120q-5 -6 -16 -21q-6 -12 -15 -9q-5 2 -5 9q0 5 3 12q11 28 49 127l42 111q4 10 -4 10q-5 0 -23 -10q-6 -4 -7 -2t4 7q30 27 55 30h3q10 0 14 -6q3 -6 0 -17q-7 -25 -27 -74q-27 -62 -35 -85q29 38 64 79 q42 48 74 75q16 13 28 13q3 0 6 -1q11 -5 3 -26q-8 -20 -57 -139q31 41 63 78q41 47 74 75q16 13 28 13q3 0 8.5 -2t5.5 -10q0 -6 -4 -15z"/>
<glyph glyph-name="n" horiz-adv-x="234" unicode="n" d="M226 252q-17 -40 -52 -126q-14 -34 -37 -108q-3 -13 1 -15q6 -3 24 14q8 7 9 6q2 -2 -5 -10q-29 -33 -49 -33h-3q-15 2 -15 21q0 4 1 9q7 45 39 123q14 32 40 95q4 10 1 12q-4 2 -12 -6q-41 -41 -76 -84q-19 -23 -79 -122q-5 -6 -16 -21q-7 -11 -15 -8q-5 2 -5 8 q0 5 3 12l91 240q4 10 -4 10q-5 0 -23 -10q-5 -5 -7 -2q-1 2 4 7q30 27 55 30h3q10 0 14 -6q3 -6 0 -17q-22 -54 -62 -159q29 38 64 79q42 48 74 75q16 13 28 13q3 0 6 -1q7 -3 7 -11q0 -6 -4 -15z"/>
<glyph glyph-name="o" d="M222 259q0 -2 -9.5 -7t-19.5 -5q-11 0 -22 6q12 -23 12 -56q0 -37 -16 -74q-25 -56 -65.5 -90.5t-65.5 -34.5q-5 0 -9 1q-37 10 -37 64q0 28 12 61q31 90 110 129q18 9 20 7l-12 -12q-61 -64 -90 -164q-9 -31 -9 -49q0 -26 17 -26q23 0 58 52q39 57 57 123q7 25 7 42 q0 27 -18 44q-13 12 -15 17q-4 10 7 15q3 1 5 1q7 0 13 -11.5t17 -22.5q8 -9 24 -12q9 -1 19 1t10 1z" unicode="o"/>
<glyph glyph-name="p" horiz-adv-x="252" unicode="p" d="M-37 -48q-46 -72 -75 -145q-14 -34 -29 -107q17 37 47 104q3 6 57 148zM131 58q-4 -1 -16 -3t-17 -4q0 -22 4 -42q12 12 29 49zM232 248q-9 -73 -63 -175q7 1 22.5 4t16.5 2q1 -4 -16 -10q-6 -2 -28 -7q-16 -26 -52 -62q-9 -11 -17 -11q-13 0 -13 20v6q3 13 8 45l5 4 q27 0 42 5q14 32 35 100q19 63 21 94q-32 -13 -119 -157q-37 -62 -70 -138q-23 -57 -69 -162q-28 -58 -65 -114q-13 -20 -23 -20h-2t-1 4q0 7 3 24q9 52 32 111q31 82 92 171q13 34 46 124q19 53 49 151q-10 3 -27 7q30 6 73 24q2 -1 5 -5l-6 -16q-29 -81 -83 -224 q45 85 90 152q59 87 96 87h2q17 -1 17 -24q0 -4 -1 -10z"/>
<glyph glyph-name="q" horiz-adv-x="242" unicode="q" d="M249 273q0 -5 -4 -10q-8 -10 -13 -10q-1 0 0 12.5t-17 14.5h-6q-33 0 -77 -40q-54 -50 -92 -139q-21 -50 -21 -77q0 -9 6 -11h2q16 0 52.5 42t80.5 113q11 14 34 70q6 15 12 15q12 0 12 -31q0 -14 -35 -106q-20 -51 -55 -133q-65 -151 -121 -216q28 27 57 54q47 47 66 81 q8 15 10 14q6 -2 -9 -27q-20 -35 -61 -76q-29 -27 -57 -55q-6 -7 -22 -41q-14 -28 -18 -28q-9 0 -9 26q0 22 8 33q46 63 105 205q38 92 74 187q-27 -48 -65 -92q-43 -49 -67 -49h-1q-29 1 -29 49q0 45 32 103q37 65 99 104q52 33 95 33h2q32 0 32 -15z"/>
<glyph glyph-name="r" horiz-adv-x="195" unicode="r" d="M220 252q-5 -31 -41 -53q-9 -6 -12 -3q-6 3 2 15q11 16 11 19q3 16 -7 18q-9 2 -18 -7q-19 -16 -31 -29q-27 -29 -51 -68q-26 -57 -71 -135q-3 -2 -10.5 -10t-20.5 -13q-5 -2 -9 -2q-5 0 -7 3q1 -1 9 11q24 38 58 123t41 134q-10 -4 -19 -5q-7 0 -8 2q-1 4 6 6 q40 12 58 26q4 2 6 2t4 -1q3 -3 1 -11q-14 -62 -44 -125q18 27 56 75q26 28 47 41q18 11 31 11q20 0 20 -17q0 -3 -1 -7zM-45 -13v0v0z"/>
<glyph glyph-name="s" horiz-adv-x="173" unicode="s" d="M192 264q0 -24 -34 -40q10 18 10 36q0 17 -10 19q-3 1 -6 1q-22 0 -30 -32q-5 -18 -5 -50q-2 -58 -2 -62q-4 -74 -51 -118q-36 -35 -74 -35h-6q-37 3 -37 33q0 5 1 11q6 39 52 64q24 13 32 13q3 0 4 -1q0 -1 -8 -5q-11 -7 -21 -15q-26 -22 -31 -53q-2 -7 -2 -13 q0 -21 20 -24h5q29 0 51 40t24 105q2 72 17 105q20 45 65 45h4q32 -1 32 -24z"/>
<glyph glyph-name="t" horiz-adv-x="158" unicode="t" d="M206 243v0v0zM206 243q-1 3 -38 3q-36 0 -54 -1q-18 -41 -39 -94q-23 -59 -45 -121q27 25 48 35q7 7 7 -1q0 -1 -16 -12.5t-35 -34.5q-34 -40 -42 -40h-1q-9 1 -9 8q0 4 2 9q26 93 72 206q7 17 19 43q-3 0 -17 -2q-22 -3 -24 1q-2 6 11 9.5t36 5.5q15 33 41 81 q17 31 32 47q11 11 19 11h2q5 -1 5 -5q0 -1 -12 -24q-16 -30 -48 -109q35 0 50 -2q37 -5 36 -13z"/>
<glyph glyph-name="u" horiz-adv-x="244" unicode="u" d="M246 293q0 -2 -3 -9q-32 -50 -66 -141q-12 -33 -40 -100q27 27 56 43q12 6 13 3q1 -2 -6.5 -7t-37 -29t-64.5 -60q-2 -4 -3 -7q-3 -5 -6 -5h-1q-10 2 2 20q14 40 41 115q-31 -48 -49 -69q-41 -46 -63 -46q-28 0 -28 26q0 34 35 118q15 35 55 107q-8 -2 -14 -2q-8 1 -16 4 q2 1 20 5q36 9 48 17q4 2 6 1q1 -1 0 -5q-38 -72 -61 -127q-26 -62 -34 -95q-3 -10 -3 -18q0 -11 7 -13h2q11 0 39 31.5t66 96.5q4 5 6 14q22 52 37.5 82.5t33 41t24.5 10.5q4 0 4 -2z"/>
<glyph glyph-name="v" horiz-adv-x="228" unicode="v" d="M243 269q0 -22 -17 -51q-24 -41 -91 -114q-39 -36 -102 -110q-6 -8 -11 -8h-1q-15 2 -15 16q0 18 12 34q8 15 18 46q28 85 30 140v5q0 35 -26 35q-9 0 -18 -5l-19 -11q-4 11 27 24q27 11 40 11q36 0 36 -48v-8q-3 -52 -43 -154q-11 -29 -22 -48q25 27 75 83 q83 104 107 167q0 1 1.5 13t3.5 12q4 0 9.5 -8.5t5.5 -20.5z"/>
<glyph glyph-name="w" horiz-adv-x="346" unicode="w" d="M348 253q0 -27 -21 -68q-20 -36 -59 -83q-34 -36 -95 -100q-5 -13 -18 -11q-9 2 -9 11q0 15 13 32q8 29 13 86q5 61 10 80q-16 -35 -58 -87q-38 -44 -96 -116q-6 -10 -13 -10q-2 0 -4 1q-13 6 -12 16q0 11 14 34q8 14 20 46q29 82 36 141q1 5 1 9q0 30 -25 31 q-8 0 -19 -5q-4 -2 -11 -7.5t-8 -3.5q-2 6 20 19.5t46 13.5q37 0 37 -43q0 -5 -1 -11q-6 -60 -49 -154q-7 -21 -24 -52q30 35 86 104q35 45 61 94q10 19 19 31q14 19 30 19q4 0 6.5 -1.5t2.5 -4.5q0 -10 -18 -33q-3 -30 -12 -109q-6 -54 -23 -92q42 45 65 76q62 83 76 161 q2 9 0 17q-2 5 0 5q19 0 19 -36z"/>
<glyph glyph-name="x" horiz-adv-x="212" unicode="x" d="M262 264q-11 4 -28 -2q-21 -7 -47 -28q-42 -34 -71 -63q0 -11 1 -40v-49q0 -40 1 -51q1 -15 8 -15q8 0 22 24q5 8 6 7q2 -1 1 -5q-3 -15 -19 -32.5t-29 -17.5q-21 1 -26 38q-1 7 -1 54v60q-33 -31 -62 -66q-47 -56 -62 -90q-8 -18 -7 -18q-4 0 -4 6q0 5 3 14 q14 47 59 100q30 35 73 75q-1 16 -4 48q-5 36 -19 43q-8 4 -18 2l-10 -2q-2 4 10 10q16 8 31 8h3q31 -2 39 -48q3 -17 4 -34q23 24 64 57q31 25 55 29q6 1 10 1q17 0 17 -15z"/>
<glyph glyph-name="y" horiz-adv-x="251" unicode="y" d="M240 256q0 -14 -5 -31q-17 -57 -46 -123q-57 -130 -124 -213q-70 -86 -160 -141q-93 -57 -166 -57q-29 0 -48 19q-8 9 -8 14q0 3 3 5q-1 -1 9 -8q17 -12 49 -12q79 0 144.5 42.5t146.5 146.5q67 87 130 236q-21 -32 -70 -77.5t-64 -67.5q-6 -9 -13 -7q-16 4 -10 23 q18 43 25 65q26 88 29 147v6q0 33 -21 33q-2 0 -14.5 -5.5t-13.5 -4.5q-3 4 14 14q27 15 45 15q29 0 29 -44v-11q-6 -71 -37 -154q-12 -31 -29 -62q33 34 92 97q60 71 93 170q2 7 3 16q0 6 2 6q4 0 9 -9q6 -12 6 -28z"/>
<glyph glyph-name="z" horiz-adv-x="217" unicode="z" d="M238 276q0 -6 -12 -13q-25 -29 -90 -102q-9 -10 -78 -79q10 -15 32 -42.5t43 -29.5h4q30 0 45 46q4 7 3 7q4 0 2 -11q-11 -62 -57 -62h-1q-31 1 -54 25q-17 18 -34 50q-36 -33 -55 -60q-7 -7 -8 -7q-2 1 3 11q22 45 48 76q-3 8 -9 21q-3 -2 -11 -14q-24 -36 -33 -65 q-7 -23 -7 -29q0 -3 1 -3q-5 0 -5 12q0 9 3 24q5 31 27 71q13 17 14 17q16 0 31 -19q31 46 63.5 80t85.5 74q-53 -21 -86 -21h-6q-46 2 -46 27v5q5 14 20 20q5 3 8 3q2 0 2 -1q1 -3 -5 -5q-10 -4 -10 -12q0 -12 36 -14q15 -1 29 -1q41 0 71 9q5 5 15 13q21 12 21 -1z"/>
<glyph glyph-name="braceleft" horiz-adv-x="324" unicode="{" d="M575 639q-1 -4 -14 -1q-21 4 -40 4q-96 0 -145 -118q-5 -11 -31 -70q-70 -156 -192 -156h-5q65 -30 65 -93q0 -48 -36 -127q-13 -29 -38 -86q-16 -41 -16 -71q0 -74 84 -85q15 -2 15 -4q-1 -4 -12 -4q-4 0 -10 1q-46 5 -76 29q-36 29 -36 78q0 34 17 74.5t49 115.5 q29 70 29 102q0 44 -54 68q-21 9 -21 10q1 2 29 2q57 0 90 26q30 24 60 86q24 51 36 79q63 152 193 152q22 0 46 -4q16 -3 13 -8z"/>
<glyph glyph-name="bar" horiz-adv-x="400" unicode="|" d="M255 -236h-22v900h22v-900z"/>
<glyph glyph-name="braceright" horiz-adv-x="324" unicode="}" d="M339 192q-1 -2 -29 -2q-57 0 -88.5 -25t-61.5 -87q-18 -37 -43 -98q-63 -152 -193 -152q-22 0 -46 4q-16 3 -13 8q1 4 14 1q21 -4 40 -4q96 0 145 118q23 56 38 89q70 156 191 156h8q-66 28 -66 96q0 49 36 124q6 12 30 67q18 41 18 73q0 72 -86 83q-15 2 -15 4q1 4 12 4 q4 0 10 -1q46 -5 77 -29q36 -29 36 -78q0 -33 -18 -75q-14 -30 -43 -96q-29 -69 -29 -101q0 -45 55 -69q21 -9 21 -10z"/>
<glyph glyph-name="asciitilde" horiz-adv-x="500" unicode="~" d="M423 304q1 0 1 -2q0 -3 -4 -12q-28 -60 -76 -60h-7q-23 2 -66 20.5t-63 20.5h-10q-37 0 -58 -26q-8 -10 -10 -9t-2 3q0 3 4 10q28 53 78 53h9q22 -2 65.5 -20t63.5 -20h6q34 0 59 33q7 9 9 9h1z"/>
<glyph glyph-name="exclamdown" horiz-adv-x="134" unicode="¡" d="M78 209q4 -1 4 -11q0 -12 -5 -36q-15 -76 -57 -167q-34 -74 -76 -133q-10 -14 -25.5 -26.5t-20.5 -12.5h-1q-1 0 -1 2q0 6 12 28q29 52 70 141q52 113 78 184q12 31 21 31h1zM118 268q0 -10 -8.5 -19t-19.5 -10h-3q-10 0 -16.5 6t-6.5 15q0 29 29 32h3q9 0 15.5 -6 t6.5 -18z"/>
<glyph glyph-name="cent" horiz-adv-x="174" unicode="¢" d="M143 254q-1 0 -1 1h-2h-3q-27 0 -59.5 -47.5t-45.5 -104.5q-5 -22 -5 -36q0 -15 6 -20q14 30 48 97q22 41 62 110zM188 324l-32 -62q13 -4 15 -15q3 -14 -14 -22q-10 -6 -21 -2l-43 -84q-18 -34 -52 -96q3 -1 7 -1q20 0 45 28q20 24 33 55l8 18q4 -1 -2 -22 q-10 -33 -38 -62q-27 -27 -50 -27h-6h-3l-35 -64l-3 10l30 56q-33 12 -33 58q0 21 8 45q17 50 57.5 88.5t81.5 38.5h7l37 69z"/>
<glyph glyph-name="sterling" horiz-adv-x="275" unicode="£" d="M25 27q-20 10 -50 23q-10 2 -13 -3q0 -35 23 -37h4q19 0 36 17zM254 227q-5 -2 -6 -1q-1 2 2 5q19 19 19 42q0 27 -30 28h-3q-25 0 -42 -14q-29 -23 -57 -95q-3 -8 -8 -20q57 -6 76 -18q-23 2 -83 2q-30 -68 -70 -115q16 -8 42 -17q20 -7 61 -15h6q54 0 54 49q0 4 2 4 q3 0 3 -7v-7q0 -23 -18 -40t-52 -17q-30 0 -68 13q-32 11 -47 18q-21 -22 -50 -22h-2q-28 1 -28 35q0 8 2 17q9 16 23 16h2q7 -1 58 -22q11 16 22 48q20 59 21 62q-50 0 -50 4q2 11 57 13l4 10q29 70 82 105q39 27 74 27q39 0 39 -36q0 -26 -35 -52z"/>
<glyph glyph-name="currency" d="M62 148q-12 -30 -18 -51q-9 -33 -9 -51q0 -25 22 -25q19 0 44.5 27.5t40.5 56.5q11 21 12 21q8 -2 -5 -27q-17 -33 -41 -59q-31 -34 -63 -34h-3q-44 3 -44 58q0 38 19 84q-28 0 -28 4q0 13 36 13q2 3 5.5 9t4.5 9q-31 0 -31 5q0 12 43 12q67 98 137 99q29 0 29 -19 q0 -10 -11.5 -21t-16.5 -6q-3 3 1 10q5 12 5 18q0 8 -8 9q-3 1 -6 1q-38 0 -90 -93q53 -6 69 -17q-18 2 -77 2q-6 -10 -10 -20q54 -6 72 -17q-38 2 -79 2z" unicode="¤"/>
<glyph glyph-name="yen" horiz-adv-x="237" unicode="¥" d="M300 284q-12 7 -27 7q-27 0 -57 -27q-63 -56 -100 -112q43 -2 69 -18q-23 2 -77 2q-23 -44 -46 -104q-15 -38 -27 -38q-8 0 -8 13q0 9 4 23q9 37 38 106q-59 0 -59 4q0 13 63 13q4 33 4 59q0 10 -1 19q-3 58 -20 66q-10 5 -22 1q-10 -4 -11 -2q-2 4 10 10q21 14 38 14h2 q37 -3 41 -75v-24q0 -35 -4 -63q34 58 95 117q41 39 69 39q27 0 27 -25q0 -4 -1 -5z"/>
<glyph glyph-name="brokenbar" horiz-adv-x="684" unicode="¦" d="M234 449q0 -9 -8 -9q-10 0 -10 7q0 10 8 10q10 0 10 -8zM433 452q0 -8 -7 -8q-9 0 -9 6q0 9 7 9q9 0 9 -7zM454 307v3q-27 17 -50 17q-12 0 -34.5 -7.5t-34.5 -7.5q-25 0 -40 5q-27 8 -34 9l-6 -1q18 -6 36.5 -12t44.5 -6q10 0 29 5q23 6 29 7q3 1 6 1q17 0 54 -13z M400 348l-2 3q-12 -7 -35 -7q-14 0 -33 3t-37 6q-8 1 -15 1q-12 0 -23 -3q-14 -4 -36 -16q-25 -14 -33 -25l1 -3q32 30 70 39q8 2 21 2q20 0 52 -5q17 -3 31 -3q24 0 39 8zM411 343q-24 -11 -53 -11q-14 0 -38 3t-34 3q-9 0 -41 -7q9 1 17 1q21 0 41 -4l31 -6q40 0 77 21z M245 449q-1 9 -8.5 15t-12.5 4q-9 -1 -15 -8.5t-4 -12.5q1 -8 9 -13.5t13 -3.5q9 1 14.5 7.5t3.5 11.5zM444 452q-1 9 -8 14.5t-12 3.5q-9 -1 -14.5 -8t-3.5 -12q2 -19 21 -17q9 1 14 7.5t3 11.5zM658 102q4 -7 4 -15q0 -18 -27 -38q-24 -15 -48 -31q-19 -14 -33 -18 q1 -1 2 -2.5t2.5 -3.5t9 -7t7.5 -7q0 -7 -10 -7q-14 0 -26 17l-3 6q-9 -3 -31 -6q1 -3 3 -11q2 -22 -7 -24q-5 -1 -6.5 8.5t-2.5 18.5q0 1 -1 3.5t-2 4.5h-17h-17q0 -37 -1 -43q-2 -13 -16 -13q-6 0 -4 9q3 9 5 17q2 21 5 30q-16 0 -59 15.5t-60 15.5h-3q-26 0 -68.5 -15.5 t-69.5 -15.5q3 -9 6 -31q4 -27 -4 -27q-11 0 -13 14v-1q1 0 1 45q-13 0 -37 2q0 -3 -2.5 -12t-4 -18t-7.5 -8q-12 3 -7 24l4 16q-10 1 -31 7q-2 -4 -7 -12q-12 -18 -21 -18q-5 0 -9 4q-3 2 -3 5q0 -2 14 14l11 11q-32 15 -44 55l-12 39q0 8 4 16q14 27 47 27q11 0 51 -6 q-14 11 -14 25q0 13 13 34q-5 -1 -16.5 -7t-15.5 -6q-1 0 -2 1q-4 7 17 17q12 8 28 12q3 3 12 14q-5 2 -19 5q-9 1 -16.5 1.5t-6.5 5.5q1 4 10 4q5 1 10 1q15 0 29 -11q2 3 10 9q-14 24 -26 33q-6 5 -23 9q-10 3 -7 9q2 3 7 3q9 0 29 -12q11 -6 25 -37q12 12 23.5 20.5 t40.5 30.5q-8 -1 -19 -6t-16 -5q-10 0 -17.5 9t-7.5 19q0 16 20 53.5t20 50.5q0 10 -5.5 14.5t-5.5 14.5q0 11 8.5 20t18.5 9q24 0 27 -21h4q17 0 34.5 -8.5t28.5 -8.5q12 0 35 8t33 8q4 0 8 -1q4 24 30 24q13 0 23 -8.5t7 -22.5q-1 -4 -5.5 -15.5t-4.5 -21.5q0 -20 15 -54 t15 -45q0 -24 -27 -24q-11 0 -28 7q-20 10 -22 10q5 -13 24 -20q25 -10 33 -16.5t21 -17.5q11 9 32 32q2 2 8 12q4 7 7 7q2 0 4.5 -2.5t2.5 -6.5q0 -14 -49 -47q4 -3 15 -16q7 3 23 7q22 5 25 -4q1 -6 -7.5 -6.5t-17.5 -0.5q-2 0 -17 -3q5 -5 16 -21q41 0 47 -1 q13 -2 13 -13q0 -5 -4 -5q-3 0 -11 3t-11 4q-10 2 -29 5q18 -33 18 -49q0 -12 -10 -18q80 11 85 11q23 0 43 -35z"/>
<glyph glyph-name="section" horiz-adv-x="292" unicode="§" d="M230 288q-13 36 -31 81q-47 -6 -67 -42q-13 -23 -13 -54q0 -24 8 -45q12 -30 30 -80q50 9 68 41q12 22 12 54q0 24 -7 45zM333 465q-2 1 0 11q1 4 1 9q0 14 -11.5 30t-37.5 17h-4q-65 0 -65 -63q0 -33 16 -76q8 -19 26 -67q12 -32 12 -62q0 -51 -30.5 -84t-79.5 -39 q12 -39 12 -66q0 -32 -19 -62q-28 -44 -79 -44h-4q-68 2 -68 71q0 13 5 13l2 -13q8 -55 63 -56h2q44 0 62 37q6 13 6 30q0 28 -17 72q-7 20 -26 68q-13 32 -13 62q0 51 33 84q30 31 77 40q-11 38 -11 64q0 32 19 63q28 44 79 44h4q55 -2 55 -57q0 -30 -9 -26z"/>
<glyph glyph-name="dieresis" horiz-adv-x="275" unicode="¨" d="M201 345q0 -23 -23 -23t-23 23t23 23t23 -23zM285 345q0 -23 -23 -23t-23 23t23 23t23 -23z"/>
<glyph glyph-name="copyright" horiz-adv-x="500" unicode="©" d="M366 204l-2 -16q-3 -20 -10 -30q-30 -12 -60 -12q-50 0 -81 23q-36 26 -36 78t36 80q31 26 80 26q40 0 63 -12q6 -7 6 -32v-21h-9q-7 56 -62 56q-35 0 -56.5 -25t-21.5 -67q0 -44 22 -69t57 -25q55 0 65 46h9zM440 253q0 64 -46.5 111.5t-111.5 47.5t-112 -47t-47 -112 q0 -66 46.5 -113t112.5 -47q65 0 111.5 47t46.5 113zM459 253q0 -74 -51.5 -126t-125.5 -52q-75 0 -126.5 51.5t-51.5 126.5q0 74 51.5 125.5t126.5 51.5q73 0 125 -51.5t52 -125.5z"/>
<glyph glyph-name="ordfeminine" horiz-adv-x="227" unicode="ª" d="M181 275q-17 0 -42 -19q-21 -16 -31 -31q13 -7 27 -7h2q20 0 38 16.5t18 29.5q0 11 -12 11zM326 189q0 -2 -10 -7q-44 -20 -127 -20q-59 0 -114 11q-42 -80 -42 -140q0 -42 30 -46h7q20 0 46 17t46 46q17 25 28 62q4 12 5 12q4 0 2 -11q-7 -33 -25 -64q-44 -77 -112 -77 h-2q-31 0 -46.5 21.5t-15.5 51.5q0 7 1 15q5 56 45 122q-10 2 -25 9q-8 5 -6 9q2 3 11 5q4 1 11 -1t20 -7q67 89 143 89h2q23 0 23 -18t-19 -36q-24 -23 -57 -23q-6 0 -13 1q-17 2 -29 8q-7 -10 -19 -29q44 -13 112 -14h18q59 0 99 11q13 4 13 3z"/>
<glyph glyph-name="guillemotleft" horiz-adv-x="261" unicode="«" d="M151.5 232q1.5 -2 -8.5 -13q-46 -50 -91 -82q14 -39 20 -81q2 -18 -2 -18q-1 0 -8 12q-16 39 -56 92q55 28 134 87q6 5 9 5q1 0 2.5 -2zM249 232q0 -4 -8 -13q-46 -50 -91 -82q14 -39 20 -81q2 -18 -2 -18q-1 0 -8 12q-16 39 -56 92q55 28 134 87q6 5 9 5q2 0 2 -2z"/>
<glyph glyph-name="logicalnot" horiz-adv-x="148" unicode="¬" d="M377 188q-4 -20 -24 -20h-4q8 12 10 26q1 3 1 6q0 28 -41 37q-36 8 -108 10h-26q-38 0 -71 -2q-18 -41 -39 -94q-23 -59 -45 -121q27 25 48 35q7 7 7 -1q0 -1 -16 -12.5t-35 -34.5q-34 -40 -42 -40h-1q-10 1 -10 9q0 3 2 8q26 93 72 206q7 17 19 43q-2 0 -16 -2 q-22 -3 -24 1q-2 6 11 9.5t35 5.5q21 46 41 81q34 58 51 58h3q5 -2 5 -5q0 -1 -12 -24q-18 -33 -48 -108q25 2 53 2q18 0 37 -1q71 -3 119.5 -19t48.5 -46q0 -3 -1 -7z"/>
<glyph glyph-name="minus" horiz-adv-x="684" unicode="­" d="M234 449q0 -9 -8 -9q-10 0 -10 7q0 10 8 10q10 0 10 -8zM433 452q0 -8 -7 -8q-9 0 -9 6q0 9 7 9q9 0 9 -7zM454 307v3q-27 17 -50 17q-12 0 -34.5 -7.5t-34.5 -7.5q-25 0 -40 5q-27 8 -34 9l-6 -1q18 -6 36.5 -12t44.5 -6q10 0 29 5q23 6 29 7q3 1 6 1q17 0 54 -13z M400 348l-2 3q-12 -7 -35 -7q-14 0 -33 3t-37 6q-8 1 -15 1q-12 0 -23 -3q-14 -4 -36 -16q-25 -14 -33 -25l1 -3q32 30 70 39q8 2 21 2q20 0 52 -5q17 -3 31 -3q24 0 39 8zM411 343q-24 -11 -53 -11q-14 0 -38 3t-34 3q-9 0 -41 -7q9 1 17 1q21 0 41 -4l31 -6q40 0 77 21z M245 449q-1 9 -8.5 15t-12.5 4q-9 -1 -15 -8.5t-4 -12.5q1 -8 9 -13.5t13 -3.5q9 1 14.5 7.5t3.5 11.5zM444 452q-1 9 -8 14.5t-12 3.5q-9 -1 -14.5 -8t-3.5 -12q2 -19 21 -17q9 1 14 7.5t3 11.5zM658 102q4 -7 4 -15q0 -18 -27 -38q-24 -15 -48 -31q-19 -14 -33 -18 q1 -1 2 -2.5t2.5 -3.5t9 -7t7.5 -7q0 -7 -10 -7q-14 0 -26 17l-3 6q-9 -3 -31 -6q1 -3 3 -11q2 -22 -7 -24q-5 -1 -6.5 8.5t-2.5 18.5q0 1 -1 3.5t-2 4.5h-17h-17q0 -37 -1 -43q-2 -13 -16 -13q-6 0 -4 9q3 9 5 17q2 21 5 30q-16 0 -59 15.5t-60 15.5h-3q-26 0 -68.5 -15.5 t-69.5 -15.5q3 -9 6 -31q4 -27 -4 -27q-11 0 -13 14v-1q1 0 1 45q-13 0 -37 2q0 -3 -2.5 -12t-4 -18t-7.5 -8q-12 3 -7 24l4 16q-10 1 -31 7q-2 -4 -7 -12q-12 -18 -21 -18q-5 0 -9 4q-3 2 -3 5q0 -2 14 14l11 11q-32 15 -44 55l-12 39q0 8 4 16q14 27 47 27q11 0 51 -6 q-14 11 -14 25q0 13 13 34q-5 -1 -16.5 -7t-15.5 -6q-1 0 -2 1q-4 7 17 17q12 8 28 12q3 3 12 14q-5 2 -19 5q-9 1 -16.5 1.5t-6.5 5.5q1 4 10 4q5 1 10 1q15 0 29 -11q2 3 10 9q-14 24 -26 33q-6 5 -23 9q-10 3 -7 9q2 3 7 3q9 0 29 -12q11 -6 25 -37q12 12 23.5 20.5 t40.5 30.5q-8 -1 -19 -6t-16 -5q-10 0 -17.5 9t-7.5 19q0 16 20 53.5t20 50.5q0 10 -5.5 14.5t-5.5 14.5q0 11 8.5 20t18.5 9q24 0 27 -21h4q17 0 34.5 -8.5t28.5 -8.5q12 0 35 8t33 8q4 0 8 -1q4 24 30 24q13 0 23 -8.5t7 -22.5q-1 -4 -5.5 -15.5t-4.5 -21.5q0 -20 15 -54 t15 -45q0 -24 -27 -24q-11 0 -28 7q-20 10 -22 10q5 -13 24 -20q25 -10 33 -16.5t21 -17.5q11 9 32 32q2 2 8 12q4 7 7 7q2 0 4.5 -2.5t2.5 -6.5q0 -14 -49 -47q4 -3 15 -16q7 3 23 7q22 5 25 -4q1 -6 -7.5 -6.5t-17.5 -0.5q-2 0 -17 -3q5 -5 16 -21q41 0 47 -1 q13 -2 13 -13q0 -5 -4 -5q-3 0 -11 3t-11 4q-10 2 -29 5q18 -33 18 -49q0 -12 -10 -18q80 11 85 11q23 0 43 -35z"/>
<glyph glyph-name="minus" horiz-adv-x="684" unicode="−" d="M234 449q0 -9 -8 -9q-10 0 -10 7q0 10 8 10q10 0 10 -8zM433 452q0 -8 -7 -8q-9 0 -9 6q0 9 7 9q9 0 9 -7zM454 307v3q-27 17 -50 17q-12 0 -34.5 -7.5t-34.5 -7.5q-25 0 -40 5q-27 8 -34 9l-6 -1q18 -6 36.5 -12t44.5 -6q10 0 29 5q23 6 29 7q3 1 6 1q17 0 54 -13z M400 348l-2 3q-12 -7 -35 -7q-14 0 -33 3t-37 6q-8 1 -15 1q-12 0 -23 -3q-14 -4 -36 -16q-25 -14 -33 -25l1 -3q32 30 70 39q8 2 21 2q20 0 52 -5q17 -3 31 -3q24 0 39 8zM411 343q-24 -11 -53 -11q-14 0 -38 3t-34 3q-9 0 -41 -7q9 1 17 1q21 0 41 -4l31 -6q40 0 77 21z M245 449q-1 9 -8.5 15t-12.5 4q-9 -1 -15 -8.5t-4 -12.5q1 -8 9 -13.5t13 -3.5q9 1 14.5 7.5t3.5 11.5zM444 452q-1 9 -8 14.5t-12 3.5q-9 -1 -14.5 -8t-3.5 -12q2 -19 21 -17q9 1 14 7.5t3 11.5zM658 102q4 -7 4 -15q0 -18 -27 -38q-24 -15 -48 -31q-19 -14 -33 -18 q1 -1 2 -2.5t2.5 -3.5t9 -7t7.5 -7q0 -7 -10 -7q-14 0 -26 17l-3 6q-9 -3 -31 -6q1 -3 3 -11q2 -22 -7 -24q-5 -1 -6.5 8.5t-2.5 18.5q0 1 -1 3.5t-2 4.5h-17h-17q0 -37 -1 -43q-2 -13 -16 -13q-6 0 -4 9q3 9 5 17q2 21 5 30q-16 0 -59 15.5t-60 15.5h-3q-26 0 -68.5 -15.5 t-69.5 -15.5q3 -9 6 -31q4 -27 -4 -27q-11 0 -13 14v-1q1 0 1 45q-13 0 -37 2q0 -3 -2.5 -12t-4 -18t-7.5 -8q-12 3 -7 24l4 16q-10 1 -31 7q-2 -4 -7 -12q-12 -18 -21 -18q-5 0 -9 4q-3 2 -3 5q0 -2 14 14l11 11q-32 15 -44 55l-12 39q0 8 4 16q14 27 47 27q11 0 51 -6 q-14 11 -14 25q0 13 13 34q-5 -1 -16.5 -7t-15.5 -6q-1 0 -2 1q-4 7 17 17q12 8 28 12q3 3 12 14q-5 2 -19 5q-9 1 -16.5 1.5t-6.5 5.5q1 4 10 4q5 1 10 1q15 0 29 -11q2 3 10 9q-14 24 -26 33q-6 5 -23 9q-10 3 -7 9q2 3 7 3q9 0 29 -12q11 -6 25 -37q12 12 23.5 20.5 t40.5 30.5q-8 -1 -19 -6t-16 -5q-10 0 -17.5 9t-7.5 19q0 16 20 53.5t20 50.5q0 10 -5.5 14.5t-5.5 14.5q0 11 8.5 20t18.5 9q24 0 27 -21h4q17 0 34.5 -8.5t28.5 -8.5q12 0 35 8t33 8q4 0 8 -1q4 24 30 24q13 0 23 -8.5t7 -22.5q-1 -4 -5.5 -15.5t-4.5 -21.5q0 -20 15 -54 t15 -45q0 -24 -27 -24q-11 0 -28 7q-20 10 -22 10q5 -13 24 -20q25 -10 33 -16.5t21 -17.5q11 9 32 32q2 2 8 12q4 7 7 7q2 0 4.5 -2.5t2.5 -6.5q0 -14 -49 -47q4 -3 15 -16q7 3 23 7q22 5 25 -4q1 -6 -7.5 -6.5t-17.5 -0.5q-2 0 -17 -3q5 -5 16 -21q41 0 47 -1 q13 -2 13 -13q0 -5 -4 -5q-3 0 -11 3t-11 4q-10 2 -29 5q18 -33 18 -49q0 -12 -10 -18q80 11 85 11q23 0 43 -35z"/>
<glyph glyph-name="registered" horiz-adv-x="500" unicode="®" d="M311 301q0 44 -49 44q-6 0 -13 -1q-1 -12 -1 -31v-56h9q54 0 54 44zM397 155q-8 -2 -26 -2q-33 0 -47 17q-5 12 -20 38q-14 21 -29 38l-27 3v-44q0 -23 6.5 -32t26.5 -10v-8h-98v8q35 0 35 43v104q0 36 -35 36v8h80q83 0 83 -49q0 -27 -22 -40l-17 -8q9 -16 33 -52 q30 -43 56 -43h1v-7zM437 253q0 64 -46 111t-112 47q-65 0 -112 -46.5t-47 -111.5q0 -67 46.5 -114t112.5 -47q65 0 111.5 47t46.5 114zM456 253q0 -75 -51.5 -127t-125.5 -52t-126 52t-52 127q0 73 51.5 124.5t126.5 51.5q73 0 125 -51.5t52 -124.5z"/>
<glyph glyph-name="degree" horiz-adv-x="132" unicode="°" d="M118 280q0 25 -25 25t-25 -25t25 -25t25 25zM137 280q0 -18 -13 -30.5t-31 -12.5q-17 0 -30 12.5t-13 30.5t13 30.5t30 12.5q18 0 31 -12.5t13 -30.5z"/>
<glyph glyph-name="plusminus" horiz-adv-x="137" unicode="±" d="M687 584q-3 -24 -19.5 -40t-31.5 -16q20 30 22 60v9q0 38 -22 62q-28 28 -82 28q-149 0 -301 -195q-86 -110 -136 -221q-65 -144 -87 -223q-6 -21 -6 -30q0 -8 4 -9h3q15 0 38 41q12 22 11 22q3 0 1 -9q-1 -10 -7 -20q-32 -54 -60 -54h-1q-22 1 -22 31v8q2 28 11 55 q29 93 79 192q66 133 143 226q66 80 148 133q97 62 184 62q65 0 98.5 -29t33.5 -69q0 -7 -1 -14z"/>
<glyph glyph-name="twosuperior" horiz-adv-x="684" unicode="²" d="M234 449q0 -9 -8 -9q-10 0 -10 7q0 10 8 10q10 0 10 -8zM433 452q0 -8 -7 -8q-9 0 -9 6q0 9 7 9q9 0 9 -7zM454 307v3q-27 17 -50 17q-12 0 -34.5 -7.5t-34.5 -7.5q-25 0 -40 5q-27 8 -34 9l-6 -1q18 -6 36.5 -12t44.5 -6q10 0 29 5q23 6 29 7q3 1 6 1q17 0 54 -13z M400 348l-2 3q-12 -7 -35 -7q-14 0 -33 3t-37 6q-8 1 -15 1q-12 0 -23 -3q-14 -4 -36 -16q-25 -14 -33 -25l1 -3q32 30 70 39q8 2 21 2q20 0 52 -5q17 -3 31 -3q24 0 39 8zM411 343q-24 -11 -53 -11q-14 0 -38 3t-34 3q-9 0 -41 -7q9 1 17 1q21 0 41 -4l31 -6q40 0 77 21z M245 449q-1 9 -8.5 15t-12.5 4q-9 -1 -15 -8.5t-4 -12.5q1 -8 9 -13.5t13 -3.5q9 1 14.5 7.5t3.5 11.5zM444 452q-1 9 -8 14.5t-12 3.5q-9 -1 -14.5 -8t-3.5 -12q2 -19 21 -17q9 1 14 7.5t3 11.5zM658 102q4 -7 4 -15q0 -18 -27 -38q-24 -15 -48 -31q-19 -14 -33 -18 q1 -1 2 -2.5t2.5 -3.5t9 -7t7.5 -7q0 -7 -10 -7q-14 0 -26 17l-3 6q-9 -3 -31 -6q1 -3 3 -11q2 -22 -7 -24q-5 -1 -6.5 8.5t-2.5 18.5q0 1 -1 3.5t-2 4.5h-17h-17q0 -37 -1 -43q-2 -13 -16 -13q-6 0 -4 9q3 9 5 17q2 21 5 30q-16 0 -59 15.5t-60 15.5h-3q-26 0 -68.5 -15.5 t-69.5 -15.5q3 -9 6 -31q4 -27 -4 -27q-11 0 -13 14v-1q1 0 1 45q-13 0 -37 2q0 -3 -2.5 -12t-4 -18t-7.5 -8q-12 3 -7 24l4 16q-10 1 -31 7q-2 -4 -7 -12q-12 -18 -21 -18q-5 0 -9 4q-3 2 -3 5q0 -2 14 14l11 11q-32 15 -44 55l-12 39q0 8 4 16q14 27 47 27q11 0 51 -6 q-14 11 -14 25q0 13 13 34q-5 -1 -16.5 -7t-15.5 -6q-1 0 -2 1q-4 7 17 17q12 8 28 12q3 3 12 14q-5 2 -19 5q-9 1 -16.5 1.5t-6.5 5.5q1 4 10 4q5 1 10 1q15 0 29 -11q2 3 10 9q-14 24 -26 33q-6 5 -23 9q-10 3 -7 9q2 3 7 3q9 0 29 -12q11 -6 25 -37q12 12 23.5 20.5 t40.5 30.5q-8 -1 -19 -6t-16 -5q-10 0 -17.5 9t-7.5 19q0 16 20 53.5t20 50.5q0 10 -5.5 14.5t-5.5 14.5q0 11 8.5 20t18.5 9q24 0 27 -21h4q17 0 34.5 -8.5t28.5 -8.5q12 0 35 8t33 8q4 0 8 -1q4 24 30 24q13 0 23 -8.5t7 -22.5q-1 -4 -5.5 -15.5t-4.5 -21.5q0 -20 15 -54 t15 -45q0 -24 -27 -24q-11 0 -28 7q-20 10 -22 10q5 -13 24 -20q25 -10 33 -16.5t21 -17.5q11 9 32 32q2 2 8 12q4 7 7 7q2 0 4.5 -2.5t2.5 -6.5q0 -14 -49 -47q4 -3 15 -16q7 3 23 7q22 5 25 -4q1 -6 -7.5 -6.5t-17.5 -0.5q-2 0 -17 -3q5 -5 16 -21q41 0 47 -1 q13 -2 13 -13q0 -5 -4 -5q-3 0 -11 3t-11 4q-10 2 -29 5q18 -33 18 -49q0 -12 -10 -18q80 11 85 11q23 0 43 -35z"/>
<glyph glyph-name="threesuperior" horiz-adv-x="684" unicode="³" d="M234 449q0 -9 -8 -9q-10 0 -10 7q0 10 8 10q10 0 10 -8zM433 452q0 -8 -7 -8q-9 0 -9 6q0 9 7 9q9 0 9 -7zM454 307v3q-27 17 -50 17q-12 0 -34.5 -7.5t-34.5 -7.5q-25 0 -40 5q-27 8 -34 9l-6 -1q18 -6 36.5 -12t44.5 -6q10 0 29 5q23 6 29 7q3 1 6 1q17 0 54 -13z M400 348l-2 3q-12 -7 -35 -7q-14 0 -33 3t-37 6q-8 1 -15 1q-12 0 -23 -3q-14 -4 -36 -16q-25 -14 -33 -25l1 -3q32 30 70 39q8 2 21 2q20 0 52 -5q17 -3 31 -3q24 0 39 8zM411 343q-24 -11 -53 -11q-14 0 -38 3t-34 3q-9 0 -41 -7q9 1 17 1q21 0 41 -4l31 -6q40 0 77 21z M245 449q-1 9 -8.5 15t-12.5 4q-9 -1 -15 -8.5t-4 -12.5q1 -8 9 -13.5t13 -3.5q9 1 14.5 7.5t3.5 11.5zM444 452q-1 9 -8 14.5t-12 3.5q-9 -1 -14.5 -8t-3.5 -12q2 -19 21 -17q9 1 14 7.5t3 11.5zM658 102q4 -7 4 -15q0 -18 -27 -38q-24 -15 -48 -31q-19 -14 -33 -18 q1 -1 2 -2.5t2.5 -3.5t9 -7t7.5 -7q0 -7 -10 -7q-14 0 -26 17l-3 6q-9 -3 -31 -6q1 -3 3 -11q2 -22 -7 -24q-5 -1 -6.5 8.5t-2.5 18.5q0 1 -1 3.5t-2 4.5h-17h-17q0 -37 -1 -43q-2 -13 -16 -13q-6 0 -4 9q3 9 5 17q2 21 5 30q-16 0 -59 15.5t-60 15.5h-3q-26 0 -68.5 -15.5 t-69.5 -15.5q3 -9 6 -31q4 -27 -4 -27q-11 0 -13 14v-1q1 0 1 45q-13 0 -37 2q0 -3 -2.5 -12t-4 -18t-7.5 -8q-12 3 -7 24l4 16q-10 1 -31 7q-2 -4 -7 -12q-12 -18 -21 -18q-5 0 -9 4q-3 2 -3 5q0 -2 14 14l11 11q-32 15 -44 55l-12 39q0 8 4 16q14 27 47 27q11 0 51 -6 q-14 11 -14 25q0 13 13 34q-5 -1 -16.5 -7t-15.5 -6q-1 0 -2 1q-4 7 17 17q12 8 28 12q3 3 12 14q-5 2 -19 5q-9 1 -16.5 1.5t-6.5 5.5q1 4 10 4q5 1 10 1q15 0 29 -11q2 3 10 9q-14 24 -26 33q-6 5 -23 9q-10 3 -7 9q2 3 7 3q9 0 29 -12q11 -6 25 -37q12 12 23.5 20.5 t40.5 30.5q-8 -1 -19 -6t-16 -5q-10 0 -17.5 9t-7.5 19q0 16 20 53.5t20 50.5q0 10 -5.5 14.5t-5.5 14.5q0 11 8.5 20t18.5 9q24 0 27 -21h4q17 0 34.5 -8.5t28.5 -8.5q12 0 35 8t33 8q4 0 8 -1q4 24 30 24q13 0 23 -8.5t7 -22.5q-1 -4 -5.5 -15.5t-4.5 -21.5q0 -20 15 -54 t15 -45q0 -24 -27 -24q-11 0 -28 7q-20 10 -22 10q5 -13 24 -20q25 -10 33 -16.5t21 -17.5q11 9 32 32q2 2 8 12q4 7 7 7q2 0 4.5 -2.5t2.5 -6.5q0 -14 -49 -47q4 -3 15 -16q7 3 23 7q22 5 25 -4q1 -6 -7.5 -6.5t-17.5 -0.5q-2 0 -17 -3q5 -5 16 -21q41 0 47 -1 q13 -2 13 -13q0 -5 -4 -5q-3 0 -11 3t-11 4q-10 2 -29 5q18 -33 18 -49q0 -12 -10 -18q80 11 85 11q23 0 43 -35z"/>
<glyph glyph-name="acute" horiz-adv-x="275" unicode="´" d="M284 388q0 -12 -18.5 -28.5t-45.5 -29.5q-26 -13 -41 -13h-4q20 11 66 64q16 19 31 19q12 0 12 -12z"/>
<glyph glyph-name="mu" horiz-adv-x="263" unicode="µ" d="M531 514l-5 17q-10 30 -45 30h-6q-75 -6 -156 -143q-41 -68 -83 -161q-64 -140 -84 -216q-4 -17 -4 -26t4 -10q6 -1 19.5 13t20.5 27q12 22 11 22q3 0 1 -8q-1 -10 -7 -21q-30 -53 -57 -53h-2q-24 2 -24 34v5q1 23 11 54q25 82 74 183q59 123 115 198q4 7 2 16 q-5 19 -33 19q-54 0 -121 -127q-37 -71 -58 -120q-58 -139 -75 -201q-6 -21 -6 -30q0 -8 4 -9h2q14 0 39 41q10 16 11 16q6 -2 -6 -23q-32 -54 -60 -54h-1q-22 1 -22 31v8q2 22 12 54q28 89 69 178q31 67 58 110q86 138 169 138h1q24 0 30 -16q3 -9 1 -13q75 86 146 92 q8 1 14 1q23 0 39 -8.5t16 -26.5t-14 -21z"/>
<glyph glyph-name="mu" horiz-adv-x="263" unicode="μ" d="M531 514l-5 17q-10 30 -45 30h-6q-75 -6 -156 -143q-41 -68 -83 -161q-64 -140 -84 -216q-4 -17 -4 -26t4 -10q6 -1 19.5 13t20.5 27q12 22 11 22q3 0 1 -8q-1 -10 -7 -21q-30 -53 -57 -53h-2q-24 2 -24 34v5q1 23 11 54q25 82 74 183q59 123 115 198q4 7 2 16 q-5 19 -33 19q-54 0 -121 -127q-37 -71 -58 -120q-58 -139 -75 -201q-6 -21 -6 -30q0 -8 4 -9h2q14 0 39 41q10 16 11 16q6 -2 -6 -23q-32 -54 -60 -54h-1q-22 1 -22 31v8q2 22 12 54q28 89 69 178q31 67 58 110q86 138 169 138h1q24 0 30 -16q3 -9 1 -13q75 86 146 92 q8 1 14 1q23 0 39 -8.5t16 -26.5t-14 -21z"/>
<glyph glyph-name="paragraph" horiz-adv-x="256" unicode="¶" d="M385 477q-24 2 -36 2q-51 -83 -119 -224q-71 -146 -103 -273q-8 -32 -13 -32v0q-5 2 -5 23v7q2 37 29 121.5t60 153.5q65 135 128 224q-14 1 -26 1t-20 -1q-15 -4 -20 -14q-39 -55 -114 -210q-54 -111 -89 -232q-8 -28 -12 -28q-7 0 -7 17q0 8 2 21q15 107 82 241 q-35 5 -57.5 29.5t-22.5 57.5q0 22 10 44q20 42 83 65q51 19 112 20h51h36q18 18 24 18h2q4 -1 -5 -18q22 -2 34 -4q15 -3 15 -7q0 -3 -19 -2z"/>
<glyph glyph-name="cedilla" horiz-adv-x="275" unicode="¸" d="M118 -84q-18 -11 -42 -11h-8q-43 2 -57 28q-2 3 -2 5t1 3q2 2 5 -2q15 -17 52 -17q34 0 38 24v4q0 15 -21 19q-7 0 -17 4q-2 2 7 13q6 6 14 16h13q-5 -5 -12 -14q-4 -5 4 -6q43 -6 43 -33q0 -22 -18 -33z"/>
<glyph glyph-name="onesuperior" horiz-adv-x="684" unicode="¹" d="M234 449q0 -9 -8 -9q-10 0 -10 7q0 10 8 10q10 0 10 -8zM433 452q0 -8 -7 -8q-9 0 -9 6q0 9 7 9q9 0 9 -7zM454 307v3q-27 17 -50 17q-12 0 -34.5 -7.5t-34.5 -7.5q-25 0 -40 5q-27 8 -34 9l-6 -1q18 -6 36.5 -12t44.5 -6q10 0 29 5q23 6 29 7q3 1 6 1q17 0 54 -13z M400 348l-2 3q-12 -7 -35 -7q-14 0 -33 3t-37 6q-8 1 -15 1q-12 0 -23 -3q-14 -4 -36 -16q-25 -14 -33 -25l1 -3q32 30 70 39q8 2 21 2q20 0 52 -5q17 -3 31 -3q24 0 39 8zM411 343q-24 -11 -53 -11q-14 0 -38 3t-34 3q-9 0 -41 -7q9 1 17 1q21 0 41 -4l31 -6q40 0 77 21z M245 449q-1 9 -8.5 15t-12.5 4q-9 -1 -15 -8.5t-4 -12.5q1 -8 9 -13.5t13 -3.5q9 1 14.5 7.5t3.5 11.5zM444 452q-1 9 -8 14.5t-12 3.5q-9 -1 -14.5 -8t-3.5 -12q2 -19 21 -17q9 1 14 7.5t3 11.5zM658 102q4 -7 4 -15q0 -18 -27 -38q-24 -15 -48 -31q-19 -14 -33 -18 q1 -1 2 -2.5t2.5 -3.5t9 -7t7.5 -7q0 -7 -10 -7q-14 0 -26 17l-3 6q-9 -3 -31 -6q1 -3 3 -11q2 -22 -7 -24q-5 -1 -6.5 8.5t-2.5 18.5q0 1 -1 3.5t-2 4.5h-17h-17q0 -37 -1 -43q-2 -13 -16 -13q-6 0 -4 9q3 9 5 17q2 21 5 30q-16 0 -59 15.5t-60 15.5h-3q-26 0 -68.5 -15.5 t-69.5 -15.5q3 -9 6 -31q4 -27 -4 -27q-11 0 -13 14v-1q1 0 1 45q-13 0 -37 2q0 -3 -2.5 -12t-4 -18t-7.5 -8q-12 3 -7 24l4 16q-10 1 -31 7q-2 -4 -7 -12q-12 -18 -21 -18q-5 0 -9 4q-3 2 -3 5q0 -2 14 14l11 11q-32 15 -44 55l-12 39q0 8 4 16q14 27 47 27q11 0 51 -6 q-14 11 -14 25q0 13 13 34q-5 -1 -16.5 -7t-15.5 -6q-1 0 -2 1q-4 7 17 17q12 8 28 12q3 3 12 14q-5 2 -19 5q-9 1 -16.5 1.5t-6.5 5.5q1 4 10 4q5 1 10 1q15 0 29 -11q2 3 10 9q-14 24 -26 33q-6 5 -23 9q-10 3 -7 9q2 3 7 3q9 0 29 -12q11 -6 25 -37q12 12 23.5 20.5 t40.5 30.5q-8 -1 -19 -6t-16 -5q-10 0 -17.5 9t-7.5 19q0 16 20 53.5t20 50.5q0 10 -5.5 14.5t-5.5 14.5q0 11 8.5 20t18.5 9q24 0 27 -21h4q17 0 34.5 -8.5t28.5 -8.5q12 0 35 8t33 8q4 0 8 -1q4 24 30 24q13 0 23 -8.5t7 -22.5q-1 -4 -5.5 -15.5t-4.5 -21.5q0 -20 15 -54 t15 -45q0 -24 -27 -24q-11 0 -28 7q-20 10 -22 10q5 -13 24 -20q25 -10 33 -16.5t21 -17.5q11 9 32 32q2 2 8 12q4 7 7 7q2 0 4.5 -2.5t2.5 -6.5q0 -14 -49 -47q4 -3 15 -16q7 3 23 7q22 5 25 -4q1 -6 -7.5 -6.5t-17.5 -0.5q-2 0 -17 -3q5 -5 16 -21q41 0 47 -1 q13 -2 13 -13q0 -5 -4 -5q-3 0 -11 3t-11 4q-10 2 -29 5q18 -33 18 -49q0 -12 -10 -18q80 11 85 11q23 0 43 -35z"/>
<glyph glyph-name="ordmasculine" horiz-adv-x="488" unicode="º" d="M480 252q-24 -58 -49 -116q-26 -66 -41 -118q-2 -13 2 -15q6 -3 23 14q9 7 10 6q3 -3 -5 -10q-30 -33 -50 -33h-3q-15 2 -15 18q0 6 2 13q5 42 38 122q14 32 40 95q4 10 1 12q-4 2 -12 -6q-41 -41 -75 -83t-82 -129q-5 -6 -16 -21q-7 -10 -17 -7q-7 1 0 19l52 135 q15 38 19 73q1 5 1 10q0 29 -22.5 45t-83.5 17h-8q-96 0 -147 -48q-27 -26 -27 -61q0 -36 33 -54q9 -5 21 -7q-8 -8 -21 -8q-50 1 -50 56q0 41 36 76q63 61 166 61q141 0 141 -80q0 -35 -37 -116q29 38 64 79q42 48 74 75q16 13 28 13q3 0 8.5 -2t5.5 -10q0 -6 -4 -15z"/>
<glyph glyph-name="guillemotright" horiz-adv-x="261" unicode="»" d="M122 134q-55 -28 -134 -87q-6 -5 -9 -5q-2 0 -2 2q0 4 8 13q46 50 91 82q-14 39 -20 81q-2 18 2 18q1 0 8 -12q16 -39 56 -92zM220 134q-55 -28 -134 -87q-6 -5 -9 -5q-2 0 -2 2q0 4 8 13q46 50 91 82q-14 39 -20 81q-2 18 2 18q1 0 8 -12q16 -39 56 -92z"/>
<glyph glyph-name="onequarter" horiz-adv-x="684" unicode="¼" d="M234 449q0 -9 -8 -9q-10 0 -10 7q0 10 8 10q10 0 10 -8zM433 452q0 -8 -7 -8q-9 0 -9 6q0 9 7 9q9 0 9 -7zM454 307v3q-27 17 -50 17q-12 0 -34.5 -7.5t-34.5 -7.5q-25 0 -40 5q-27 8 -34 9l-6 -1q18 -6 36.5 -12t44.5 -6q10 0 29 5q23 6 29 7q3 1 6 1q17 0 54 -13z M400 348l-2 3q-12 -7 -35 -7q-14 0 -33 3t-37 6q-8 1 -15 1q-12 0 -23 -3q-14 -4 -36 -16q-25 -14 -33 -25l1 -3q32 30 70 39q8 2 21 2q20 0 52 -5q17 -3 31 -3q24 0 39 8zM411 343q-24 -11 -53 -11q-14 0 -38 3t-34 3q-9 0 -41 -7q9 1 17 1q21 0 41 -4l31 -6q40 0 77 21z M245 449q-1 9 -8.5 15t-12.5 4q-9 -1 -15 -8.5t-4 -12.5q1 -8 9 -13.5t13 -3.5q9 1 14.5 7.5t3.5 11.5zM444 452q-1 9 -8 14.5t-12 3.5q-9 -1 -14.5 -8t-3.5 -12q2 -19 21 -17q9 1 14 7.5t3 11.5zM658 102q4 -7 4 -15q0 -18 -27 -38q-24 -15 -48 -31q-19 -14 -33 -18 q1 -1 2 -2.5t2.5 -3.5t9 -7t7.5 -7q0 -7 -10 -7q-14 0 -26 17l-3 6q-9 -3 -31 -6q1 -3 3 -11q2 -22 -7 -24q-5 -1 -6.5 8.5t-2.5 18.5q0 1 -1 3.5t-2 4.5h-17h-17q0 -37 -1 -43q-2 -13 -16 -13q-6 0 -4 9q3 9 5 17q2 21 5 30q-16 0 -59 15.5t-60 15.5h-3q-26 0 -68.5 -15.5 t-69.5 -15.5q3 -9 6 -31q4 -27 -4 -27q-11 0 -13 14v-1q1 0 1 45q-13 0 -37 2q0 -3 -2.5 -12t-4 -18t-7.5 -8q-12 3 -7 24l4 16q-10 1 -31 7q-2 -4 -7 -12q-12 -18 -21 -18q-5 0 -9 4q-3 2 -3 5q0 -2 14 14l11 11q-32 15 -44 55l-12 39q0 8 4 16q14 27 47 27q11 0 51 -6 q-14 11 -14 25q0 13 13 34q-5 -1 -16.5 -7t-15.5 -6q-1 0 -2 1q-4 7 17 17q12 8 28 12q3 3 12 14q-5 2 -19 5q-9 1 -16.5 1.5t-6.5 5.5q1 4 10 4q5 1 10 1q15 0 29 -11q2 3 10 9q-14 24 -26 33q-6 5 -23 9q-10 3 -7 9q2 3 7 3q9 0 29 -12q11 -6 25 -37q12 12 23.5 20.5 t40.5 30.5q-8 -1 -19 -6t-16 -5q-10 0 -17.5 9t-7.5 19q0 16 20 53.5t20 50.5q0 10 -5.5 14.5t-5.5 14.5q0 11 8.5 20t18.5 9q24 0 27 -21h4q17 0 34.5 -8.5t28.5 -8.5q12 0 35 8t33 8q4 0 8 -1q4 24 30 24q13 0 23 -8.5t7 -22.5q-1 -4 -5.5 -15.5t-4.5 -21.5q0 -20 15 -54 t15 -45q0 -24 -27 -24q-11 0 -28 7q-20 10 -22 10q5 -13 24 -20q25 -10 33 -16.5t21 -17.5q11 9 32 32q2 2 8 12q4 7 7 7q2 0 4.5 -2.5t2.5 -6.5q0 -14 -49 -47q4 -3 15 -16q7 3 23 7q22 5 25 -4q1 -6 -7.5 -6.5t-17.5 -0.5q-2 0 -17 -3q5 -5 16 -21q41 0 47 -1 q13 -2 13 -13q0 -5 -4 -5q-3 0 -11 3t-11 4q-10 2 -29 5q18 -33 18 -49q0 -12 -10 -18q80 11 85 11q23 0 43 -35z"/>
<glyph glyph-name="onehalf" horiz-adv-x="684" unicode="½" d="M234 449q0 -9 -8 -9q-10 0 -10 7q0 10 8 10q10 0 10 -8zM433 452q0 -8 -7 -8q-9 0 -9 6q0 9 7 9q9 0 9 -7zM454 307v3q-27 17 -50 17q-12 0 -34.5 -7.5t-34.5 -7.5q-25 0 -40 5q-27 8 -34 9l-6 -1q18 -6 36.5 -12t44.5 -6q10 0 29 5q23 6 29 7q3 1 6 1q17 0 54 -13z M400 348l-2 3q-12 -7 -35 -7q-14 0 -33 3t-37 6q-8 1 -15 1q-12 0 -23 -3q-14 -4 -36 -16q-25 -14 -33 -25l1 -3q32 30 70 39q8 2 21 2q20 0 52 -5q17 -3 31 -3q24 0 39 8zM411 343q-24 -11 -53 -11q-14 0 -38 3t-34 3q-9 0 -41 -7q9 1 17 1q21 0 41 -4l31 -6q40 0 77 21z M245 449q-1 9 -8.5 15t-12.5 4q-9 -1 -15 -8.5t-4 -12.5q1 -8 9 -13.5t13 -3.5q9 1 14.5 7.5t3.5 11.5zM444 452q-1 9 -8 14.5t-12 3.5q-9 -1 -14.5 -8t-3.5 -12q2 -19 21 -17q9 1 14 7.5t3 11.5zM658 102q4 -7 4 -15q0 -18 -27 -38q-24 -15 -48 -31q-19 -14 -33 -18 q1 -1 2 -2.5t2.5 -3.5t9 -7t7.5 -7q0 -7 -10 -7q-14 0 -26 17l-3 6q-9 -3 -31 -6q1 -3 3 -11q2 -22 -7 -24q-5 -1 -6.5 8.5t-2.5 18.5q0 1 -1 3.5t-2 4.5h-17h-17q0 -37 -1 -43q-2 -13 -16 -13q-6 0 -4 9q3 9 5 17q2 21 5 30q-16 0 -59 15.5t-60 15.5h-3q-26 0 -68.5 -15.5 t-69.5 -15.5q3 -9 6 -31q4 -27 -4 -27q-11 0 -13 14v-1q1 0 1 45q-13 0 -37 2q0 -3 -2.5 -12t-4 -18t-7.5 -8q-12 3 -7 24l4 16q-10 1 -31 7q-2 -4 -7 -12q-12 -18 -21 -18q-5 0 -9 4q-3 2 -3 5q0 -2 14 14l11 11q-32 15 -44 55l-12 39q0 8 4 16q14 27 47 27q11 0 51 -6 q-14 11 -14 25q0 13 13 34q-5 -1 -16.5 -7t-15.5 -6q-1 0 -2 1q-4 7 17 17q12 8 28 12q3 3 12 14q-5 2 -19 5q-9 1 -16.5 1.5t-6.5 5.5q1 4 10 4q5 1 10 1q15 0 29 -11q2 3 10 9q-14 24 -26 33q-6 5 -23 9q-10 3 -7 9q2 3 7 3q9 0 29 -12q11 -6 25 -37q12 12 23.5 20.5 t40.5 30.5q-8 -1 -19 -6t-16 -5q-10 0 -17.5 9t-7.5 19q0 16 20 53.5t20 50.5q0 10 -5.5 14.5t-5.5 14.5q0 11 8.5 20t18.5 9q24 0 27 -21h4q17 0 34.5 -8.5t28.5 -8.5q12 0 35 8t33 8q4 0 8 -1q4 24 30 24q13 0 23 -8.5t7 -22.5q-1 -4 -5.5 -15.5t-4.5 -21.5q0 -20 15 -54 t15 -45q0 -24 -27 -24q-11 0 -28 7q-20 10 -22 10q5 -13 24 -20q25 -10 33 -16.5t21 -17.5q11 9 32 32q2 2 8 12q4 7 7 7q2 0 4.5 -2.5t2.5 -6.5q0 -14 -49 -47q4 -3 15 -16q7 3 23 7q22 5 25 -4q1 -6 -7.5 -6.5t-17.5 -0.5q-2 0 -17 -3q5 -5 16 -21q41 0 47 -1 q13 -2 13 -13q0 -5 -4 -5q-3 0 -11 3t-11 4q-10 2 -29 5q18 -33 18 -49q0 -12 -10 -18q80 11 85 11q23 0 43 -35z"/>
<glyph glyph-name="threequarters" horiz-adv-x="684" unicode="¾" d="M234 449q0 -9 -8 -9q-10 0 -10 7q0 10 8 10q10 0 10 -8zM433 452q0 -8 -7 -8q-9 0 -9 6q0 9 7 9q9 0 9 -7zM454 307v3q-27 17 -50 17q-12 0 -34.5 -7.5t-34.5 -7.5q-25 0 -40 5q-27 8 -34 9l-6 -1q18 -6 36.5 -12t44.5 -6q10 0 29 5q23 6 29 7q3 1 6 1q17 0 54 -13z M400 348l-2 3q-12 -7 -35 -7q-14 0 -33 3t-37 6q-8 1 -15 1q-12 0 -23 -3q-14 -4 -36 -16q-25 -14 -33 -25l1 -3q32 30 70 39q8 2 21 2q20 0 52 -5q17 -3 31 -3q24 0 39 8zM411 343q-24 -11 -53 -11q-14 0 -38 3t-34 3q-9 0 -41 -7q9 1 17 1q21 0 41 -4l31 -6q40 0 77 21z M245 449q-1 9 -8.5 15t-12.5 4q-9 -1 -15 -8.5t-4 -12.5q1 -8 9 -13.5t13 -3.5q9 1 14.5 7.5t3.5 11.5zM444 452q-1 9 -8 14.5t-12 3.5q-9 -1 -14.5 -8t-3.5 -12q2 -19 21 -17q9 1 14 7.5t3 11.5zM658 102q4 -7 4 -15q0 -18 -27 -38q-24 -15 -48 -31q-19 -14 -33 -18 q1 -1 2 -2.5t2.5 -3.5t9 -7t7.5 -7q0 -7 -10 -7q-14 0 -26 17l-3 6q-9 -3 -31 -6q1 -3 3 -11q2 -22 -7 -24q-5 -1 -6.5 8.5t-2.5 18.5q0 1 -1 3.5t-2 4.5h-17h-17q0 -37 -1 -43q-2 -13 -16 -13q-6 0 -4 9q3 9 5 17q2 21 5 30q-16 0 -59 15.5t-60 15.5h-3q-26 0 -68.5 -15.5 t-69.5 -15.5q3 -9 6 -31q4 -27 -4 -27q-11 0 -13 14v-1q1 0 1 45q-13 0 -37 2q0 -3 -2.5 -12t-4 -18t-7.5 -8q-12 3 -7 24l4 16q-10 1 -31 7q-2 -4 -7 -12q-12 -18 -21 -18q-5 0 -9 4q-3 2 -3 5q0 -2 14 14l11 11q-32 15 -44 55l-12 39q0 8 4 16q14 27 47 27q11 0 51 -6 q-14 11 -14 25q0 13 13 34q-5 -1 -16.5 -7t-15.5 -6q-1 0 -2 1q-4 7 17 17q12 8 28 12q3 3 12 14q-5 2 -19 5q-9 1 -16.5 1.5t-6.5 5.5q1 4 10 4q5 1 10 1q15 0 29 -11q2 3 10 9q-14 24 -26 33q-6 5 -23 9q-10 3 -7 9q2 3 7 3q9 0 29 -12q11 -6 25 -37q12 12 23.5 20.5 t40.5 30.5q-8 -1 -19 -6t-16 -5q-10 0 -17.5 9t-7.5 19q0 16 20 53.5t20 50.5q0 10 -5.5 14.5t-5.5 14.5q0 11 8.5 20t18.5 9q24 0 27 -21h4q17 0 34.5 -8.5t28.5 -8.5q12 0 35 8t33 8q4 0 8 -1q4 24 30 24q13 0 23 -8.5t7 -22.5q-1 -4 -5.5 -15.5t-4.5 -21.5q0 -20 15 -54 t15 -45q0 -24 -27 -24q-11 0 -28 7q-20 10 -22 10q5 -13 24 -20q25 -10 33 -16.5t21 -17.5q11 9 32 32q2 2 8 12q4 7 7 7q2 0 4.5 -2.5t2.5 -6.5q0 -14 -49 -47q4 -3 15 -16q7 3 23 7q22 5 25 -4q1 -6 -7.5 -6.5t-17.5 -0.5q-2 0 -17 -3q5 -5 16 -21q41 0 47 -1 q13 -2 13 -13q0 -5 -4 -5q-3 0 -11 3t-11 4q-10 2 -29 5q18 -33 18 -49q0 -12 -10 -18q80 11 85 11q23 0 43 -35z"/>
<glyph glyph-name="questiondown" horiz-adv-x="224" unicode="¿" d="M174 174q-11 -36 -58 -82q-35 -30 -92 -81q-66 -61 -66 -111q0 -25 14 -40.5t35 -15.5h3q40 2 64 41q12 23 12 44q0 5 -2 19.5t-12 29.5q20 -13 24 -34q2 -11 2 -22q0 -21 -8 -41q-8 -19 -28 -36q-26 -21 -61 -23h-7q-34 0 -57 19.5t-23 55.5q0 60 79 127q34 24 103 79 q54 46 68 78q9 21 0 23q-6 1 -23 -17q-11 -11 -12 -17q-10 11 2 24q15 16 28 16q3 0 7 -1q11 -5 11 -19q0 -7 -3 -16zM210 268q0 -10 -8.5 -19t-19.5 -10h-3q-10 0 -16.5 6t-6.5 15q0 29 29 32h3q9 0 15.5 -6t6.5 -18z"/>
<glyph glyph-name="Agrave" horiz-adv-x="800" unicode="À" d="M861 714h-2q-14 0 -43 13.5t-45 28.5q-19 18 -19 30t12 12q14 0 31 -20l32 -36q20 -20 34 -28zM803 642q-2 -6 -12 -25q-19 -35 -29 -50q6 -1 16.5 -4t15.5 -5q5 33 9 84zM931 526q-1 -5 -23 -1q-43 7 -75 14q-2 -16 -7 -46q-27 -142 -58 -238q-28 -85 -85 -200 q48 53 84 66q8 3 8 -2q0 -2 -5 -4t-7 -4q-34 -22 -76 -72q-20 -23 -47 -59q-14 -18 -26 -18q-9 0 -2 13q7 15 17 39q45 100 91 244q44 137 61 223q9 43 12 66q-11 2 -38 7q-106 -167 -227 -295q22 -6 56 -14q54 -12 109 -16q11 -1 10 -2q0 -5 -17 -5h-20q-60 0 -116 10 q-16 3 -39 10q-81 -80 -174 -149q-213 -159 -352 -170q-14 -1 -25 -1q-66 0 -72 33q-1 3 -1 6q0 20 23 39q23 21 60 32q13 4 15 2q1 -2 -8 -6q-53 -21 -53 -59q0 -36 54 -36h9q125 7 327 168q85 68 167 150q-15 5 -31 12q-21 9 -16 20q3 6 10 6q9 0 33 -10q8 -3 22 -9 q120 121 241 288l-164 33q-143 30 -171 35q-86 17 -166 25q-24 3 -48 3q-172 0 -172 -99v-8q2 -26 37 -61q29 -28 63 -48l8 -7q-2 -2 -14 3q-116 51 -130 106q-3 12 -3 23q0 58 85 83q59 18 148 18q22 0 40 -1q111 -7 332 -54q46 -10 163 -39q19 26 35.5 52.5t19.5 48.5 q1 7 1 24q0 10 4 10q15 0 22 -36q6 -31 6 -72q0 -23 -2 -48q31 -8 76 -17q21 -4 21 -6z"/>
<glyph glyph-name="Aacute" horiz-adv-x="800" unicode="Á" d="M871 788q0 -12 -18.5 -28.5t-45.5 -29.5q-26 -13 -41 -13h-4q20 11 66 64q16 19 31 19q12 0 12 -12zM803 642q-2 -6 -12 -25q-19 -35 -29 -50q6 -1 16.5 -4t15.5 -5q5 33 9 84zM931 526q-1 -5 -23 -1q-43 7 -75 14q-2 -16 -7 -46q-27 -142 -58 -238q-28 -85 -85 -200 q48 53 84 66q8 3 8 -2q0 -2 -5 -4t-7 -4q-34 -22 -76 -72q-20 -23 -47 -59q-14 -18 -26 -18q-9 0 -2 13q7 15 17 39q45 100 91 244q44 137 61 223q9 43 12 66q-11 2 -38 7q-106 -167 -227 -295q22 -6 56 -14q54 -12 109 -16q11 -1 10 -2q0 -5 -17 -5h-20q-60 0 -116 10 q-16 3 -39 10q-81 -80 -174 -149q-213 -159 -352 -170q-14 -1 -25 -1q-66 0 -72 33q-1 3 -1 6q0 20 23 39q23 21 60 32q13 4 15 2q1 -2 -8 -6q-53 -21 -53 -59q0 -36 54 -36h9q125 7 327 168q85 68 167 150q-15 5 -31 12q-21 9 -16 20q3 6 10 6q9 0 33 -10q8 -3 22 -9 q120 121 241 288l-164 33q-143 30 -171 35q-86 17 -166 25q-24 3 -48 3q-172 0 -172 -99v-8q2 -26 37 -61q29 -28 63 -48l8 -7q-2 -2 -14 3q-116 51 -130 106q-3 12 -3 23q0 58 85 83q59 18 148 18q22 0 40 -1q111 -7 332 -54q46 -10 163 -39q19 26 35.5 52.5t19.5 48.5 q1 7 1 24q0 10 4 10q15 0 22 -36q6 -31 6 -72q0 -23 -2 -48q31 -8 76 -17q21 -4 21 -6z"/>
<glyph glyph-name="Acircumflex" horiz-adv-x="800" unicode="Â" d="M870 716q-2 -1 -8 5q-19 19 -27 36q-42 -24 -85 -39q-6 -2 -7 1q-2 3 4 5q35 24 90 72q7 6 9 6t4 -10q10 -43 20 -69q1 -3 2 -5zM803 642q-2 -6 -12 -25q-19 -35 -29 -50q6 -1 16.5 -4t15.5 -5q5 33 9 84zM931 526q-1 -5 -23 -1q-43 7 -75 14q-2 -16 -7 -46 q-27 -142 -58 -238q-28 -85 -85 -200q48 53 84 66q8 3 8 -2q0 -2 -5 -4t-7 -4q-34 -22 -76 -72q-20 -23 -47 -59q-14 -18 -26 -18q-9 0 -2 13q7 15 17 39q45 100 91 244q44 137 61 223q9 43 12 66q-11 2 -38 7q-106 -167 -227 -295q22 -6 56 -14q54 -12 109 -16q11 -1 10 -2 q0 -5 -17 -5h-20q-60 0 -116 10q-16 3 -39 10q-81 -80 -174 -149q-213 -159 -352 -170q-14 -1 -25 -1q-66 0 -72 33q-1 3 -1 6q0 20 23 39q23 21 60 32q13 4 15 2q1 -2 -8 -6q-53 -21 -53 -59q0 -36 54 -36h9q125 7 327 168q85 68 167 150q-15 5 -31 12q-21 9 -16 20 q3 6 10 6q9 0 33 -10q8 -3 22 -9q120 121 241 288l-164 33q-143 30 -171 35q-86 17 -166 25q-24 3 -48 3q-172 0 -172 -99v-8q2 -26 37 -61q29 -28 63 -48l8 -7q-2 -2 -14 3q-116 51 -130 106q-3 12 -3 23q0 58 85 83q59 18 148 18q22 0 40 -1q111 -7 332 -54 q46 -10 163 -39q19 26 35.5 52.5t19.5 48.5q1 7 1 24q0 10 4 10q15 0 22 -36q6 -31 6 -72q0 -23 -2 -48q31 -8 76 -17q21 -4 21 -6z"/>
<glyph glyph-name="Atilde" horiz-adv-x="800" unicode="Ã" d="M887 763q-17 -37 -45 -37h-2q-10 1 -28.5 8t-27.5 8h-2q-13 0 -30 -13l-8 -4q-8 0 8 22.5t40 22.5h2q11 -1 29.5 -8t26.5 -8h5q17 0 26 12q2 5 4 5h2q3 -1 0 -8zM803 642q-2 -6 -12 -25q-19 -35 -29 -50q6 -1 16.5 -4t15.5 -5q5 33 9 84zM931 526q-1 -5 -23 -1 q-43 7 -75 14q-2 -16 -7 -46q-27 -142 -58 -238q-28 -85 -85 -200q48 53 84 66q8 3 8 -2q0 -2 -5 -4t-7 -4q-34 -22 -76 -72q-20 -23 -47 -59q-14 -18 -26 -18q-9 0 -2 13q7 15 17 39q45 100 91 244q44 137 61 223q9 43 12 66q-11 2 -38 7q-106 -167 -227 -295q22 -6 56 -14 q54 -12 109 -16q11 -1 10 -2q0 -5 -17 -5h-20q-60 0 -116 10q-16 3 -39 10q-81 -80 -174 -149q-213 -159 -352 -170q-14 -1 -25 -1q-66 0 -72 33q-1 3 -1 6q0 20 23 39q23 21 60 32q13 4 15 2q1 -2 -8 -6q-53 -21 -53 -59q0 -36 54 -36h9q125 7 327 168q85 68 167 150 q-15 5 -31 12q-21 9 -16 20q3 6 10 6q9 0 33 -10q8 -3 22 -9q120 121 241 288l-164 33q-143 30 -171 35q-86 17 -166 25q-24 3 -48 3q-172 0 -172 -99v-8q2 -26 37 -61q29 -28 63 -48l8 -7q-2 -2 -14 3q-116 51 -130 106q-3 12 -3 23q0 58 85 83q59 18 148 18q22 0 40 -1 q111 -7 332 -54q46 -10 163 -39q19 26 35.5 52.5t19.5 48.5q1 7 1 24q0 10 4 10q15 0 22 -36q6 -31 6 -72q0 -23 -2 -48q31 -8 76 -17q21 -4 21 -6z"/>
<glyph glyph-name="Adieresis" horiz-adv-x="800" unicode="Ä" d="M795 752q0 -23 -23 -23t-23 23t23 23t23 -23zM879 752q0 -23 -23 -23t-23 23t23 23t23 -23zM803 642q-2 -6 -12 -25q-19 -35 -29 -50q6 -1 16.5 -4t15.5 -5q5 33 9 84zM931 526q-1 -5 -23 -1q-43 7 -75 14q-2 -16 -7 -46q-27 -142 -58 -238q-28 -85 -85 -200q48 53 84 66 q8 3 8 -2q0 -2 -5 -4t-7 -4q-34 -22 -76 -72q-20 -23 -47 -59q-14 -18 -26 -18q-9 0 -2 13q7 15 17 39q45 100 91 244q44 137 61 223q9 43 12 66q-11 2 -38 7q-106 -167 -227 -295q22 -6 56 -14q54 -12 109 -16q11 -1 10 -2q0 -5 -17 -5h-20q-60 0 -116 10q-16 3 -39 10 q-81 -80 -174 -149q-213 -159 -352 -170q-14 -1 -25 -1q-66 0 -72 33q-1 3 -1 6q0 20 23 39q23 21 60 32q13 4 15 2q1 -2 -8 -6q-53 -21 -53 -59q0 -36 54 -36h9q125 7 327 168q85 68 167 150q-15 5 -31 12q-21 9 -16 20q3 6 10 6q9 0 33 -10q8 -3 22 -9q120 121 241 288 l-164 33q-143 30 -171 35q-86 17 -166 25q-24 3 -48 3q-172 0 -172 -99v-8q2 -26 37 -61q29 -28 63 -48l8 -7q-2 -2 -14 3q-116 51 -130 106q-3 12 -3 23q0 58 85 83q59 18 148 18q22 0 40 -1q111 -7 332 -54q46 -10 163 -39q19 26 35.5 52.5t19.5 48.5q1 7 1 24q0 10 4 10 q15 0 22 -36q6 -31 6 -72q0 -23 -2 -48q31 -8 76 -17q21 -4 21 -6z"/>
<glyph glyph-name="Aring" horiz-adv-x="800" unicode="Å" d="M803 642q-2 -6 -12 -25q-19 -35 -29 -50q6 -1 16.5 -4t15.5 -5q5 33 9 84zM837 767q0 27 -28 27q-27 0 -27 -27q0 -28 27 -28q28 0 28 28zM931 526q-1 -5 -23 -1q-43 7 -75 14q-2 -16 -7 -46q-27 -142 -58 -238q-28 -85 -85 -200q48 53 84 66q8 3 8 -2q0 -2 -5 -4t-7 -4 q-34 -22 -76 -72q-20 -23 -47 -59q-14 -18 -26 -18q-9 0 -2 13q7 15 17 39q45 100 91 244q44 137 61 223q9 43 12 66q-11 2 -38 7q-106 -167 -227 -295q22 -6 56 -14q54 -12 109 -16q11 -1 10 -2q0 -5 -17 -5h-20q-60 0 -116 10q-16 3 -39 10q-81 -80 -174 -149 q-213 -159 -352 -170q-14 -1 -25 -1q-66 0 -72 33q-1 3 -1 6q0 20 23 39q23 21 60 32q13 4 15 2q1 -2 -8 -6q-53 -21 -53 -59q0 -36 54 -36h9q125 7 327 168q85 68 167 150q-15 5 -31 12q-21 9 -16 20q3 6 10 6q9 0 33 -10q8 -3 22 -9q120 121 241 288l-164 33 q-143 30 -171 35q-86 17 -166 25q-24 3 -48 3q-172 0 -172 -99v-8q2 -26 37 -61q29 -28 63 -48l8 -7q-2 -2 -14 3q-116 51 -130 106q-3 12 -3 23q0 58 85 83q59 18 148 18q22 0 40 -1q111 -7 332 -54q46 -10 163 -39q19 26 35.5 52.5t19.5 48.5q1 7 1 24q0 10 4 10 q15 0 22 -36q6 -31 6 -72q0 -23 -2 -48q31 -8 76 -17q21 -4 21 -6zM856 767q0 -19 -13.5 -33t-33.5 -14q-19 0 -32.5 13.5t-13.5 33.5q0 19 13.5 32.5t32.5 13.5t33 -13.5t14 -32.5z"/>
<glyph glyph-name="AE" horiz-adv-x="960" unicode="Æ" d="M595 -18q-26 14 -66 35q-34 15 -44 15q-11 0 -11 -17q0 -38 47 -51q12 -3 23 -3q21 0 40 12q6 4 11 9zM795 557q-9 2 -34 8q-87 -135 -203 -265q60 -18 162 -38q43 131 61 218q6 27 14 77zM803 643q-4 -14 -9.5 -23t-21.5 -35q12 -3 26 -7q5 38 5 65zM1102 447q1 1 -13 9 q-28 17 -108.5 45.5t-145.5 45.5q-4 -36 -8 -55q-22 -120 -59 -239q113 -21 205 -24q15 0 14 -2q-1 -7 -31 -7q-99 0 -194 16q-42 -123 -80 -184q-21 -34 -44 -55q23 -11 91 -48q147 -79 222 -79q90 0 123 60q6 8 7 8q2 -1 -3 -14q-12 -28 -41 -48q-38 -26 -93 -27h-3 q-67 0 -166 43q-15 6 -162 80q-2 -2 -17 -9q-29 -11 -58 -11q-10 0 -19 1q-27 4 -45 19t-18 33q0 19 16 29.5t34 10.5q13 0 30 -4q27 -7 81 -34q10 10 15 20q32 62 82 216q-98 16 -174 36q-59 -65 -127 -123q-127 -110 -247 -172q-107 -57 -180 -61q-10 -1 -20 -1 q-69 0 -76 33q-1 4 -1 7q0 19 22 38q23 21 59 32q13 4 15 2q1 -2 -8 -6q-53 -21 -53 -59q0 -36 54 -36h9q160 7 442 271q28 27 84 84q-10 4 -24 8q-24 9 -24 21q0 3 2 5q1 1 4 1q13 0 61 -15q111 117 214 261q-55 13 -170 36q-223 41 -338 47q-21 1 -39 1q-180 0 -180 -98 v-8q2 -26 37 -61q29 -28 63 -48l8 -7q-1 -3 -14 3q-115 52 -129 105q-3 12 -3 23q0 68 113 92q54 11 116 11q21 0 43 -1q163 -9 334 -41q110 -21 172 -36q12 16 24 36q16 27 20 49q1 6 1 24q0 10 4 10t11 -10q9 -13 13 -31q6 -28 6 -63q0 -16 -1 -33q172 -47 253 -106 q13 -9 13 -14q0 -1 -1 -2z"/>
<glyph glyph-name="Ccedilla" horiz-adv-x="743" unicode="Ç" d="M789 568q2 -10 2 -19q0 -55 -65 -92q-60 -35 -133 -35q-48 0 -82 15q-25 12 -39 30q-11 15 -8 19l12 -12q16 -17 39 -27q33 -15 78 -15q60 0 105 29q51 33 51 83q0 11 -3 22q-14 60 -119 60q-15 0 -31 -1q-69 -6 -156 -45q-104 -46 -191 -121q-179 -154 -188 -326v-14 q0 -87 60 -132t168 -45h5q152 2 280 73q106 59 120 147q2 15 0 29q-3 18 -4 18q8 4 21 -14q8 -14 8 -29q0 -84 -141 -162q-133 -73 -279 -77q-6 -6 -10 -12q-3 -5 4 -6q43 -6 43 -33q0 -22 -18.5 -33t-41.5 -11h-8q-43 2 -57 28q-4 5 -2 7q3 3 6 -1q16 -18 51 -18 q38 0 38 29q0 15 -21 19q-7 0 -17 4q-2 1 8 13q4 5 12 14h-5q-128 0 -201 47q-77 49 -77 142q0 9 1 18q14 181 210 336q91 72 202 117q99 40 184 48q18 2 37 2q137 0 152 -69zM690 209v0v0z"/>
<glyph glyph-name="Egrave" horiz-adv-x="628" unicode="È" d="M718 718h-2q-14 0 -43 13.5t-45 28.5q-19 18 -19 30t12 12q14 0 31 -20l32 -36q20 -20 34 -28zM841 481q1 1 -13 9q-50 30 -226 83q-27 -58 -85 -176q-17 -36 -51 -101q35 -8 78 -16q76 -14 114 -15q9 0 8 -3q-1 -5 -17 -5h-14q-80 0 -179 20q-86 -153 -156 -221 q23 -17 71 -51q103 -72 166 -103q76 -37 140 -37q84 0 119 62q5 9 7 8q4 -2 -2 -13q-9 -26 -37 -47q-37 -27 -91 -27q-143 0 -319 126q-28 20 -80 58q-91 -75 -174 -75h-6q-46 2 -69 25q-16 16 -16 34q0 5 2 6l9 -12q9 -12 24 -20q23 -12 56 -14h12q48 0 87 21q31 17 58 47 q-45 34 -89 67q-71 51 -93 56q-20 5 -20 -5q0 -18 36 -54q42 -41 90 -53q-62 3 -103 39q-34 30 -34 60q0 13 8 18q13 9 28 9q7 0 14 -2q61 -16 186 -108q50 58 132 218q-16 5 -40 13q-18 9 -13 19q4 6 28 -1l34 -12q9 17 48 93q67 132 95 182q-128 38 -244 38 q-182 0 -182 -118q0 -28 31 -66q26 -32 57 -53q7 -7 7 -8q-1 -3 -13 4q-107 61 -116 114q-2 10 -2 18q0 70 90 102q64 22 153 22q21 0 36 -1q101 -9 195 -32q28 49 55 74q17 16 30 22t17 6q2 0 3 -1l-17 -20q-26 -32 -52 -90q139 -37 218 -97q12 -9 12 -14q0 -1 -1 -2z"/>
<glyph glyph-name="Eacute" horiz-adv-x="628" unicode="É" d="M725 788q0 -12 -18.5 -28.5t-45.5 -29.5q-26 -13 -41 -13h-4q20 11 66 64q16 19 31 19q12 0 12 -12zM841 481q1 1 -13 9q-50 30 -226 83q-27 -58 -85 -176q-17 -36 -51 -101q35 -8 78 -16q76 -14 114 -15q9 0 8 -3q-1 -5 -17 -5h-14q-80 0 -179 20q-86 -153 -156 -221 q23 -17 71 -51q103 -72 166 -103q76 -37 140 -37q84 0 119 62q5 9 7 8q4 -2 -2 -13q-9 -26 -37 -47q-37 -27 -91 -27q-143 0 -319 126q-28 20 -80 58q-91 -75 -174 -75h-6q-46 2 -69 25q-16 16 -16 34q0 5 2 6l9 -12q9 -12 24 -20q23 -12 56 -14h12q48 0 87 21q31 17 58 47 q-45 34 -89 67q-71 51 -93 56q-20 5 -20 -5q0 -18 36 -54q42 -41 90 -53q-62 3 -103 39q-34 30 -34 60q0 13 8 18q13 9 28 9q7 0 14 -2q61 -16 186 -108q50 58 132 218q-16 5 -40 13q-18 9 -13 19q4 6 28 -1l34 -12q9 17 48 93q67 132 95 182q-128 38 -244 38 q-182 0 -182 -118q0 -28 31 -66q26 -32 57 -53q7 -7 7 -8q-1 -3 -13 4q-107 61 -116 114q-2 10 -2 18q0 70 90 102q64 22 153 22q21 0 36 -1q101 -9 195 -32q28 49 55 74q17 16 30 22t17 6q2 0 3 -1l-17 -20q-26 -32 -52 -90q139 -37 218 -97q12 -9 12 -14q0 -1 -1 -2z"/>
<glyph glyph-name="Ecircumflex" horiz-adv-x="628" unicode="Ê" d="M730 716q-2 -1 -8 5q-19 19 -27 36q-42 -24 -85 -39q-6 -2 -7 1q-2 3 4 5q35 24 90 72q7 6 9 6t4 -10q10 -43 20 -69q1 -3 2 -5zM841 481q1 1 -13 9q-50 30 -226 83q-27 -58 -85 -176q-17 -36 -51 -101q35 -8 78 -16q76 -14 114 -15q9 0 8 -3q-1 -5 -17 -5h-14 q-80 0 -179 20q-86 -153 -156 -221q23 -17 71 -51q103 -72 166 -103q76 -37 140 -37q84 0 119 62q5 9 7 8q4 -2 -2 -13q-9 -26 -37 -47q-37 -27 -91 -27q-143 0 -319 126q-28 20 -80 58q-91 -75 -174 -75h-6q-46 2 -69 25q-16 16 -16 34q0 5 2 6l9 -12q9 -12 24 -20 q23 -12 56 -14h12q48 0 87 21q31 17 58 47q-45 34 -89 67q-71 51 -93 56q-20 5 -20 -5q0 -18 36 -54q42 -41 90 -53q-62 3 -103 39q-34 30 -34 60q0 13 8 18q13 9 28 9q7 0 14 -2q61 -16 186 -108q50 58 132 218q-16 5 -40 13q-18 9 -13 19q4 6 28 -1l34 -12q9 17 48 93 q67 132 95 182q-128 38 -244 38q-182 0 -182 -118q0 -28 31 -66q26 -32 57 -53q7 -7 7 -8q-1 -3 -13 4q-107 61 -116 114q-2 10 -2 18q0 70 90 102q64 22 153 22q21 0 36 -1q101 -9 195 -32q28 49 55 74q17 16 30 22t17 6q2 0 3 -1l-17 -20q-26 -32 -52 -90q139 -37 218 -97 q12 -9 12 -14q0 -1 -1 -2z"/>
<glyph glyph-name="Edieresis" horiz-adv-x="628" unicode="Ë" d="M647 745q0 -23 -23 -23t-23 23t23 23t23 -23zM731 745q0 -23 -23 -23t-23 23t23 23t23 -23zM841 481q1 1 -13 9q-50 30 -226 83q-27 -58 -85 -176q-17 -36 -51 -101q35 -8 78 -16q76 -14 114 -15q9 0 8 -3q-1 -5 -17 -5h-14q-80 0 -179 20q-86 -153 -156 -221 q23 -17 71 -51q103 -72 166 -103q76 -37 140 -37q84 0 119 62q5 9 7 8q4 -2 -2 -13q-9 -26 -37 -47q-37 -27 -91 -27q-143 0 -319 126q-28 20 -80 58q-91 -75 -174 -75h-6q-46 2 -69 25q-16 16 -16 34q0 5 2 6l9 -12q9 -12 24 -20q23 -12 56 -14h12q48 0 87 21q31 17 58 47 q-45 34 -89 67q-71 51 -93 56q-20 5 -20 -5q0 -18 36 -54q42 -41 90 -53q-62 3 -103 39q-34 30 -34 60q0 13 8 18q13 9 28 9q7 0 14 -2q61 -16 186 -108q50 58 132 218q-16 5 -40 13q-18 9 -13 19q4 6 28 -1l34 -12q9 17 48 93q67 132 95 182q-128 38 -244 38 q-182 0 -182 -118q0 -28 31 -66q26 -32 57 -53q7 -7 7 -8q-1 -3 -13 4q-107 61 -116 114q-2 10 -2 18q0 70 90 102q64 22 153 22q21 0 36 -1q101 -9 195 -32q28 49 55 74q17 16 30 22t17 6q2 0 3 -1l-17 -20q-26 -32 -52 -90q139 -37 218 -97q12 -9 12 -14q0 -1 -1 -2z"/>
<glyph glyph-name="Igrave" horiz-adv-x="425" unicode="Ì" d="M553 674h-2q-14 0 -43 13.5t-45 28.5q-19 18 -19 30t12 12q14 0 31 -20l32 -36q20 -20 34 -28zM572 564q-1 -5 -17 -3q-10 2 -31 6q-7 -77 -50 -180q-71 -169 -178 -306q-74 -94 -140 -147q-45 -35 -76 -35q-6 0 -12 1q-28 7 -28 42q0 58 51 110q16 17 27 22 q-9 -11 -16 -24q-36 -72 -36 -122q0 -20 13 -20q24 0 52 26q59 56 125 152q98 142 170 305q43 97 69 184q-63 13 -124 30q-129 35 -212 43q-11 1 -21 1q-44 0 -77 -18q-54 -28 -54 -94q0 -7 1 -14q2 -29 29 -67q21 -30 44 -49l7 -9q-1 -3 -11 4q-93 62 -104 113q-4 17 -4 32 q0 70 81 98q45 15 103 15h7q75 -1 171 -26l166 -48q1 10 1 18t-1 15q-2 8 1 9q6 3 16 -14t11 -36q3 -1 30 -9z"/>
<glyph glyph-name="Iacute" horiz-adv-x="425" unicode="Í" d="M574 748q0 -12 -18.5 -28.5t-45.5 -29.5q-26 -13 -41 -13h-4q20 11 66 64q16 19 31 19q12 0 12 -12zM572 564q-1 -5 -17 -3q-10 2 -31 6q-7 -77 -50 -180q-71 -169 -178 -306q-74 -94 -140 -147q-45 -35 -76 -35q-6 0 -12 1q-28 7 -28 42q0 58 51 110q16 17 27 22 q-9 -11 -16 -24q-36 -72 -36 -122q0 -20 13 -20q24 0 52 26q59 56 125 152q98 142 170 305q43 97 69 184q-63 13 -124 30q-129 35 -212 43q-11 1 -21 1q-44 0 -77 -18q-54 -28 -54 -94q0 -7 1 -14q2 -29 29 -67q21 -30 44 -49l7 -9q-1 -3 -11 4q-93 62 -104 113q-4 17 -4 32 q0 70 81 98q45 15 103 15h7q75 -1 171 -26l166 -48q1 10 1 18t-1 15q-2 8 1 9q6 3 16 -14t11 -36q3 -1 30 -9z"/>
<glyph glyph-name="Icircumflex" horiz-adv-x="425" unicode="Î" d="M568 676q-2 -1 -8 5q-19 19 -27 36q-42 -24 -85 -39q-6 -2 -7 1q-2 3 4 5q35 24 90 72q7 6 9 6t4 -10q10 -43 20 -69q1 -3 2 -5zM572 564q-1 -5 -17 -3q-10 2 -31 6q-7 -77 -50 -180q-71 -169 -178 -306q-74 -94 -140 -147q-45 -35 -76 -35q-6 0 -12 1q-28 7 -28 42 q0 58 51 110q16 17 27 22q-9 -11 -16 -24q-36 -72 -36 -122q0 -20 13 -20q24 0 52 26q59 56 125 152q98 142 170 305q43 97 69 184q-63 13 -124 30q-129 35 -212 43q-11 1 -21 1q-44 0 -77 -18q-54 -28 -54 -94q0 -7 1 -14q2 -29 29 -67q21 -30 44 -49l7 -9q-1 -3 -11 4 q-93 62 -104 113q-4 17 -4 32q0 70 81 98q45 15 103 15h7q75 -1 171 -26l166 -48q1 10 1 18t-1 15q-2 8 1 9q6 3 16 -14t11 -36q3 -1 30 -9z"/>
<glyph glyph-name="Idieresis" horiz-adv-x="425" unicode="Ï" d="M484 705q0 -23 -23 -23t-23 23t23 23t23 -23zM568 705q0 -23 -23 -23t-23 23t23 23t23 -23zM572 564q-1 -5 -17 -3q-10 2 -31 6q-7 -77 -50 -180q-71 -169 -178 -306q-74 -94 -140 -147q-45 -35 -76 -35q-6 0 -12 1q-28 7 -28 42q0 58 51 110q16 17 27 22q-9 -11 -16 -24 q-36 -72 -36 -122q0 -20 13 -20q24 0 52 26q59 56 125 152q98 142 170 305q43 97 69 184q-63 13 -124 30q-129 35 -212 43q-11 1 -21 1q-44 0 -77 -18q-54 -28 -54 -94q0 -7 1 -14q2 -29 29 -67q21 -30 44 -49l7 -9q-1 -3 -11 4q-93 62 -104 113q-4 17 -4 32q0 70 81 98 q45 15 103 15h7q75 -1 171 -26l166 -48q1 10 1 18t-1 15q-2 8 1 9q6 3 16 -14t11 -36q3 -1 30 -9z"/>
<glyph glyph-name="Eth" horiz-adv-x="945" unicode="Ð" d="M888 280q13 45 13 91q0 114 -74 166.5t-235 52.5q-37 0 -77 -3q-95 -153 -164 -250q128 -4 172 -30q-47 6 -189 6q-47 -61 -133 -180q2 -2 79 -71q138 -124 244 -124q75 0 127.5 22t108.5 81q84 88 128 239zM944 277q-34 -144 -154 -254q-106 -97 -270 -97 q-139 0 -260 104q-45 39 -79 74q-25 -33 -58 -89.5t-43 -84.5l-6 -17q-8 0 0 27q21 72 86 185q-27 34 -50 57q-15 -11 -28 -43q-37 -92 -38 -153v-6q0 -49 15 -75l6 -11q-9 2 -16 15q-20 32 -20 79q0 91 33 168q18 43 31 44q9 1 30 -5.5t56 -41.5q42 76 99 160q-4 0 -35 -1 q-27 -1 -41 -1q-19 1 -18 5q2 16 111 22q43 65 197 248q-79 -8 -158 -17q-98 -10 -176 -11h-7q-48 0 -85 13q-47 17 -47 47q0 38 68 58q44 12 83 12h16q40 -2 36 -10q0 1 -26 2h-12q-35 0 -71 -10q-57 -16 -57 -50q0 -44 111 -44q118 0 334 22l16 24l-26 -5q22 18 49 42 q18 13 20 12q4 -2 -4 -18.5t-33 -52.5q40 4 78 4q156 0 245 -54q107 -64 107 -201q0 -36 -9 -72z"/>
<glyph glyph-name="Ntilde" horiz-adv-x="795" unicode="Ñ" d="M850 683q-17 -37 -45 -37h-2q-10 1 -28.5 8t-27.5 8h-2q-13 0 -30 -13l-8 -4q-8 0 8 22.5t40 22.5h2q11 -1 29.5 -8t26.5 -8h5q17 0 26 12q2 7 6 5q3 -1 0 -8zM1054 587q-42 0 -73 -20q-36 -23 -89 -106q-34 -53 -81 -148q-56 -113 -95 -207q-13 -29 -41 -100 q-22 -57 -36 -57h-1q-7 1 -7 11q0 8 5 22q5 9 12 26q4 26 4 65q0 34 -3 78q-7 93 -24 202q-13 82 -34 142q0 -12 -6 -34q-35 -126 -124 -258q-100 -148 -227 -231q-109 -72 -200 -72q-8 0 -16 1q-40 3 -62.5 22.5t-22.5 49.5v5q3 38 32 49q-7 -11 -7 -34v-11q3 -59 72 -65 q9 -1 18 -1q184 0 393 306q105 154 133 240q7 22 7 41q0 17 -6 30q-69 152 -242 152q-78 0 -127 -50t-49 -122v-9q5 -116 97 -155q11 -4 10 -6q-2 -3 -17 0q-124 43 -128 163v7q0 76 64.5 129.5t159.5 53.5q202 0 281 -170q34 -72 51 -183q14 -90 14 -169v-20 q-1 -71 -13 -129q14 47 31 90q25 65 90 213q53 113 86 165q42 66 85 93q23 14 48 15h4q27 0 34 -14z"/>
<glyph glyph-name="Ograve" horiz-adv-x="619" unicode="Ò" d="M562 684h-2q-14 0 -43 13.5t-45 28.5q-19 18 -19 30t12 12q14 0 31 -20l32 -36q20 -20 34 -28zM536 557q-30 45 -82 72q-57 30 -126 30h-4q-76 -1 -126 -49.5t-50 -114.5q0 -8 1 -16q2 -21 7 -36q57 65 145 107q67 32 139 32q10 0 20 -1q46 -3 76 -24zM629 498 q12 -44 12 -95q0 -135 -76 -261q-53 -88 -143 -149q-98 -66 -195 -66q-83 0 -138.5 49.5t-61.5 133.5q-1 13 -1 25q0 94 46 188q29 61 65 101q-14 26 -16 60v11q0 70 59.5 121t148.5 52h7q188 0 244 -164q8 -23 -4 -25q-8 -1 -16 22q-5 14 -18 38q-28 31 -81 33h-12 q-75 0 -133 -36q-77 -47 -141 -136q29 -46 85 -68q11 -4 10 -6q-3 -4 -16 1q-59 21 -90 57q-15 -22 -43 -69q-60 -115 -60 -205q0 -149 128 -170q18 -3 35 -3q86 0 169 67q68 55 121 145q98 164 98 295q0 137 -125 215q-6 2 -3 5q3 2 9 -1q39 -20 75 -60q46 -49 61 -105z "/>
<glyph glyph-name="Oacute" horiz-adv-x="619" unicode="Ó" d="M569 758q0 -12 -18.5 -28.5t-45.5 -29.5q-26 -13 -41 -13h-4q20 11 66 64q16 19 31 19q12 0 12 -12zM536 557q-30 45 -82 72q-57 30 -126 30h-4q-76 -1 -126 -49.5t-50 -114.5q0 -8 1 -16q2 -21 7 -36q57 65 145 107q67 32 139 32q10 0 20 -1q46 -3 76 -24zM629 498 q12 -44 12 -95q0 -135 -76 -261q-53 -88 -143 -149q-98 -66 -195 -66q-83 0 -138.5 49.5t-61.5 133.5q-1 13 -1 25q0 94 46 188q29 61 65 101q-14 26 -16 60v11q0 70 59.5 121t148.5 52h7q188 0 244 -164q8 -23 -4 -25q-8 -1 -16 22q-5 14 -18 38q-28 31 -81 33h-12 q-75 0 -133 -36q-77 -47 -141 -136q29 -46 85 -68q11 -4 10 -6q-3 -4 -16 1q-59 21 -90 57q-15 -22 -43 -69q-60 -115 -60 -205q0 -149 128 -170q18 -3 35 -3q86 0 169 67q68 55 121 145q98 164 98 295q0 137 -125 215q-6 2 -3 5q3 2 9 -1q39 -20 75 -60q46 -49 61 -105z "/>
<glyph glyph-name="Ocircumflex" horiz-adv-x="619" unicode="Ô" d="M580 686q-2 -1 -8 5q-19 19 -27 36q-42 -24 -85 -39q-6 -2 -7 1q-2 3 4 5q35 24 90 72q7 6 9 6t4 -10q10 -43 20 -69q1 -3 2 -5zM536 557q-30 45 -82 72q-57 30 -126 30h-4q-76 -1 -126 -49.5t-50 -114.5q0 -8 1 -16q2 -21 7 -36q57 65 145 107q67 32 139 32q10 0 20 -1 q46 -3 76 -24zM629 498q12 -44 12 -95q0 -135 -76 -261q-53 -88 -143 -149q-98 -66 -195 -66q-83 0 -138.5 49.5t-61.5 133.5q-1 13 -1 25q0 94 46 188q29 61 65 101q-14 26 -16 60v11q0 70 59.5 121t148.5 52h7q188 0 244 -164q8 -23 -4 -25q-8 -1 -16 22q-5 14 -18 38 q-28 31 -81 33h-12q-75 0 -133 -36q-77 -47 -141 -136q29 -46 85 -68q11 -4 10 -6q-3 -4 -16 1q-59 21 -90 57q-15 -22 -43 -69q-60 -115 -60 -205q0 -149 128 -170q18 -3 35 -3q86 0 169 67q68 55 121 145q98 164 98 295q0 137 -125 215q-6 2 -3 5q3 2 9 -1q39 -20 75 -60 q46 -49 61 -105z"/>
<glyph glyph-name="Otilde" horiz-adv-x="619" unicode="Õ" d="M592 736q-17 -37 -45 -37h-2q-10 1 -28.5 8t-27.5 8h-2q-13 0 -30 -13l-8 -4q-8 0 8 22.5t40 22.5h2q11 -1 29.5 -8t26.5 -8h5q17 0 26 12q2 5 4 5h2q3 -1 0 -8zM536 557q-30 45 -82 72q-57 30 -126 30h-4q-76 -1 -126 -49.5t-50 -114.5q0 -8 1 -16q2 -21 7 -36 q57 65 145 107q67 32 139 32q10 0 20 -1q46 -3 76 -24zM629 498q12 -44 12 -95q0 -135 -76 -261q-53 -88 -143 -149q-98 -66 -195 -66q-83 0 -138.5 49.5t-61.5 133.5q-1 13 -1 25q0 94 46 188q29 61 65 101q-14 26 -16 60v11q0 70 59.5 121t148.5 52h7q188 0 244 -164 q8 -23 -4 -25q-8 -1 -16 22q-5 14 -18 38q-28 31 -81 33h-12q-75 0 -133 -36q-77 -47 -141 -136q29 -46 85 -68q11 -4 10 -6q-3 -4 -16 1q-59 21 -90 57q-15 -22 -43 -69q-60 -115 -60 -205q0 -149 128 -170q18 -3 35 -3q86 0 169 67q68 55 121 145q98 164 98 295 q0 137 -125 215q-6 2 -3 5q3 2 9 -1q39 -20 75 -60q46 -49 61 -105z"/>
<glyph glyph-name="Odieresis" horiz-adv-x="619" unicode="Ö" d="M500 719q0 -23 -23 -23t-23 23t23 23t23 -23zM584 719q0 -23 -23 -23t-23 23t23 23t23 -23zM536 557q-30 45 -82 72q-57 30 -126 30h-4q-76 -1 -126 -49.5t-50 -114.5q0 -8 1 -16q2 -21 7 -36q57 65 145 107q67 32 139 32q10 0 20 -1q46 -3 76 -24zM629 498 q12 -44 12 -95q0 -135 -76 -261q-53 -88 -143 -149q-98 -66 -195 -66q-83 0 -138.5 49.5t-61.5 133.5q-1 13 -1 25q0 94 46 188q29 61 65 101q-14 26 -16 60v11q0 70 59.5 121t148.5 52h7q188 0 244 -164q8 -23 -4 -25q-8 -1 -16 22q-5 14 -18 38q-28 31 -81 33h-12 q-75 0 -133 -36q-77 -47 -141 -136q29 -46 85 -68q11 -4 10 -6q-3 -4 -16 1q-59 21 -90 57q-15 -22 -43 -69q-60 -115 -60 -205q0 -149 128 -170q18 -3 35 -3q86 0 169 67q68 55 121 145q98 164 98 295q0 137 -125 215q-6 2 -3 5q3 2 9 -1q39 -20 75 -60q46 -49 61 -105z "/>
<glyph glyph-name="multiply" horiz-adv-x="684" unicode="×" d="M234 449q0 -9 -8 -9q-10 0 -10 7q0 10 8 10q10 0 10 -8zM433 452q0 -8 -7 -8q-9 0 -9 6q0 9 7 9q9 0 9 -7zM454 307v3q-27 17 -50 17q-12 0 -34.5 -7.5t-34.5 -7.5q-25 0 -40 5q-27 8 -34 9l-6 -1q18 -6 36.5 -12t44.5 -6q10 0 29 5q23 6 29 7q3 1 6 1q17 0 54 -13z M400 348l-2 3q-12 -7 -35 -7q-14 0 -33 3t-37 6q-8 1 -15 1q-12 0 -23 -3q-14 -4 -36 -16q-25 -14 -33 -25l1 -3q32 30 70 39q8 2 21 2q20 0 52 -5q17 -3 31 -3q24 0 39 8zM411 343q-24 -11 -53 -11q-14 0 -38 3t-34 3q-9 0 -41 -7q9 1 17 1q21 0 41 -4l31 -6q40 0 77 21z M245 449q-1 9 -8.5 15t-12.5 4q-9 -1 -15 -8.5t-4 -12.5q1 -8 9 -13.5t13 -3.5q9 1 14.5 7.5t3.5 11.5zM444 452q-1 9 -8 14.5t-12 3.5q-9 -1 -14.5 -8t-3.5 -12q2 -19 21 -17q9 1 14 7.5t3 11.5zM658 102q4 -7 4 -15q0 -18 -27 -38q-24 -15 -48 -31q-19 -14 -33 -18 q1 -1 2 -2.5t2.5 -3.5t9 -7t7.5 -7q0 -7 -10 -7q-14 0 -26 17l-3 6q-9 -3 -31 -6q1 -3 3 -11q2 -22 -7 -24q-5 -1 -6.5 8.5t-2.5 18.5q0 1 -1 3.5t-2 4.5h-17h-17q0 -37 -1 -43q-2 -13 -16 -13q-6 0 -4 9q3 9 5 17q2 21 5 30q-16 0 -59 15.5t-60 15.5h-3q-26 0 -68.5 -15.5 t-69.5 -15.5q3 -9 6 -31q4 -27 -4 -27q-11 0 -13 14v-1q1 0 1 45q-13 0 -37 2q0 -3 -2.5 -12t-4 -18t-7.5 -8q-12 3 -7 24l4 16q-10 1 -31 7q-2 -4 -7 -12q-12 -18 -21 -18q-5 0 -9 4q-3 2 -3 5q0 -2 14 14l11 11q-32 15 -44 55l-12 39q0 8 4 16q14 27 47 27q11 0 51 -6 q-14 11 -14 25q0 13 13 34q-5 -1 -16.5 -7t-15.5 -6q-1 0 -2 1q-4 7 17 17q12 8 28 12q3 3 12 14q-5 2 -19 5q-9 1 -16.5 1.5t-6.5 5.5q1 4 10 4q5 1 10 1q15 0 29 -11q2 3 10 9q-14 24 -26 33q-6 5 -23 9q-10 3 -7 9q2 3 7 3q9 0 29 -12q11 -6 25 -37q12 12 23.5 20.5 t40.5 30.5q-8 -1 -19 -6t-16 -5q-10 0 -17.5 9t-7.5 19q0 16 20 53.5t20 50.5q0 10 -5.5 14.5t-5.5 14.5q0 11 8.5 20t18.5 9q24 0 27 -21h4q17 0 34.5 -8.5t28.5 -8.5q12 0 35 8t33 8q4 0 8 -1q4 24 30 24q13 0 23 -8.5t7 -22.5q-1 -4 -5.5 -15.5t-4.5 -21.5q0 -20 15 -54 t15 -45q0 -24 -27 -24q-11 0 -28 7q-20 10 -22 10q5 -13 24 -20q25 -10 33 -16.5t21 -17.5q11 9 32 32q2 2 8 12q4 7 7 7q2 0 4.5 -2.5t2.5 -6.5q0 -14 -49 -47q4 -3 15 -16q7 3 23 7q22 5 25 -4q1 -6 -7.5 -6.5t-17.5 -0.5q-2 0 -17 -3q5 -5 16 -21q41 0 47 -1 q13 -2 13 -13q0 -5 -4 -5q-3 0 -11 3t-11 4q-10 2 -29 5q18 -33 18 -49q0 -12 -10 -18q80 11 85 11q23 0 43 -35z"/>
<glyph glyph-name="Oslash" horiz-adv-x="634" unicode="Ø" d="M565 610q-84 -105 -189 -263q-130 -195 -233 -389q31 -19 81 -19q86 0 168 69q69 57 122 150q98 172 98 304q0 84 -47 148zM671 738q0 -4 -23 -30t-75 -88q42 -50 57 -102q13 -45 13 -99q0 -140 -78 -273q-53 -91 -142 -152q-96 -65 -192 -65q-50 0 -93 20 q-13 -27 -39 -77q-22 -43 -25 -43l-1 1q-1 0 -1 3q0 6 13 39q15 39 39 85q-70 45 -86 131q-6 35 -6 71q0 97 42 182q73 146 213 223q90 49 185 49q18 0 34 -2t16 -7q0 -2 -9 -1q-16 2 -33 2q-86 0 -164 -48q-113 -70 -191 -228q-56 -114 -56 -208q0 -15 1 -30q7 -86 59 -124 q112 224 216 382q96 147 210 274q-29 36 -68 60q-5 3 -4 6q1 4 10 -1q37 -20 70 -56q30 35 75 81q25 26 31 26q2 0 2 -1z"/>
<glyph glyph-name="Ugrave" horiz-adv-x="761" unicode="Ù" d="M751 634h-2q-14 0 -43 13.5t-45 28.5q-19 18 -19 30t12 12q14 0 31 -20l32 -36q20 -20 34 -28zM967 600q-10 -2 -26 -8q-35 -17 -77 -80q-35 -53 -75 -140q-65 -142 -108 -246q-28 -67 -59 -146q26 29 57 40q5 1 8 -1q0 -2 -6 -5q-9 -4 -12 -6q-24 -17 -45 -43 q-30 -37 -33 -39q-7 -7 -12 -7h-2q-18 6 -11 24q38 103 75 191q-111 -182 -238 -182q-112 0 -218 99q-71 -47 -136 -47q-18 0 -29 5t-11 9q0 1 1 2l12 -4q8 -3 18 -3q57 0 131 52q-9 8 -33 32q-27 28 -72 69q-12 9 -21 9q-5 0 -9 -2q-8 -4 -8 -12q0 -12 22.5 -37.5 t42.5 -31.5q-40 0 -61 28q-11 15 -11 33t11 27q9 7 20 7q10 0 23 -6q33 -16 78 -56q17 -14 47 -40q25 19 41 34q82 81 153 211q66 121 68 207v6q0 104 -110 106h-2q-76 0 -166 -92t-90 -170q0 -46 45 -46q34 0 65 17q12 7 13 6q3 -4 -11 -13q-36 -19 -67 -19q-56 0 -60 57 v11q0 84 82 172q82 87 192 87h3q61 -1 102.5 -34t44.5 -88v-14q0 -91 -60 -204q-56 -104 -167 -202q-15 -13 -60 -47q114 -101 191 -103h3q120 0 250 216q34 81 70 155q59 120 96 172q30 42 69 68q33 23 58 26q7 1 11 0t3 -4z"/>
<glyph glyph-name="Uacute" horiz-adv-x="761" unicode="Ú" d="M771 708q0 -12 -18.5 -28.5t-45.5 -29.5q-26 -13 -41 -13h-4q20 11 66 64q16 19 31 19q12 0 12 -12zM967 600q-10 -2 -26 -8q-35 -17 -77 -80q-35 -53 -75 -140q-65 -142 -108 -246q-28 -67 -59 -146q26 29 57 40q5 1 8 -1q0 -2 -6 -5q-9 -4 -12 -6q-24 -17 -45 -43 q-30 -37 -33 -39q-7 -7 -12 -7h-2q-18 6 -11 24q38 103 75 191q-111 -182 -238 -182q-112 0 -218 99q-71 -47 -136 -47q-18 0 -29 5t-11 9q0 1 1 2l12 -4q8 -3 18 -3q57 0 131 52q-9 8 -33 32q-27 28 -72 69q-12 9 -21 9q-5 0 -9 -2q-8 -4 -8 -12q0 -12 22.5 -37.5 t42.5 -31.5q-40 0 -61 28q-11 15 -11 33t11 27q9 7 20 7q10 0 23 -6q33 -16 78 -56q17 -14 47 -40q25 19 41 34q82 81 153 211q66 121 68 207v6q0 104 -110 106h-2q-76 0 -166 -92t-90 -170q0 -46 45 -46q34 0 65 17q12 7 13 6q3 -4 -11 -13q-36 -19 -67 -19q-56 0 -60 57 v11q0 84 82 172q82 87 192 87h3q61 -1 102.5 -34t44.5 -88v-14q0 -91 -60 -204q-56 -104 -167 -202q-15 -13 -60 -47q114 -101 191 -103h3q120 0 250 216q34 81 70 155q59 120 96 172q30 42 69 68q33 23 58 26q7 1 11 0t3 -4z"/>
<glyph glyph-name="Ucircumflex" horiz-adv-x="761" unicode="Û" d="M767 636q-2 -1 -8 5q-19 19 -27 36q-42 -24 -85 -39q-6 -2 -7 1q-2 3 4 5q35 24 90 72q7 6 9 6t4 -10q10 -43 20 -69q1 -3 2 -5zM967 600q-10 -2 -26 -8q-35 -17 -77 -80q-35 -53 -75 -140q-65 -142 -108 -246q-28 -67 -59 -146q26 29 57 40q5 1 8 -1q0 -2 -6 -5 q-9 -4 -12 -6q-24 -17 -45 -43q-30 -37 -33 -39q-7 -7 -12 -7h-2q-18 6 -11 24q38 103 75 191q-111 -182 -238 -182q-112 0 -218 99q-71 -47 -136 -47q-18 0 -29 5t-11 9q0 1 1 2l12 -4q8 -3 18 -3q57 0 131 52q-9 8 -33 32q-27 28 -72 69q-12 9 -21 9q-5 0 -9 -2 q-8 -4 -8 -12q0 -12 22.5 -37.5t42.5 -31.5q-40 0 -61 28q-11 15 -11 33t11 27q9 7 20 7q10 0 23 -6q33 -16 78 -56q17 -14 47 -40q25 19 41 34q82 81 153 211q66 121 68 207v6q0 104 -110 106h-2q-76 0 -166 -92t-90 -170q0 -46 45 -46q34 0 65 17q12 7 13 6q3 -4 -11 -13 q-36 -19 -67 -19q-56 0 -60 57v11q0 84 82 172q82 87 192 87h3q61 -1 102.5 -34t44.5 -88v-14q0 -91 -60 -204q-56 -104 -167 -202q-15 -13 -60 -47q114 -101 191 -103h3q120 0 250 216q34 81 70 155q59 120 96 172q30 42 69 68q33 23 58 26q7 1 11 0t3 -4z"/>
<glyph glyph-name="Udieresis" horiz-adv-x="761" unicode="Ü" d="M677 665q0 -23 -23 -23t-23 23t23 23t23 -23zM761 665q0 -23 -23 -23t-23 23t23 23t23 -23zM967 600q-10 -2 -26 -8q-35 -17 -77 -80q-35 -53 -75 -140q-65 -142 -108 -246q-28 -67 -59 -146q26 29 57 40q5 1 8 -1q0 -2 -6 -5q-9 -4 -12 -6q-24 -17 -45 -43 q-30 -37 -33 -39q-7 -7 -12 -7h-2q-18 6 -11 24q38 103 75 191q-111 -182 -238 -182q-112 0 -218 99q-71 -47 -136 -47q-18 0 -29 5t-11 9q0 1 1 2l12 -4q8 -3 18 -3q57 0 131 52q-9 8 -33 32q-27 28 -72 69q-12 9 -21 9q-5 0 -9 -2q-8 -4 -8 -12q0 -12 22.5 -37.5 t42.5 -31.5q-40 0 -61 28q-11 15 -11 33t11 27q9 7 20 7q10 0 23 -6q33 -16 78 -56q17 -14 47 -40q25 19 41 34q82 81 153 211q66 121 68 207v6q0 104 -110 106h-2q-76 0 -166 -92t-90 -170q0 -46 45 -46q34 0 65 17q12 7 13 6q3 -4 -11 -13q-36 -19 -67 -19q-56 0 -60 57 v11q0 84 82 172q82 87 192 87h3q61 -1 102.5 -34t44.5 -88v-14q0 -91 -60 -204q-56 -104 -167 -202q-15 -13 -60 -47q114 -101 191 -103h3q120 0 250 216q34 81 70 155q59 120 96 172q30 42 69 68q33 23 58 26q7 1 11 0t3 -4z"/>
<glyph glyph-name="Yacute" horiz-adv-x="695" unicode="Ý" d="M715 708q0 -12 -18.5 -28.5t-45.5 -29.5q-26 -13 -41 -13h-4q20 11 66 64q16 19 31 19q12 0 12 -12zM802 528q-15 -37 -44 -74q-43 -141 -89 -242q-120 -262 -285 -414q-178 -164 -353 -164q-38 0 -60 19q-17 13 -17 28q0 4 2 5q-2 -1 16 -11q23 -12 66 -14h14 q82 0 153 33q70 33 147 108q148 144 286 440q24 50 75 162q-99 -169 -249 -300q-131 -114 -217 -142q-19 -6 -33 -6q-10 0 -16 3q-13 6 -13 24q0 14 8 30q6 13 73.5 118.5t102.5 176.5q73 151 73 243v14q-6 96 -103 100h-9q-81 0 -165 -53q-70 -44 -118 -105 q-53 -66 -53 -124v-6q2 -44 46 -46h3q28 0 63 16q13 6 13 5q2 -4 -11 -11q-36 -19 -68 -19q-57 0 -60 54v8q0 60 41 125q40 62 96 100q98 66 208 66h13q70 -2 111 -44t41 -107q0 -93 -73 -230q-33 -63 -175 -276q-16 -24 -16 -35q0 -3 1 -5q3 -5 11 -5q9 0 25 7 q80 35 197 137q151 132 266 331q14 39 37 86q14 28 28 28q2 0 8.5 -2t6.5 -14q0 -7 -4 -18z"/>
<glyph glyph-name="Thorn" horiz-adv-x="638" unicode="Þ" d="M637 293q8 26 8 48q0 108 -191 132q-15 2 -44 5q-19 -40 -65 -133t-89 -166q64 -31 135 -32h5q196 0 241 146zM689 291q-25 -88 -117 -127q-69 -29 -166 -29h-13q-74 2 -143 35q-97 -170 -174 -239q-35 -31 -57 -31h-5q-34 6 -34 65q0 69 64 138q14 16 30 26t18 7l-10 -9 q-14 -12 -26 -30q-46 -68 -48 -149v-5q0 -32 11 -34h3q16 0 46 32q47 51 145 248q-23 18 -38.5 34t-15.5 24q0 2 1 3q1 0 6 -6q6 -10 14 -16q13 -15 37 -31q13 27 39 77t37 73q42 85 69 134q-42 2 -147 9q-64 5 -89 11q-43 11 -43 34q0 28 63 43q38 9 75 9q10 0 20 -1 q24 -2 24 -5q0 -4 -16 -3q-13 1 -24 1q-106 0 -106 -42q0 -26 99 -35q45 -2 149 -11q64 120 97 156q20 21 38.5 32t24.5 11q2 0 3 -1l-15 -21q-41 -55 -100 -180q8 -1 44 -5q236 -29 236 -153q0 -19 -6 -39z"/>
<glyph glyph-name="germandbls" horiz-adv-x="245" unicode="ß" d="M307 386q-22 -14 -58 -32q-46 -23 -64 -47q-7 -10 -7 -28q0 -14 4 -33q14 -62 14 -101q0 -75 -43 -122q-35 -39 -78 -39h-6q-28 2 -28 31q0 14 10.5 28t17.5 9q1 -1 -2 -6q-6 -8 -7.5 -16t-1.5 -13q0 -22 21 -24h4q30 0 52.5 47.5t22.5 110.5q0 24 -3 54q-3 34 -3 45 q0 36 22.5 61.5t68.5 49.5q21 11 55 32q19 15 19 43t-22 32q-4 1 -9 1q-56 0 -124 -127q-52 -99 -70 -140q-53 -124 -75 -193q-4 -13 -19 -75q-1 -13 -6 -27h-1q-9 0 -12 33q-1 6 -1 13q0 30 12 72q21 78 52 152q37 88 86 164q91 140 172 140q43 0 43 -40q0 -32 -36 -55z "/>
<glyph glyph-name="agrave" horiz-adv-x="259" unicode="à" d="M240 314h-2q-14 0 -43 13.5t-45 28.5q-19 18 -19 30t12 12q14 0 31 -20l32 -36q20 -20 34 -28zM192 234q2 6 2 11q0 19 -20 19q-32 0 -72 -49q-35 -45 -66 -114q-17 -38 -17 -60q0 -14 10 -15h1q20 0 60 46q35 40 69 94q20 33 33 68zM245 264q-18 -44 -55 -139 q-23 -60 -54 -117q26 33 54 55q23 18 35 22q6 3 7 1q2 -3 -5 -6q-16 -8 -42 -33t-50 -54q-14 -17 -26 -17h-2q-14 2 -5 22q24 54 69 171q-37 -66 -85 -116q-43 -45 -67 -45h-1q-30 2 -30 44q0 33 20 77q23 50 72 95q54 50 93 50h3q25 -1 28 -24q7 13 11 19q8 10 17 10h3 q11 -2 11 -10q0 -2 -1 -5z"/>
<glyph glyph-name="aacute" horiz-adv-x="259" unicode="á" d="M262 388q0 -12 -18.5 -28.5t-45.5 -29.5q-26 -13 -41 -13h-4q20 11 66 64q16 19 31 19q12 0 12 -12zM192 234q2 6 2 11q0 19 -20 19q-32 0 -72 -49q-35 -45 -66 -114q-17 -38 -17 -60q0 -14 10 -15h1q20 0 60 46q35 40 69 94q20 33 33 68zM245 264q-18 -44 -55 -139 q-23 -60 -54 -117q26 33 54 55q23 18 35 22q6 3 7 1q2 -3 -5 -6q-16 -8 -42 -33t-50 -54q-14 -17 -26 -17h-2q-14 2 -5 22q24 54 69 171q-37 -66 -85 -116q-43 -45 -67 -45h-1q-30 2 -30 44q0 33 20 77q23 50 72 95q54 50 93 50h3q25 -1 28 -24q7 13 11 19q8 10 17 10h3 q11 -2 11 -10q0 -2 -1 -5z"/>
<glyph glyph-name="acircumflex" horiz-adv-x="259" unicode="â" d="M256 316q-2 -1 -8 5q-19 19 -27 36q-42 -24 -85 -39q-6 -2 -7 1q-2 3 4 5q35 24 90 72q7 6 9 6t4 -10q10 -43 20 -69q1 -3 2 -5zM192 234q2 6 2 11q0 19 -20 19q-32 0 -72 -49q-35 -45 -66 -114q-17 -38 -17 -60q0 -14 10 -15h1q20 0 60 46q35 40 69 94q20 33 33 68z M245 264q-18 -44 -55 -139q-23 -60 -54 -117q26 33 54 55q23 18 35 22q6 3 7 1q2 -3 -5 -6q-16 -8 -42 -33t-50 -54q-14 -17 -26 -17h-2q-14 2 -5 22q24 54 69 171q-37 -66 -85 -116q-43 -45 -67 -45h-1q-30 2 -30 44q0 33 20 77q23 50 72 95q54 50 93 50h3q25 -1 28 -24 q7 13 11 19q8 10 17 10h3q11 -2 11 -10q0 -2 -1 -5z"/>
<glyph glyph-name="atilde" horiz-adv-x="259" unicode="ã" d="M258 363q-17 -37 -45 -37h-2q-10 1 -28.5 8t-27.5 8h-2q-13 0 -30 -13l-8 -4q-8 0 8 22.5t40 22.5h2q11 -1 29.5 -8t26.5 -8h5q17 0 26 12q2 5 4 5h2q2 -1 2 -3t-2 -5zM192 234q2 6 2 11q0 19 -20 19q-32 0 -72 -49q-35 -45 -66 -114q-17 -38 -17 -60q0 -14 10 -15h1 q20 0 60 46q35 40 69 94q20 33 33 68zM245 264q-18 -44 -55 -139q-23 -60 -54 -117q26 33 54 55q23 18 35 22q6 3 7 1q2 -3 -5 -6q-16 -8 -42 -33t-50 -54q-14 -17 -26 -17h-2q-14 2 -5 22q24 54 69 171q-37 -66 -85 -116q-43 -45 -67 -45h-1q-30 2 -30 44q0 33 20 77 q23 50 72 95q54 50 93 50h3q25 -1 28 -24q7 13 11 19q8 10 17 10h3q11 -2 11 -10q0 -2 -1 -5z"/>
<glyph glyph-name="adieresis" horiz-adv-x="259" unicode="ä" d="M174 345q0 -23 -23 -23t-23 23t23 23t23 -23zM258 345q0 -23 -23 -23t-23 23t23 23t23 -23zM192 234q2 6 2 11q0 19 -20 19q-32 0 -72 -49q-35 -45 -66 -114q-17 -38 -17 -60q0 -14 10 -15h1q20 0 60 46q35 40 69 94q20 33 33 68zM245 264q-18 -44 -55 -139 q-23 -60 -54 -117q26 33 54 55q23 18 35 22q6 3 7 1q2 -3 -5 -6q-16 -8 -42 -33t-50 -54q-14 -17 -26 -17h-2q-14 2 -5 22q24 54 69 171q-37 -66 -85 -116q-43 -45 -67 -45h-1q-30 2 -30 44q0 33 20 77q23 50 72 95q54 50 93 50h3q25 -1 28 -24q7 13 11 19q8 10 17 10h3 q11 -2 11 -10q0 -2 -1 -5z"/>
<glyph glyph-name="aring" horiz-adv-x="259" unicode="å" d="M228 357q0 27 -28 27q-27 0 -27 -27q0 -28 27 -28q28 0 28 28zM247 357q0 -19 -13.5 -33t-33.5 -14q-19 0 -32.5 13.5t-13.5 33.5q0 19 13.5 32.5t32.5 13.5t33 -13.5t14 -32.5zM192 234q2 6 2 11q0 19 -20 19q-32 0 -72 -49q-35 -45 -66 -114q-17 -38 -17 -60 q0 -14 10 -15h1q20 0 60 46q35 40 69 94q20 33 33 68zM245 264q-18 -44 -55 -139q-23 -60 -54 -117q26 33 54 55q23 18 35 22q6 3 7 1q2 -3 -5 -6q-16 -8 -42 -33t-50 -54q-14 -17 -26 -17h-2q-14 2 -5 22q24 54 69 171q-37 -66 -85 -116q-43 -45 -67 -45h-1q-30 2 -30 44 q0 33 20 77q23 50 72 95q54 50 93 50h3q25 -1 28 -24q7 13 11 19q8 10 17 10h3q11 -2 11 -10q0 -2 -1 -5z"/>
<glyph glyph-name="ae" horiz-adv-x="329" unicode="æ" d="M192 234q2 6 2 11q0 19 -20 19q-33 0 -72.5 -49.5t-66.5 -113.5q-18 -44 -18 -68q0 -16 9 -17h3q38 0 130 150q20 33 33 68zM316 275q-17 0 -40.5 -17.5t-33.5 -32.5q13 -7 28 -7h2q20 0 38 15.5t18 29.5q0 12 -12 12zM357 268q0 -18 -19 -36q-24 -23 -60 -23q-5 0 -11 1 q-19 2 -31 8q-17 -23 -28 -46q-30 -61 -41 -104q-4 -17 -4 -29q0 -21 13 -25q4 -1 8 -1q13 0 33.5 13.5t36.5 40.5t26 63q3 12 6 12t3 -11q-4 -31 -23.5 -65t-45 -50.5t-45.5 -16.5h-6q-37 6 -37 53q0 15 4 33q9 36 31 76q-100 -163 -147 -163h-2q-32 2 -32 49q0 35 20 79 q26 57 76 102.5t93 45.5q26 0 28 -24q7 13 11 19q9 12 20 10q14 -3 10 -15q-10 -20 -13 -27q43 49 101 49q25 0 25 -18z"/>
<glyph glyph-name="ccedilla" horiz-adv-x="177" unicode="ç" d="M192 269q0 -14 -16 -25q-10 -5 -11 -2q-1 1 2 9.5t3 16.5q0 10 -7 11h-4q-28 0 -67.5 -60t-58.5 -131q-9 -34 -9 -52q0 -25 18 -25q25 0 57 41q23 29 39 63l10 22q6 -1 -4 -27q-14 -36 -41 -69q-33 -40 -64 -43q-2 -2 -5 -5.5t-4 -4.5q-3 -5 4 -6q43 -6 43 -33v-3 q-1 -20 -18.5 -30.5t-41.5 -10.5h-8q-43 2 -57 28q-2 3 -2 5t1 3q2 2 5 -2q15 -17 52 -17q34 0 38 24v4q0 15 -21 19q-7 0 -17 4q-2 1 7 13q4 4 10 12q-37 6 -37.5 29.5t-0.5 24.5q0 44 25 94q30 61 70 99q43 42 82 43q28 0 28 -19z"/>
<glyph glyph-name="egrave" horiz-adv-x="187" unicode="è" d="M225 314h-2q-14 0 -43 13.5t-45 28.5q-19 18 -19 30t12 12q14 0 31 -20l32 -36q20 -20 34 -28zM174 275q-17 0 -42 -19q-21 -16 -31 -31q13 -7 27 -7h2q20 0 38 15.5t18 29.5q0 12 -12 12zM215 268q0 -20 -19 -36q-27 -23 -60 -23q-5 0 -11 1q-16 2 -29 8 q-18 -26 -28 -45q-29 -59 -42 -105q-5 -20 -5 -34q0 -23 13 -27q3 -1 6 -1q14 0 35 16.5t37.5 44.5t25.5 63q3 12 6 12q4 0 3 -11q-1 -28 -24 -67q-43 -73 -89 -73q-5 0 -9 1q-39 6 -39 57q0 18 5 38q15 59 53 108q72 91 145 91h2q24 0 24 -18z"/>
<glyph glyph-name="eacute" horiz-adv-x="187" unicode="é" d="M237 388q0 -12 -18.5 -28.5t-45.5 -29.5q-26 -13 -41 -13h-4q20 11 66 64q16 19 31 19q12 0 12 -12zM174 275q-17 0 -42 -19q-21 -16 -31 -31q13 -7 27 -7h2q20 0 38 15.5t18 29.5q0 12 -12 12zM215 268q0 -20 -19 -36q-27 -23 -60 -23q-5 0 -11 1q-16 2 -29 8 q-18 -26 -28 -45q-29 -59 -42 -105q-5 -20 -5 -34q0 -23 13 -27q3 -1 6 -1q14 0 35 16.5t37.5 44.5t25.5 63q3 12 6 12q4 0 3 -11q-1 -28 -24 -67q-43 -73 -89 -73q-5 0 -9 1q-39 6 -39 57q0 18 5 38q15 59 53 108q72 91 145 91h2q24 0 24 -18z"/>
<glyph glyph-name="ecircumflex" horiz-adv-x="187" unicode="ê" d="M234 316q-2 -1 -8 5q-19 19 -27 36q-42 -24 -85 -39q-6 -2 -7 1q-2 3 4 5q35 24 90 72q7 6 9 6t4 -10q10 -43 20 -69q1 -3 2 -5zM174 275q-17 0 -42 -19q-21 -16 -31 -31q13 -7 27 -7h2q20 0 38 15.5t18 29.5q0 12 -12 12zM215 268q0 -20 -19 -36q-27 -23 -60 -23 q-5 0 -11 1q-16 2 -29 8q-18 -26 -28 -45q-29 -59 -42 -105q-5 -20 -5 -34q0 -23 13 -27q3 -1 6 -1q14 0 35 16.5t37.5 44.5t25.5 63q3 12 6 12q4 0 3 -11q-1 -28 -24 -67q-43 -73 -89 -73q-5 0 -9 1q-39 6 -39 57q0 18 5 38q15 59 53 108q72 91 145 91h2q24 0 24 -18z"/>
<glyph glyph-name="edieresis" horiz-adv-x="187" unicode="ë" d="M157 345q0 -23 -23 -23t-23 23t23 23t23 -23zM241 345q0 -23 -23 -23t-23 23t23 23t23 -23zM174 275q-17 0 -42 -19q-21 -16 -31 -31q13 -7 27 -7h2q20 0 38 15.5t18 29.5q0 12 -12 12zM215 268q0 -20 -19 -36q-27 -23 -60 -23q-5 0 -11 1q-16 2 -29 8q-18 -26 -28 -45 q-29 -59 -42 -105q-5 -20 -5 -34q0 -23 13 -27q3 -1 6 -1q14 0 35 16.5t37.5 44.5t25.5 63q3 12 6 12q4 0 3 -11q-1 -28 -24 -67q-43 -73 -89 -73q-5 0 -9 1q-39 6 -39 57q0 18 5 38q15 59 53 108q72 91 145 91h2q24 0 24 -18z"/>
<glyph glyph-name="igrave" horiz-adv-x="142" unicode="ì" d="M170 314h-2q-14 0 -43 13.5t-45 28.5q-19 18 -19 30t12 12q14 0 31 -20l32 -36q20 -20 34 -28zM134 275q-30 -54 -58 -127q-26 -67 -43 -119q26 24 49 35q8 4 8 0l-17 -12q-17 -12 -38 -37q-32 -36 -37 -35q-12 0 -12 11q0 5 2 10q15 49 50 147q17 41 52 112 q-11 -5 -17 -7q-11 0 -11 3t14 7q23 7 48 21q7 4 10 4q1 0 2 -1t1 -3q0 -3 -3 -9z"/>
<glyph glyph-name="iacute" horiz-adv-x="142" unicode="í" d="M182 388q0 -12 -18.5 -28.5t-45.5 -29.5q-26 -13 -41 -13h-4q20 11 66 64q16 19 31 19q12 0 12 -12zM134 275q-30 -54 -58 -127q-26 -67 -43 -119q26 24 49 35q8 4 8 0l-17 -12q-17 -12 -38 -37q-32 -36 -37 -35q-12 0 -12 11q0 5 2 10q15 49 50 147q17 41 52 112 q-11 -5 -17 -7q-11 0 -11 3t14 7q23 7 48 21q7 4 10 4q1 0 2 -1t1 -3q0 -3 -3 -9z"/>
<glyph glyph-name="icircumflex" horiz-adv-x="142" unicode="î" d="M179 316q-2 -1 -8 5q-19 19 -27 36q-42 -24 -85 -39q-6 -2 -7 1q-2 3 4 5q35 24 90 72q7 6 9 6t4 -10q10 -43 20 -69q1 -3 2 -5zM134 275q-30 -54 -58 -127q-26 -67 -43 -119q26 24 49 35q8 4 8 0l-17 -12q-17 -12 -38 -37q-32 -36 -37 -35q-12 0 -12 11q0 5 2 10 q15 49 50 147q17 41 52 112q-11 -5 -17 -7q-11 0 -11 3t14 7q23 7 48 21q7 4 10 4q1 0 2 -1t1 -3q0 -3 -3 -9z"/>
<glyph glyph-name="idieresis" horiz-adv-x="142" unicode="ï" d="M99 345q0 -23 -23 -23t-23 23t23 23t23 -23zM183 345q0 -23 -23 -23t-23 23t23 23t23 -23zM134 275q-30 -54 -58 -127q-26 -67 -43 -119q26 24 49 35q8 4 8 0l-17 -12q-17 -12 -38 -37q-32 -36 -37 -35q-12 0 -12 11q0 5 2 10q15 49 50 147q17 41 52 112q-11 -5 -17 -7 q-11 0 -11 3t14 7q23 7 48 21q7 4 10 4q1 0 2 -1t1 -3q0 -3 -3 -9z"/>
<glyph glyph-name="eth" horiz-adv-x="220" unicode="ð" d="M311 427q-36 -11 -62 -21q1 -12 1 -25q0 -120 -79 -257q-29 -50 -70 -89q-42 -39 -69 -39h-4q-38 4 -38 60q0 49 29 94q46 101 128 128q9 3 20 3q10 0 14.5 -3.5t2.5 -5.5q2 3 -17 3q-8 0 -17 -5q-64 -34 -104 -151q-23 -68 -23 -88t12 -23q2 -1 5 -1q18 0 47 37 q38 46 73 130q51 122 51 216q-10 -4 -23 -10q-44 -21 -78 -41q4 26 77 59q9 4 24 10q-10 104 -119 104q-9 0 -18 -1q-27 -2 -26 -3q-1 1 -1 3q0 6 30 9q16 2 31 2q122 0 139 -102q28 8 48 8q9 0 16 -1z"/>
<glyph glyph-name="ntilde" horiz-adv-x="234" unicode="ñ" d="M240 363q-17 -37 -45 -37h-2q-10 1 -28.5 8t-27.5 8h-2q-13 0 -30 -13l-8 -4q-8 0 8 22.5t40 22.5h2q11 -1 29.5 -8t26.5 -8h5q17 0 26 12q2 5 4 5h2q2 -1 2 -3t-2 -5zM226 252q-17 -40 -52 -126q-14 -34 -37 -108q-3 -13 1 -15q6 -3 24 14q8 7 9 6q2 -2 -5 -10 q-29 -33 -49 -33h-3q-15 2 -15 21q0 4 1 9q7 45 39 123q14 32 40 95q4 10 1 12q-4 2 -12 -6q-41 -41 -76 -84q-19 -23 -79 -122q-5 -6 -16 -21q-7 -11 -15 -8q-5 2 -5 8q0 5 3 12l91 240q4 10 -4 10q-5 0 -23 -10q-5 -5 -7 -2q-1 2 4 7q30 27 55 30h3q10 0 14 -6q3 -6 0 -17 q-22 -54 -62 -159q29 38 64 79q42 48 74 75q16 13 28 13q3 0 6 -1q7 -3 7 -11q0 -6 -4 -15z"/>
<glyph glyph-name="ograve" d="M209 314h-2q-14 0 -43 13.5t-45 28.5q-19 18 -19 30t12 12q14 0 31 -20l32 -36q20 -20 34 -28zM222 259q0 -2 -9.5 -7t-19.5 -5q-11 0 -22 6q12 -23 12 -56q0 -37 -16 -74q-25 -56 -65.5 -90.5t-65.5 -34.5q-5 0 -9 1q-37 10 -37 64q0 28 12 61q31 90 110 129q18 9 20 7 l-12 -12q-61 -64 -90 -164q-9 -31 -9 -49q0 -26 17 -26q23 0 58 52q39 57 57 123q7 25 7 42q0 27 -18 44q-13 12 -15 17q-4 10 7 15q3 1 5 1q7 0 13 -11.5t17 -22.5q8 -9 24 -12q9 -1 19 1t10 1z" unicode="ò"/>
<glyph glyph-name="oacute" d="M223 388q0 -12 -18.5 -28.5t-45.5 -29.5q-26 -13 -41 -13h-4q20 11 66 64q16 19 31 19q12 0 12 -12zM222 259q0 -2 -9.5 -7t-19.5 -5q-11 0 -22 6q12 -23 12 -56q0 -37 -16 -74q-25 -56 -65.5 -90.5t-65.5 -34.5q-5 0 -9 1q-37 10 -37 64q0 28 12 61q31 90 110 129 q18 9 20 7l-12 -12q-61 -64 -90 -164q-9 -31 -9 -49q0 -26 17 -26q23 0 58 52q39 57 57 123q7 25 7 42q0 27 -18 44q-13 12 -15 17q-4 10 7 15q3 1 5 1q7 0 13 -11.5t17 -22.5q8 -9 24 -12q9 -1 19 1t10 1z" unicode="ó"/>
<glyph glyph-name="ocircumflex" d="M215 316q-2 -1 -8 5q-19 19 -27 36q-42 -24 -85 -39q-6 -2 -7 1q-2 3 4 5q35 24 90 72q7 6 9 6t4 -10q10 -43 20 -69q1 -3 2 -5zM222 259q0 -2 -9.5 -7t-19.5 -5q-11 0 -22 6q12 -23 12 -56q0 -37 -16 -74q-25 -56 -65.5 -90.5t-65.5 -34.5q-5 0 -9 1q-37 10 -37 64 q0 28 12 61q31 90 110 129q18 9 20 7l-12 -12q-61 -64 -90 -164q-9 -31 -9 -49q0 -26 17 -26q23 0 58 52q39 57 57 123q7 25 7 42q0 27 -18 44q-13 12 -15 17q-4 10 7 15q3 1 5 1q7 0 13 -11.5t17 -22.5q8 -9 24 -12q9 -1 19 1t10 1z" unicode="ô"/>
<glyph glyph-name="otilde" d="M230 363q-17 -37 -45 -37h-2q-10 1 -28.5 8t-27.5 8h-2q-13 0 -30 -13l-8 -4q-8 0 8 22.5t40 22.5h2q11 -1 29.5 -8t26.5 -8h5q17 0 26 12q2 5 4 5h2q2 -1 2 -3t-2 -5zM222 259q0 -2 -9.5 -7t-19.5 -5q-11 0 -22 6q12 -23 12 -56q0 -37 -16 -74q-25 -56 -65.5 -90.5 t-65.5 -34.5q-5 0 -9 1q-37 10 -37 64q0 28 12 61q31 90 110 129q18 9 20 7l-12 -12q-61 -64 -90 -164q-9 -31 -9 -49q0 -26 17 -26q23 0 58 52q39 57 57 123q7 25 7 42q0 27 -18 44q-13 12 -15 17q-4 10 7 15q3 1 5 1q7 0 13 -11.5t17 -22.5q8 -9 24 -12q9 -1 19 1t10 1z " unicode="õ"/>
<glyph glyph-name="odieresis" d="M134 345q0 -23 -23 -23t-23 23t23 23t23 -23zM218 345q0 -23 -23 -23t-23 23t23 23t23 -23zM222 259q0 -2 -9.5 -7t-19.5 -5q-11 0 -22 6q12 -23 12 -56q0 -37 -16 -74q-25 -56 -65.5 -90.5t-65.5 -34.5q-5 0 -9 1q-37 10 -37 64q0 28 12 61q31 90 110 129q18 9 20 7 l-12 -12q-61 -64 -90 -164q-9 -31 -9 -49q0 -26 17 -26q23 0 58 52q39 57 57 123q7 25 7 42q0 27 -18 44q-13 12 -15 17q-4 10 7 15q3 1 5 1q7 0 13 -11.5t17 -22.5q8 -9 24 -12q9 -1 19 1t10 1z" unicode="ö"/>
<glyph glyph-name="divide" horiz-adv-x="240" unicode="÷" d="M255 263q0 -5 -4.5 -10t-7.5 -4q0 2 -2 12.5t-19 10.5q-27 0 -56 -14q-85 -41 -133 -156q-16 -39 -17 -62q-1 -17 8 -17h1q19 0 56 41q20 22 77 105q11 17 29 42q12 11 34 21q11 3 11 1q0 -1 -8 -9q-17 -33 -42 -97q-27 -70 -83 -205t-150 -222q-103 -93 -212 -93 q-27 0 -42 12q-12 9 -12 21q0 4 1 6l14 -8q19 -10 47 -11h5q111 0 191 86q63 68 123 214q31 75 86 214q-28 -46 -65 -88q-40 -45 -65 -45h-1q-33 2 -33 49q0 31 17 69q44 98 144 138q46 18 76 18t32 -19z"/>
<glyph glyph-name="oslash" d="M158 240q-19 -34 -65 -113q-24 -41 -70 -113q5 -5 12 -5q23 0 59 52.5t57 122.5q7 25 7 46v10zM198 308l-30 -52q13 -28 13 -60q0 -35 -15 -71q-21 -51 -63 -90q-39 -37 -70 -37q-4 0 -9 1l-9 3l-33 -55l-2 10l29 49q-21 18 -21 56q0 28 12 62q29 84 106 128q24 14 31 14 q2 0 3 -2q0 -1 -7 -5q-10 -6 -18 -14q-61 -65 -88 -161q-9 -32 -9 -50q0 -6 1 -11q19 34 63 110q53 89 74 117q-2 11 -6.5 20t-3.5 9q4 1 12 -7q2 -2 6 -8l32 53z" unicode="ø"/>
<glyph glyph-name="ugrave" horiz-adv-x="244" unicode="ù" d="M222 314h-2q-14 0 -43 13.5t-45 28.5q-19 18 -19 30t12 12q14 0 31 -20l32 -36q20 -20 34 -28zM246 293q0 -2 -3 -9q-32 -50 -66 -141q-12 -33 -40 -100q27 27 56 43q12 6 13 3q1 -2 -6.5 -7t-37 -29t-64.5 -60q-2 -4 -3 -7q-3 -5 -6 -5h-1q-10 2 2 20q14 40 41 115 q-31 -48 -49 -69q-41 -46 -63 -46q-28 0 -28 26q0 34 35 118q15 35 55 107q-8 -2 -14 -2q-8 1 -16 4q2 1 20 5q36 9 48 17q4 2 6 1q1 -1 0 -5q-38 -72 -61 -127q-26 -62 -34 -95q-3 -10 -3 -18q0 -11 7 -13h2q11 0 39 31.5t66 96.5q4 5 6 14q22 52 37.5 82.5t33 41 t24.5 10.5q4 0 4 -2z"/>
<glyph glyph-name="uacute" horiz-adv-x="244" unicode="ú" d="M249 388q0 -12 -18.5 -28.5t-45.5 -29.5q-26 -13 -41 -13h-4q20 11 66 64q16 19 31 19q12 0 12 -12zM246 293q0 -2 -3 -9q-32 -50 -66 -141q-12 -33 -40 -100q27 27 56 43q12 6 13 3q1 -2 -6.5 -7t-37 -29t-64.5 -60q-2 -4 -3 -7q-3 -5 -6 -5h-1q-10 2 2 20q14 40 41 115 q-31 -48 -49 -69q-41 -46 -63 -46q-28 0 -28 26q0 34 35 118q15 35 55 107q-8 -2 -14 -2q-8 1 -16 4q2 1 20 5q36 9 48 17q4 2 6 1q1 -1 0 -5q-38 -72 -61 -127q-26 -62 -34 -95q-3 -10 -3 -18q0 -11 7 -13h2q11 0 39 31.5t66 96.5q4 5 6 14q22 52 37.5 82.5t33 41 t24.5 10.5q4 0 4 -2z"/>
<glyph glyph-name="ucircumflex" horiz-adv-x="244" unicode="û" d="M227 314q-2 -1 -8 5q-19 19 -27 36q-42 -24 -85 -39q-6 -2 -7 1q-2 3 4 5q35 24 90 72q7 6 9 6t4 -10q10 -43 20 -69q1 -3 2 -5zM246 293q0 -2 -3 -9q-32 -50 -66 -141q-12 -33 -40 -100q27 27 56 43q12 6 13 3q1 -2 -6.5 -7t-37 -29t-64.5 -60q-2 -4 -3 -7q-3 -5 -6 -5 h-1q-10 2 2 20q14 40 41 115q-31 -48 -49 -69q-41 -46 -63 -46q-28 0 -28 26q0 34 35 118q15 35 55 107q-8 -2 -14 -2q-8 1 -16 4q2 1 20 5q36 9 48 17q4 2 6 1q1 -1 0 -5q-38 -72 -61 -127q-26 -62 -34 -95q-3 -10 -3 -18q0 -11 7 -13h2q11 0 39 31.5t66 96.5q4 5 6 14 q22 52 37.5 82.5t33 41t24.5 10.5q4 0 4 -2z"/>
<glyph glyph-name="udieresis" horiz-adv-x="244" unicode="ü" d="M155 345q0 -23 -23 -23t-23 23t23 23t23 -23zM239 345q0 -23 -23 -23t-23 23t23 23t23 -23zM246 293q0 -2 -3 -9q-32 -50 -66 -141q-12 -33 -40 -100q27 27 56 43q12 6 13 3q1 -2 -6.5 -7t-37 -29t-64.5 -60q-2 -4 -3 -7q-3 -5 -6 -5h-1q-10 2 2 20q14 40 41 115 q-31 -48 -49 -69q-41 -46 -63 -46q-28 0 -28 26q0 34 35 118q15 35 55 107q-8 -2 -14 -2q-8 1 -16 4q2 1 20 5q36 9 48 17q4 2 6 1q1 -1 0 -5q-38 -72 -61 -127q-26 -62 -34 -95q-3 -10 -3 -18q0 -11 7 -13h2q11 0 39 31.5t66 96.5q4 5 6 14q22 52 37.5 82.5t33 41 t24.5 10.5q4 0 4 -2z"/>
<glyph glyph-name="yacute" horiz-adv-x="251" unicode="ý" d="M235 388q0 -12 -18.5 -28.5t-45.5 -29.5q-26 -13 -41 -13h-4q20 11 66 64q16 19 31 19q12 0 12 -12zM240 256q0 -14 -5 -31q-17 -57 -46 -123q-57 -130 -124 -213q-70 -86 -160 -141q-93 -57 -166 -57q-29 0 -48 19q-8 9 -8 14q0 3 3 5q-1 -1 9 -8q17 -12 49 -12 q79 0 144.5 42.5t146.5 146.5q67 87 130 236q-21 -32 -70 -77.5t-64 -67.5q-6 -9 -13 -7q-16 4 -10 23q18 43 25 65q26 88 29 147v6q0 33 -21 33q-2 0 -14.5 -5.5t-13.5 -4.5q-3 4 14 14q27 15 45 15q29 0 29 -44v-11q-6 -71 -37 -154q-12 -31 -29 -62q33 34 92 97 q60 71 93 170q2 7 3 16q0 6 2 6q4 0 9 -9q6 -12 6 -28z"/>
<glyph glyph-name="thorn" horiz-adv-x="252" unicode="þ" d="M-37 -48q-43 -67 -75 -145q-14 -34 -29 -106q2 3 47 103q3 6 57 148zM131 58q-4 -1 -16 -3t-17 -4q0 -22 4 -42q12 12 29 49zM265 512q0 -1 -5 -4q-9 -5 -18 -14q-65 -66 -126 -219l-88 -232q45 85 90 152q59 87 96 87h2q17 -1 17 -24q0 -5 -1 -10q-9 -73 -63 -175 q7 1 22.5 4t16.5 2q1 -4 -16 -10q-6 -2 -28 -7q-16 -26 -52 -62q-9 -11 -17 -11q-13 0 -13 20v6q3 13 8 45l5 4q27 0 42 5q14 32 35 100q19 63 21 94q-32 -13 -119 -157q-37 -62 -70 -138q-23 -58 -69 -162q-29 -61 -65 -114q-14 -20 -23 -20h-2q-1 1 -1 5q0 7 3 23 q13 62 32 111q34 86 92 171q13 34 46 124q44 129 66 180q62 143 144 211q11 10 21 13.5t13 3.5q4 0 4 -2z"/>
<glyph glyph-name="OE" horiz-adv-x="774" unicode="Œ" d="M633 520v8q0 38 -9 69q-21 3 -69 3q-137 0 -227 -55q-118 -72 -195 -213q-65 -119 -65 -223v-15q6 -152 147 -152q104 0 207 100q-72 51 -77 55q-9 6 -25 13.5t-25 7.5q-6 0 -11 -3q-4 -2 -4 -10q0 -17 12 -39q13 -25 33 -39q-59 18 -59 64q0 21 14 31q12 8 29 8 q9 0 19 -2q48 -12 117 -63q35 40 70 96q44 70 67 127q-16 5 -39 13q-7 2 -10.5 9t-1.5 11q3 5 7 4q15 -5 29 -10q4 -1 23 -7q39 98 43 212zM978 -65q1 0 1 -3t-2 -10q-7 -26 -37 -47q-38 -27 -92 -27q-140 0 -313 114q-32 23 -85 60q-103 -90 -227 -90q-96 0 -145 58 q-44 54 -44 149q0 114 49 205q71 131 207 206q109 60 266 64h25q23 0 38 -1q-4 15 -24 43q-4 5 -2 7q1 1 3 1q5 0 15 -7q26 -20 39 -44q76 -5 135 -20q99 -26 165 -76q18 -14 12 -18q1 1 -13 9q-72 44 -187 70q-63 14 -107 17q11 -34 12 -75v-20q0 -99 -35 -202 q52 -13 80 -18q39 -7 114 -15q9 0 8 -3q-1 -4 -17 -5h-20q-56 0 -116 9q-31 5 -56 11q-26 -66 -65 -128q-35 -56 -86 -104q21 -14 68 -47q189 -134 310 -134q82 0 119 63q4 9 7 8z"/>
<glyph glyph-name="oe" horiz-adv-x="297" unicode="œ" d="M294 256q0 10 -12 10q-31 0 -65 -48q10 -6 24 -6h2q19 0 35 14.5t16 29.5zM319 259q0 -19 -16 -34q-23 -22 -53 -22q-5 0 -10 1q-18 2 -28 7q-10 -11 -25 -43q-26 -53 -38 -99q-5 -20 -5 -33q0 -20 12 -25q2 -1 5 -1q12 0 31 15.5t35 43.5q14 24 23 59q3 11 6 11t2 -10 q-1 -28 -21 -63q-40 -69 -82 -69h-7q-31 5 -31 50v8q-47 -57 -82 -57q-5 0 -11 1q-36 9 -36 62q0 28 12 63q30 91 110 130q21 10 27 10q2 0 3 -1q0 -1 -6 -5q-10 -5 -19 -14q-62 -66 -88 -160q-10 -34 -10 -51q0 -20 13 -24q3 -1 5 -1q20 0 50.5 40.5t55.5 108.5 q17 45 17 75q0 6 -1 12q-1 12 -8 27q-4 8 -3 8h2q4 0 12 -8q7 -7 12 -18q10 -22 10 -44q55 67 113 67h2q22 0 22 -17z"/>
<glyph glyph-name="Scaron" horiz-adv-x="808" unicode="Š" d="M777 800q1 -3 -4 -5q-34 -23 -91 -72q-7 -6 -9 -6t-4 10q-10 43 -20 69q-1 3 -1 5q0 1 1 2h1q2 0 7 -5q19 -19 27 -36q41 23 85 39q7 2 8 -1zM779 195q-59 -78 -160 -144q-193 -126 -426 -126q-89 0 -146 34q-65 40 -65 115v9q4 84 71.5 162t173.5 124q117 51 249 51h19 q64 -2 105 -23q44 -22 44 -60v-6q-4 -39 -43.5 -79t-95.5 -67q-91 -44 -184 -44q-39 0 -39 20v1q1 23 32 28q14 2 14 -3q0 -3 -13 -6q-24 -6 -24 -18q0 -9 29 -9q63 0 170 52q136 66 141 128v4q0 60 -135 60q-122 0 -254 -58q-99 -43 -168 -110q-77 -75 -80 -148v-9 q0 -69 61 -102q52 -29 138 -29q188 0 407 138q231 146 235 285v4q0 58 -58 75q-32 10 -104 10q-18 0 -39 -1h-14q-72 0 -118 19q-51 21 -51 64v6q5 59 92 97q74 31 154 31h10q38 -1 71.5 -11t33.5 -23v-1q-1 -13 -24 -13q-11 0 -12 4q-1 3 8.5 7t9.5 7q0 7 -44 7.5t-47 0.5 q-82 0 -155 -27q-84 -30 -88 -76v-3q0 -32 61 -42q27 -4 113 -4q212 0 212 -127q0 -85 -67 -174z"/>
<glyph glyph-name="scaron" horiz-adv-x="173" unicode="š" d="M250 399q0 -2 -4 -4q-34 -23 -91 -72q-7 -6 -9 -6t-4 10q-10 43 -20 69q-1 3 -1 5q0 1 1 2h1q2 0 7 -5q19 -19 27 -36q41 23 85 39q8 2 8 -2zM192 264q0 -24 -34 -40q10 18 10 36q0 17 -10 19q-3 1 -6 1q-22 0 -30 -32q-5 -18 -5 -50q-2 -58 -2 -62q-4 -74 -51 -118 q-36 -35 -74 -35h-6q-37 3 -37 33q0 5 1 11q6 39 52 64q24 13 32 13q3 0 4 -1q0 -1 -8 -5q-11 -7 -21 -15q-26 -22 -31 -53q-2 -7 -2 -13q0 -21 20 -24h5q29 0 51 40t24 105q2 72 17 105q20 45 65 45h4q32 -1 32 -24z"/>
<glyph glyph-name="Ydieresis" horiz-adv-x="695" unicode="Ÿ" d="M629 665q0 -23 -23 -23t-23 23t23 23t23 -23zM713 665q0 -23 -23 -23t-23 23t23 23t23 -23zM802 528q-15 -37 -44 -74q-43 -141 -89 -242q-120 -262 -285 -414q-178 -164 -353 -164q-38 0 -60 19q-17 13 -17 28q0 4 2 5q-2 -1 16 -11q23 -12 66 -14h14q82 0 153 33 q70 33 147 108q148 144 286 440q24 50 75 162q-99 -169 -249 -300q-131 -114 -217 -142q-19 -6 -33 -6q-10 0 -16 3q-13 6 -13 24q0 14 8 30q6 13 73.5 118.5t102.5 176.5q73 151 73 243v14q-6 96 -103 100h-9q-81 0 -165 -53q-70 -44 -118 -105q-53 -66 -53 -124v-6 q2 -44 46 -46h3q28 0 63 16q13 6 13 5q2 -4 -11 -11q-36 -19 -68 -19q-57 0 -60 54v8q0 60 41 125q40 62 96 100q98 66 208 66h13q70 -2 111 -44t41 -107q0 -93 -73 -230q-33 -63 -175 -276q-16 -24 -16 -35q0 -3 1 -5q3 -5 11 -5q9 0 25 7q80 35 197 137q151 132 266 331 q14 39 37 86q14 28 28 28q2 0 8.5 -2t6.5 -14q0 -7 -4 -18z"/>
<glyph glyph-name="circumflex" horiz-adv-x="275" unicode="ˆ" d="M280 316h-1q-2 0 -7 5q-19 19 -27 36q-42 -24 -85 -39q-6 -2 -7 1l-1 1q0 2 5 4q35 24 90 72q7 6 9 6t4 -10q10 -43 20 -69q1 -3 2 -5z"/>
<glyph glyph-name="tilde" horiz-adv-x="275" unicode="˜" d="M291 363q-17 -37 -45 -37h-2q-10 1 -28.5 8t-27.5 8h-2q-13 0 -30 -13l-8 -4q-3 0 -3 2q0 5 13.5 24t37.5 19h2q11 -1 29.5 -8t26.5 -8h5q17 0 26 12q2 5 4 5h2q1 -1 1 -3t-1 -5z"/>
<glyph glyph-name="pi" horiz-adv-x="435" unicode="π" d="M460 252q-5 -31 -41 -53q-9 -6 -12 -3q-6 3 2 15q11 16 11 19q3 16 -7 18q-9 2 -18 -7q-19 -16 -31 -29q-27 -29 -51 -68q-26 -57 -71 -135q-3 -2 -10.5 -10t-20.5 -13q-5 -2 -9 -2q-5 0 -7 3q1 -1 9 11q21 34 58 124q26 62 26 100q0 68 -53.5 69.5t-58.5 1.5 q-93 0 -144 -48q-27 -26 -27 -63t33 -53q7 -4 21 -6q-7 -8 -20 -8q-23 1 -37 17t-14 39q0 42 36 76q64 60 162 60h3q135 -1 135 -86q0 -7 -1 -14q-3 -26 -16 -58q35 52 56 75q26 28 47 41q18 11 31 11q20 0 20 -17q0 -3 -1 -7zM195 -13v0v0z"/>
<glyph glyph-name="afii10023" horiz-adv-x="628" unicode="Ё" d="M647 745q0 -23 -23 -23t-23 23t23 23t23 -23zM731 745q0 -23 -23 -23t-23 23t23 23t23 -23zM841 481q1 1 -13 9q-50 30 -226 83q-27 -58 -85 -176q-17 -36 -51 -101q35 -8 78 -16q76 -14 114 -15q9 0 8 -3q-1 -5 -17 -5h-14q-80 0 -179 20q-86 -153 -156 -221 q23 -17 71 -51q103 -72 166 -103q76 -37 140 -37q84 0 119 62q5 9 7 8q4 -2 -2 -13q-9 -26 -37 -47q-37 -27 -91 -27q-143 0 -319 126q-28 20 -80 58q-91 -75 -174 -75h-6q-46 2 -69 25q-16 16 -16 34q0 5 2 6q18 -24 33 -32q23 -12 56 -14h12q48 0 87 21q31 17 58 47 q-45 34 -89 67q-71 51 -93 56q-20 5 -20 -5q0 -18 36 -54q42 -41 90 -53q-62 3 -103 39q-34 30 -34 60q0 13 8 18q13 9 28 9q7 0 14 -2q61 -16 186 -108q50 58 132 218q-16 5 -40 13q-18 9 -13 19q4 6 28 -1l34 -12q9 17 48 93q67 132 95 182q-128 38 -244 38 q-182 0 -182 -118q0 -28 31 -66q26 -32 57 -53q7 -7 7 -8q-1 -3 -13 4q-107 61 -116 114q-2 10 -2 18q0 70 90 102q64 22 153 22q21 0 36 -1q101 -9 195 -32q28 49 55 74q17 16 30 22t17 6q2 0 3 -1l-17 -20q-26 -32 -52 -90q139 -37 218 -97q12 -9 12 -14q0 -1 -1 -2z"/>
<glyph glyph-name="afii10053" horiz-adv-x="743" unicode="Є" d="M290 -73h-17q-125 0 -193 43q-77 47 -77 145q0 9 1 19q7 92 71 188l18 26l-25 5q-21 7 -16 19q2 3 11 3q8 0 20 -2q8 -2 26 -5q45 55 105 102q91 72 202 117q99 40 184 48q18 2 37 2q137 0 152 -69q2 -10 2 -19q0 -55 -65 -92q-60 -35 -133 -35q-48 0 -82 15 q-25 12 -39 30q-11 15 -8 19l12 -12q16 -17 39 -27q33 -15 78 -15q60 0 105 29q51 33 51 83q0 11 -3 22q-14 60 -119 60q-15 0 -31 -1q-69 -6 -156 -45q-104 -46 -191 -121q-54 -46 -93 -99q9 -1 19 -3q39 -6 89 -10q58 -4 96 -4q19 0 34 1q10 1 9 -2q0 -5 -18 -7 q-46 -5 -98 -5q-57 0 -121 6q-13 2 -25 4q-10 -15 -19 -30q-56 -91 -61 -177q-1 -8 -1 -17q0 -88 60 -132q57 -42 164 -42h10q154 3 280 73q106 59 120 147q2 15 0 29q-3 18 -4 18q8 4 21 -14q8 -14 8 -29q0 -84 -141 -162q-134 -74 -288 -77zM690 209v0v0z"/>
<glyph glyph-name="afii10054" horiz-adv-x="263" unicode="Ѕ" d="M61 184q-31 -39 -50.5 -86.5t-19.5 -95.5q13 21 38 93q16 44 32 89zM238 257q0 16 -23 16q-43 0 -98 -50q20 -5 43 -5h14q26 2 45 13.5t19 25.5zM835 754v9q0 38 -22 62q-28 28 -82 28q-147 0 -332 -192q-136 -141 -224 -305q42 -13 108 -13q85 0 191 38q102 36 167 86 q183 140 194 287zM865 749q-8 -149 -211 -299q-68 -50 -169 -83q-106 -35 -202 -35q-71 0 -112 16q-40 -78 -56 -118q63 60 123 60q40 0 40 -25q0 -22 -32 -38.5t-72 -17.5q-24 0 -36 3q9 -73 46 -171q66 -176 153 -179h3q68 0 79 79l5 -1q9 -11 8 -24q-2 -29 -31.5 -45 t-66.5 -16h-5q-52 1 -101 52q-45 46 -77 123q-39 93 -45 177q-46 -125 -88 -193q-5 -8 -14 -20q-6 -8 -14 -7q-10 3 -10 21q0 41 18 84q23 56 69 108q37 96 72 160q-29 15 -38 37q-5 13 1 13q-1 0 8 -14q10 -17 33 -28q96 172 225 302q80 81 173 133q105 59 192 59 q62 0 97 -30.5t35 -75.5v-7z"/>
<glyph glyph-name="uni0406" horiz-adv-x="425" unicode="І" d="M572 564q-1 -5 -17 -3q-10 2 -31 6q-7 -77 -50 -180q-71 -169 -178 -306q-74 -94 -140 -147q-45 -35 -76 -35q-6 0 -12 1q-28 7 -28 42q0 58 51 110q16 17 27 22q-9 -11 -16 -24q-36 -72 -36 -122q0 -20 13 -20q24 0 52 26q59 56 125 152q98 142 170 305q43 97 69 184 q-63 13 -124 30q-129 35 -212 43q-11 1 -21 1q-44 0 -77 -18q-54 -28 -54 -94q0 -7 1 -14q2 -29 29 -67q21 -30 44 -49q7 -9 6.5 -10.5t-10.5 5.5q-93 62 -104 113q-4 17 -4 32q0 70 81 98q45 15 103 15h7q75 -1 171 -26l166 -48q1 10 1 18t-1 15q-2 8 1 9q6 3 16 -14 t11 -36q3 -1 30 -9z"/>
<glyph glyph-name="afii10056" horiz-adv-x="425" unicode="Ї" d="M484 705q0 -23 -23 -23t-23 23t23 23t23 -23zM568 705q0 -23 -23 -23t-23 23t23 23t23 -23zM572 564q-1 -5 -17 -3q-10 2 -31 6q-7 -77 -50 -180q-71 -169 -178 -306q-74 -94 -140 -147q-45 -35 -76 -35q-6 0 -12 1q-28 7 -28 42q0 58 51 110q16 17 27 22q-9 -11 -16 -24 q-36 -72 -36 -122q0 -20 13 -20q24 0 52 26q59 56 125 152q98 142 170 305q43 97 69 184q-63 13 -124 30q-129 35 -212 43q-11 1 -21 1q-44 0 -77 -18q-54 -28 -54 -94q0 -7 1 -14q2 -29 29 -67q21 -30 44 -49q7 -9 6.5 -10.5t-10.5 5.5q-93 62 -104 113q-4 17 -4 32 q0 70 81 98q45 15 103 15h7q75 -1 171 -26l166 -48q1 10 1 18t-1 15q-2 8 1 9q6 3 16 -14t11 -36q3 -1 30 -9z"/>
<glyph glyph-name="afii10062" horiz-adv-x="695" unicode="Ў" d="M831 692q-25 -25 -46.5 -47.5t-54.5 -36.5q-26 -13 -47 -13q-20 0 -36 12q-13 9 -13 25q0 18 16 44q10 19 21 15l-4 -14q-1 -6 -1 -12q0 -17 14 -27q12 -8 29.5 -5.5t36.5 10.5t37 19t31 20t16 12l4 2q1 0 -3 -4zM802 528q-15 -37 -44 -74q-43 -141 -89 -242 q-120 -262 -285 -414q-178 -164 -353 -164q-38 0 -60 19q-17 13 -17 28q0 4 2 5q-2 -1 16 -11q23 -12 66 -14h14q82 0 153 33q70 33 147 108q148 144 286 440q24 50 75 162q-99 -169 -249 -300q-131 -114 -217 -142q-19 -6 -33 -6q-10 0 -16 3q-13 6 -13 24q0 14 8 30 q6 13 73.5 118.5t102.5 176.5q73 151 73 243v14q-6 96 -103 100h-9q-81 0 -165 -53q-70 -44 -118 -105q-53 -66 -53 -124v-6q2 -44 46 -46h3q28 0 63 16q13 6 13 5q2 -4 -11 -11q-36 -19 -68 -19q-57 0 -60 54v8q0 60 41 125q40 62 96 100q98 66 208 66h13q70 -2 111 -44 t41 -107q0 -93 -73 -230q-33 -63 -175 -276q-16 -24 -16 -35q0 -3 1 -5q3 -5 11 -5q9 0 25 7q80 35 197 137q151 132 266 331q14 39 37 86q14 28 28 28q2 0 8.5 -2t6.5 -14q0 -7 -4 -18z"/>
<glyph glyph-name="afii10017" horiz-adv-x="800" unicode="А" d="M803 642q-2 -6 -12 -25q-19 -35 -29 -50q6 -1 16.5 -4t15.5 -5q5 33 9 84zM931 526q-1 -5 -23 -1q-43 7 -75 14q-2 -16 -7 -46q-27 -142 -58 -238q-28 -85 -85 -200q48 53 84 66q8 3 8 -2q0 -2 -5 -4t-7 -4q-34 -22 -76 -72q-20 -23 -47 -59q-14 -18 -26 -18q-9 0 -2 13 q7 15 17 39q45 100 91 244q44 137 61 223q9 43 12 66q-11 2 -38 7q-106 -167 -227 -295q22 -6 56 -14q54 -12 109 -16q11 -1 10 -2q0 -5 -17 -5h-20q-60 0 -116 10q-16 3 -39 10q-81 -80 -174 -149q-213 -159 -352 -170q-14 -1 -25 -1q-66 0 -72 33q-1 3 -1 6q0 20 23 39 q23 21 60 32q13 4 15 2q1 -2 -8 -6q-53 -21 -53 -59q0 -36 54 -36h9q125 7 327 168q85 68 167 150q-15 5 -31 12q-21 9 -16 20q3 6 10 6q9 0 33 -10q8 -3 22 -9q120 121 241 288l-164 33q-143 30 -171 35q-86 17 -166 25q-24 3 -48 3q-172 0 -172 -99v-8q2 -26 37 -61 q29 -28 63 -48l8 -7q-2 -2 -14 3q-116 51 -130 106q-3 12 -3 23q0 58 85 83q59 18 148 18q22 0 40 -1q111 -7 332 -54q46 -10 163 -39q19 26 35.5 52.5t19.5 48.5q1 7 1 24q0 10 4 10q15 0 22 -36q6 -31 6 -72q0 -23 -2 -48q31 -8 76 -17q21 -4 21 -6z"/>
<glyph glyph-name="afii10018" horiz-adv-x="792" unicode="Б" d="M466 296l-10 -19q-86 -153 -156 -221l-26 -24q-55 -44 -106 -63q30 -23 75 -35.5t100 -12.5q78 0 148.5 20.5t124 57.5t85 88t31.5 112q0 41 -17 73.5t-46.5 56t-70.5 37t-89 15.5q-16 -33 -43 -85zM638 637h-5q-10 -19 -21 -43l-10 -21q-27 -58 -85 -176q-2 -3 -3 -7 q29 -2 62 -7.5t57 -14.5q69 -24 110.5 -71t41.5 -105q0 -61 -37 -112.5t-98.5 -89t-141.5 -58.5t-166 -21q-63 0 -114 13.5t-85 37.5q-21 -5 -42 -5h-7q-46 2 -69 25q-16 16 -16 34q0 5 2 6q18 -24 33 -32q23 -12 56 -14q14 -1 27 0q-34 32 -34 75q1 20 12 39t28.5 35 t40.5 27.5t49 15.5q7 0 7 -4q0 -3 -7 -3q-20 -5 -38 -16t-31.5 -26t-21.5 -33t-8 -36q0 -40 31 -69q23 5 44 16q31 17 58 47l23 27q50 58 132 218l9 19q8 14 38 73l-34 -4q-58 -12 -58 -36q0 -7 4.5 -15t15.5 -15q-30 2 -38.5 13t-8.5 21q0 27 91 42l33 4l5 10 q67 132 95 182l12 20q12 22 25 39q-81 11 -128 13.5t-74 2.5t-51 -2q-44 -5 -82 -16t-66 -27.5t-44.5 -38.5t-17.5 -48v-5q0 -29 21.5 -58t73.5 -58q3 -2 5.5 -3.5t1.5 -2.5q0 -1 -1 -1q-2 0 -4.5 -0.5t-6.5 1.5q-76 31 -103.5 60t-27.5 61q0 31 20 56t55.5 43t85 30 t111.5 18q55 5 108 5q9 0 44 -0.5t96 -8.5l14 14q17 16 30 22t17 6q2 0 3 -1l-17 -20q-9 -11 -19 -26q16 -3 41 -8.5t52.5 -12.5t55.5 -15.5t50.5 -16.5t36.5 -15t14 -12l-32 9q-29 7 -60 15t-61 14.5t-57 12t-47 8.5z"/>
<glyph glyph-name="afii10019" horiz-adv-x="738" unicode="В" d="M333 390q-56 -11 -57 -33q-3 -15 34 -15q8 16 23 48zM510 379q-41 14 -104 16q-14 0 -25 -1l-24 -51q59 1 153 36zM636 529q1 6 1 11q0 33 -28.5 52.5t-80.5 19.5q-31 0 -43 -1q-36 -73 -99 -208q7 1 21 1q63 0 121 -15q39 17 68 51q34 39 40 89zM697 161 q-28 -109 -163 -176q-123 -61 -274 -61q-99 0 -169 33q-80 37 -80 104q0 45 43 81q38 32 87 39q7 0 7 -4q0 -3 -7 -3q-40 -9 -69.5 -41t-29.5 -70q0 -61 69 -97q62 -32 150 -32q138 0 242 59q111 63 140 169q7 26 7 50q0 60 -39 106q-34 39 -83 55q-46 -18 -88 -28t-88 -12 q0 -1 -37 -73q-47 -93 -94 -156q-48 -65 -71 -65h-1q-15 1 -15 16q0 4 1 9q3 13 12 21.5t13 5.5q3 -2 1 -7q-4 -11 -6 -19q-3 -14 2 -14q11 0 22 27q29 49 128 256q-59 4 -59 24q0 28 91 42q59 119 111 209q-69 -5 -184 -5q-140 0 -140 49q0 3 1 7q5 27 63 44q44 13 85 13 q10 0 21 -1q25 -2 25 -5q0 -2 -16 -2h-7l-75 -9q-59 -15 -59 -47q0 -40 102 -40q18 0 191 8q19 29 37 43q25 15 28 11q1 -2 -11 -15q-7 -11 -21 -37q21 2 36 2h6q73 0 115 -23t42 -72q0 -48 -54 -95q-36 -31 -84 -54q66 -23 106 -66q46 -48 46 -110q0 -21 -6 -44z"/>
<glyph glyph-name="afii10020" horiz-adv-x="599" unicode="Г" d="M931 507l-30 11q-58 21 -107 37.5t-89 26.5q-4 -43 -17.5 -91.5t-38.5 -102.5q-77 -170 -183 -297q-30 -36 -71.5 -68.5t-87 -56.5t-91 -38t-84.5 -14q-89 0 -131.5 30t-42.5 90q0 19 6.5 36t12.5 17q1 0 1 -1q0 -2 -2.5 -10t-2.5 -21q0 -29 11.5 -53.5t33 -42t51 -27 t65.5 -9.5q33 0 69 12t73 34t72.5 52.5t66.5 67.5q99 120 185 302q29 63 48.5 112.5t27.5 86.5q-94 23 -165.5 34.5t-122.5 11.5q-43 0 -80 -7.5t-64 -22t-42 -35.5t-15 -48q0 -33 23 -65t77 -66q7 -7 7 -8t-1 -1q-4 0 -11 4q-38 19 -64 36.5t-42 34.5t-23 34t-7 34 q0 58 70 89t192 31q70 0 137.5 -9t134.5 -24q-1 4 -1 8v8v12t2 12q4 0 12.5 -13.5t11.5 -33.5q14 -4 36.5 -11.5t47.5 -17t50.5 -20t45.5 -20t33 -17.5t13 -13z"/>
<glyph glyph-name="afii10021" horiz-adv-x="945" unicode="Д" d="M888 280q13 45 13 91q0 114 -74 166.5t-235 52.5q-37 0 -77 -3q-117 -187 -179 -272q-48 -61 -135 -182q2 -2 79 -71q138 -124 244 -124q75 0 127.5 22t108.5 81q84 88 128 239zM944 277q-34 -144 -154 -254q-106 -97 -270 -97q-139 0 -260 104q-45 39 -79 74 q-25 -33 -58 -89.5t-43 -84.5q-6 -17 -10 -17t4 27q21 72 86 185q-27 34 -50 57q-15 -11 -28 -43q-37 -92 -38 -153v-6q0 -49 15 -75q6 -10 2 -10l-3 1q-2 0 -9 13q-20 32 -20 79q0 91 33 168q18 43 31 44q9 1 30 -5.5t56 -41.5q48 89 124 198q27 38 189 235 q-79 -8 -158 -17q-98 -10 -176 -11h-7q-48 0 -85 13q-47 17 -47 47q0 38 68 58q44 12 83 12h16q40 -2 36 -10q0 1 -26 2h-12q-35 0 -71 -10q-57 -16 -57 -50q0 -44 111 -44q118 0 334 22l16 24l-26 -5q22 18 49 42q18 13 20 12q4 -2 -4 -18.5t-33 -52.5q40 4 78 4 q156 0 245 -54q107 -64 107 -201q0 -36 -9 -72z"/>
<glyph glyph-name="afii10022" horiz-adv-x="628" unicode="Е" d="M841 481q1 1 -13 9q-50 30 -226 83q-27 -58 -85 -176q-17 -36 -51 -101q35 -8 78 -16q76 -14 114 -15q9 0 8 -3q-1 -5 -17 -5h-14q-80 0 -179 20q-86 -153 -156 -221q23 -17 71 -51q103 -72 166 -103q76 -37 140 -37q84 0 119 62q5 9 7 8q4 -2 -2 -13q-9 -26 -37 -47 q-37 -27 -91 -27q-143 0 -319 126q-28 20 -80 58q-91 -75 -174 -75h-6q-46 2 -69 25q-16 16 -16 34q0 5 2 6q18 -24 33 -32q23 -12 56 -14h12q48 0 87 21q31 17 58 47q-45 34 -89 67q-71 51 -93 56q-20 5 -20 -5q0 -18 36 -54q42 -41 90 -53q-62 3 -103 39q-34 30 -34 60 q0 13 8 18q13 9 28 9q7 0 14 -2q61 -16 186 -108q50 58 132 218q-16 5 -40 13q-18 9 -13 19q4 6 28 -1l34 -12q9 17 48 93q67 132 95 182q-128 38 -244 38q-182 0 -182 -118q0 -28 31 -66q26 -32 57 -53q7 -7 7 -8q-1 -3 -13 4q-107 61 -116 114q-2 10 -2 18q0 70 90 102 q64 22 153 22q21 0 36 -1q101 -9 195 -32q28 49 55 74q17 16 30 22t17 6q2 0 3 -1l-17 -20q-26 -32 -52 -90q139 -37 218 -97q12 -9 12 -14q0 -1 -1 -2z"/>
<glyph glyph-name="afii10024" horiz-adv-x="1014" unicode="Ж" d="M565 334h-12q-7 0 -15 1h-24q-118 0 -210.5 -31.5t-156 -78t-96.5 -100.5t-33 -100q0 -80 96 -80q116 0 272 150q83 80 179 239zM1173 602q-51 -1 -98 -25.5t-89 -66t-78 -96.5q-35 -53 -62 -113q38 -12 81 -30q9 -5 9 -7q0 -1 -2 -1q-4 0 -11 3q-6 3 -18.5 7t-25 8.5 t-23.5 7.5q-10 3 -14 4q-11 -19 -19 -41q-9 -24 -15 -49t-9 -49.5t-3 -45.5q0 -55 27 -82t63 -27q18 0 37 8t39 22q6 5 8 5l1 -1q0 -2 -10 -14q-61 -47 -107 -47q-39 0 -66.5 31t-27.5 82q0 43 12 90t30 92q7 17 15 34q-36 9 -76 17q-8 -19 -18 -40q-16 -35 -41.5 -78 t-60.5 -94q11 11 23.5 22t24.5 20t23.5 15t20.5 6q2 0 2 -2l-16 -10q-23 -15 -48.5 -38t-47.5 -45q-26 -26 -50 -54q-2 0 -2 3q0 4 2 7l23 40q29 51 57.5 110.5t63.5 128.5q4 7 7 15q-43 6 -90 8q-88 -144 -197 -249q-36 -34 -75 -61.5t-78.5 -46.5t-78.5 -29.5t-73 -10.5 q-107 0 -107 96q0 61 35.5 118.5t101 102.5t158.5 72t208 27q14 0 30.5 -0.5t34.5 -1.5q48 78 76 142t45 111q-56 12 -104 25t-90 23t-78.5 16.5t-67.5 6.5q-61 0 -98.5 -31t-37.5 -85q0 -26 18 -61.5t52 -64.5q6 -6 6 -8t-2 -2q-3 0 -8 5q-31 22 -51 41t-31.5 36t-16 32.5 t-4.5 31.5q0 58 52 87.5t149 29.5q21 0 60.5 -6.5t84.5 -16.5t90.5 -22.5t80.5 -24.5q2 8 4 22.5t7 15.5q6 0 9 -16.5t3 -29.5q4 -1 16.5 -4.5t26 -7.5t23.5 -7l11 -3q-2 -3 -10 -3q-12 0 -30 5t-38 10q-4 -29 -14.5 -64.5t-25 -70t-30 -65.5t-28.5 -51q36 -3 71 -8 q8 -1 16 -3q17 35 32 73q21 52 44 110q2 3 6.5 16t11.5 27t17 25t23 11q3 0 3 -3t-0.5 -3.5t-2.5 -6t-6.5 -18t-13.5 -39.5q-11 -34 -21.5 -62.5t-21.5 -56.5t-25 -59q-5 -10 -9 -21l18 -4q28 -6 57 -15q11 23 23 45q24 42 47 75q27 41 62 75.5t73.5 59t78.5 38.5t77 14 q69 -1 100 -26.5t31 -76.5q0 -26 -14 -62t-39 -69t-58 -57t-71 -26q-7 0 -15.5 1.5t-16 4.5t-12.5 7t-5 9q0 2 2 2q8 0 23.5 -7t26.5 -7q32 0 59.5 19.5t47.5 48t31 61t11 58.5q0 50 -28.5 79t-79.5 29z"/>
<glyph glyph-name="afii10025" horiz-adv-x="738" unicode="З" d="M436 371q28 2 65 6t85 18q-39 17 -97 23q-3 0 -13.5 0.5t-22.5 0.5h-22h-13q-57 -8 -58 -30q0 -3 6.5 -7t17.5 -6.5t24.5 -4t27.5 -0.5zM625 398q17 -8 33 -20q18 -12 33 -29t26.5 -37.5t15.5 -44.5q4 -23 4 -47q0 -15 -3 -42t-19.5 -64.5t-44 -73t-67.5 -65.5 q-75 -56 -161 -73.5t-167 -17.5q-21 0 -42 1q-85 5 -144.5 45t-72.5 107q-5 22 -5 43q0 39 20 85t71 88t118.5 63.5t140.5 21.5q13 0 25 -1q67 -4 113.5 -26t54.5 -58q2 -9 2 -18q0 -26 -18 -53.5t-55 -52t-81.5 -37t-84.5 -12.5h-12q-36 3 -40 21q-2 11 6 18t23 6q6 0 8 -2 q0 -2 -5 -3.5t-10.5 -4t-9.5 -6t-3 -8.5q0 -6 27 -8h8q56 0 133 40q57 28 79.5 54.5t22.5 50.5q0 6 -1 11q-12 56 -132 62q-12 1 -24 1q-96 0 -191 -43q-44 -20 -79 -47t-57.5 -58.5t-29 -57t-6.5 -42.5q0 -16 4 -32q11 -60 63.5 -89.5t134.5 -34.5h15q34 0 82.5 8t105 27.5 t110.5 49.5t95.5 71.5t62 89t20.5 96.5q0 13 -1 26q-3 28 -17.5 48.5t-33 34.5t-36.5 21t-27 8q-46 -14 -84 -20.5t-77 -6.5h-11l-43 5q-52 9 -52 29q0 7 13 13.5t32.5 11t43 7.5t47.5 3q4 -1 8.5 -0.5t11.5 -0.5q30 -2 59 -9t56 -16q21 7 41.5 20.5t36.5 32t26.5 40.5 t13.5 46q1 6 1 11q0 28 -25.5 46t-71.5 22q-8 1 -19.5 1.5t-22.5 1t-20 0.5h-12q-34 1 -77.5 2.5t-99.5 6.5q-129 10 -129 56q0 14 13.5 24.5t33.5 18t41 10t38 2.5q11 0 23 -1q22 -2 33 -4.5t10 -4.5q0 -3 -15 -1q-7 0 -10 1q-12 1 -23 1q-14 0 -31.5 -2t-35.5 -8 t-29 -15.5t-11 -23.5q0 -37 93 -44q8 -1 54 -2.5t129 -4.5h16h20.5t20 -0.5t14.5 -0.5q72 -6 107 -30t35 -64q0 -5 -1 -11q-5 -39 -47 -75q-40 -34 -101 -57z"/>
<glyph glyph-name="afii10026" horiz-adv-x="761" unicode="И" d="M967 600q-10 -2 -26 -8q-35 -17 -77 -80q-35 -53 -75 -140q-65 -142 -108 -246q-28 -67 -59 -146q26 29 57 40q5 1 8 -1q0 -2 -6 -5q-9 -4 -12 -6q-24 -17 -45 -43q-30 -37 -33 -39q-7 -7 -12 -7h-2q-18 6 -11 24q38 103 75 191q-111 -182 -238 -182q-112 0 -218 99 q-71 -47 -136 -47q-18 0 -29 5t-11 9q0 1 1 2l12 -4q8 -3 18 -3q57 0 131 52q-9 8 -33 32q-27 28 -72 69q-12 9 -21 9q-5 0 -9 -2q-8 -4 -8 -12q0 -12 22.5 -37.5t42.5 -31.5q-40 0 -61 28q-11 15 -11 33t11 27q9 7 20 7q10 0 23 -6q33 -16 78 -56q17 -14 47 -40 q25 19 41 34q82 81 153 211q66 121 68 207v6q0 104 -110 106h-2q-76 0 -166 -92t-90 -170q0 -46 45 -46q34 0 65 17q12 7 13 6q3 -4 -11 -13q-36 -19 -67 -19q-56 0 -60 57v11q0 84 82 172q82 87 192 87h3q61 -1 102.5 -34t44.5 -88v-14q0 -91 -60 -204q-56 -104 -167 -202 q-15 -13 -60 -47q114 -101 191 -103h3q120 0 250 216q34 81 70 155q59 120 96 172q30 42 69 68q33 23 58 26q7 1 11 0t3 -4z"/>
<glyph glyph-name="afii10027" horiz-adv-x="761" unicode="Й" d="M831 692q-25 -25 -46.5 -47.5t-54.5 -36.5q-26 -13 -47 -13q-20 0 -36 12q-13 9 -13 25q0 18 16 44q10 19 21 15l-4 -14q-1 -6 -1 -12q0 -17 14 -27q12 -8 29.5 -5.5t36.5 10.5t37 19t31 20t16 12l4 2q1 0 -3 -4zM967 600q-5 -1 -11.5 -3t-14.5 -5q-35 -17 -77 -80 q-34 -51 -75 -140q-65 -143 -108 -246q-14 -34 -28.5 -70t-30.5 -76q27 30 57 40q4 1 8 -1q0 -2 -6 -5l-12 -6q-12 -8 -23 -19t-22 -24q-30 -38 -33 -39q-6 -7 -11 -7h-3q-18 6 -11 24q19 52 37.5 99t37.5 92q-111 -182 -238 -182q-112 0 -218 99q-71 -47 -136 -47 q-18 0 -29 5t-11 9q0 1 1 2l12 -4q7 -3 18 -3q58 0 131 52q-5 4 -13 12l-20 20q-27 28 -72 69q-13 9 -22 9q-5 0 -8 -2q-8 -4 -8 -12q0 -12 23 -37.5t42 -31.5q-40 0 -61 28q-11 16 -11 33q0 18 11 27q8 7 20 7q10 0 23 -6q17 -8 36 -22t42 -34q8 -7 20 -17t27 -23 q13 10 23 18t18 16q83 82 153 211q67 122 68 207v6q0 104 -110 106h-2q-75 0 -166 -92q-90 -92 -90 -170q0 -46 45 -46q33 0 65 17q12 7 13 6q3 -4 -11 -13q-35 -19 -67 -19q-56 0 -60 57v11q0 84 82 172q81 87 192 87h3q61 -1 102.5 -34t44.5 -88v-14q0 -91 -60 -204 q-56 -105 -167 -202q-8 -7 -22.5 -18.5t-37.5 -28.5q115 -102 191 -103h3q120 0 250 216q17 41 34.5 79.5t35.5 75.5q58 118 96 172q31 43 69 68q34 23 58 26q7 1 11 0t3 -4z"/>
<glyph glyph-name="afii10028" horiz-adv-x="699" unicode="К" d="M970 552q1 -11 -3 -22t-8 -11q1 0 -4 21q-9 39 -58 39q-62 0 -176 -81q-79 -56 -197 -162q-14 -12 -15 -19q-1 -5 8 -30q36 -98 82 -188q65 -125 105 -175q64 -80 134 -80q41 0 68 24q24 21 31 55q3 15 4 15q3 0 7.5 -10.5t2.5 -22.5q-5 -34 -42 -53q-32 -18 -73 -18 q-149 0 -280 247q-57 106 -86 207q-7 23 -4 30q1 5 19 20q103 89 225 173q139 96 201 96q61 0 59 -55zM618 663q0 -1 -5 -7q-10 -9 -17 -17q-21 -26 -36 -57q14 -6 19 -9q15 -7 13 -10q-1 -2 -3 -1q-11 4 -33 11q-30 -71 -125 -271q-89 -175 -187 -281q-109 -118 -202 -120 h-3q-32 0 -47 21q-10 13 -10 21q0 3 1 5q0 -1 13 -12q20 -16 56 -16q83 0 164 104q58 75 165 283q58 117 144 278q-55 19 -113 35q-106 29 -212 32h-10q-53 0 -89 -19q-57 -29 -57 -101v-10q1 -31 26 -71q20 -32 43 -52q8 -7 6 -9q-1 -2 -9 3q-92 63 -102 117q-3 15 -3 28 q0 78 87 110q50 18 118 18q80 0 204 -30q53 -13 117 -41q12 21 29 38t37.5 27t20.5 3z"/>
<glyph glyph-name="afii10029" horiz-adv-x="800" unicode="Л" d="M803 642q-2 -6 -12 -25q-19 -35 -29 -50q6 -1 16.5 -4t15.5 -5q5 33 9 84zM511 242q-81 -80 -174 -149q-213 -159 -352 -170q-14 -1 -25 -1q-66 0 -72 33q-1 3 -1 6q0 20 23 39q23 21 60 32q13 4 15 2q1 -2 -8 -6q-53 -21 -53 -59q0 -36 54 -36h9q125 7 327 168 q85 68 167 150l18 19q120 121 241 288l-164 33q-143 30 -171 35q-86 17 -166 25q-24 3 -48 3q-172 0 -172 -99v-8q2 -26 37 -61q29 -28 63 -48l8 -7q-2 -2 -14 3q-116 51 -130 106q-3 12 -3 23q0 58 85 83q59 18 148 18q22 0 40 -1q111 -7 332 -54q46 -10 163 -39 q19 26 35.5 52.5t19.5 48.5q1 7 1 24q0 10 4 10q15 0 22 -36q6 -31 6 -72q0 -23 -2 -48q31 -8 76 -17q21 -4 21 -6q-1 -5 -23 -1q-43 7 -75 14q-2 -16 -7 -46q-27 -142 -58 -238q-28 -85 -85 -200q48 53 84 66q8 3 8 -2q0 -2 -5 -4t-7 -4q-34 -22 -76 -72q-20 -23 -47 -59 q-14 -18 -26 -18q-9 0 -2 13q7 15 17 39q45 100 91 244q44 137 61 223q9 43 12 66q-11 2 -38 7q-106 -167 -244 -312z"/>
<glyph glyph-name="afii10030" horiz-adv-x="993" unicode="М" d="M740 629q-2 -3 -9 -16.5t-9 -17.5l7 -1q4 11 11 35zM1065 579q3 -7 3 -18q0 -23 -13 -63q-27 -81 -88 -235q-42 -104 -102 -216q55 62 89 73q5 1 8 -2q-5 -3 -16 -10q-32 -21 -74 -76q-19 -25 -52 -61q-20 -22 -21 -22q-17 5 -9 20t20 38q21 43 108 258q37 92 113 261 q7 15 12 31q4 13 2 13q-1 1 -8 -9.5t-20 -31.5q-48 -79 -153 -215q-62 -80 -183 -206q-50 -52 -125 -116q-20 -32 -37 -32q-2 0 -4 1q-4 1 -4 5q0 7 9 22q6 9 15 20q20 48 51 135q44 123 74 223l65 214l-10 1q-66 -110 -161 -230q-90 -112 -168 -188q-127 -123 -254 -192 q-112 -61 -185 -62h-4q-73 0 -81 35q-1 5 -1 9q0 21 23 42t56 30q16 4 17 2q0 -1 -8 -5q-26 -10 -42 -28.5t-16 -34.5q0 -4 1 -8q7 -29 61 -29q158 0 454 289q158 154 296 372q-29 5 -95 16q-173 29 -183 30q-100 15 -179 17h-20q-69 0 -119 -18q-78 -28 -78 -93v-10 q2 -28 36 -62q30 -31 63 -46q12 -5 11 -7q-1 -1 -14 3q-47 15 -87 43.5t-48 56.5q-4 15 -4 28q0 69 105 99q61 17 133 17q17 0 34 -1q163 -9 354 -40q1 0 99 -19q34 52 56 121q3 9 6 9h1q10 -2 10 -30q0 -25 -9 -69q-3 -15 -9 -40q78 -12 117 -13q23 -1 23 -4t-24 -3 q-53 0 -119 7q-15 -69 -55 -218q-28 -94 -82 -223q-31 -74 -56 -117q60 56 97 95q63 66 87 92q53 59 99 117q90 114 151 209q17 27 33 48q8 11 16 10q9 -2 12 -9z"/>
<glyph glyph-name="afii10031" horiz-adv-x="918" unicode="Н" d="M565 310q-10 0 -27 1h-24q-80 0 -170 -22q-100 -23 -158 -61q-168 -109 -168 -226q0 -81 96 -81q116 0 272 150q83 80 179 239zM997 547q-47 -145 -101 -264q-5 -11 -9 -19q14 -6 40 -17q10 -5 9 -7q-1 -3 -13 2q-25 10 -40 14q-37 -80 -119 -198q55 56 101 73q8 3 8 -2 l-19 -12q-36 -23 -85.5 -72.5t-67.5 -72.5q-14 -14 -15 -14q-5 2 0 11l27 47q62 108 128 254q-53 16 -115 26q-52 9 -112 12q-89 -146 -197 -249q-67 -64 -143 -103q-87 -45 -162 -45q-107 0 -107 96q0 64 44.5 130t122.5 113q61 37 155 58q87 19 172 19h9q29 0 65 -2 q33 54 55 100q44 92 66 153q-46 10 -106 26.5t-95 24.5q-63 14 -96 17t-43 3q-44 0 -79 -18q-57 -29 -57 -99v-9q2 -29 27 -67q20 -30 43 -49q7 -7 6 -9q-1 -3 -10 4q-91 66 -100 113q-3 15 -3 28q0 73 82 101q46 16 111 16h8q73 -1 209 -38q70 -19 107 -32q4 14 6 30 q1 7 5 8q5 1 9 -16t3 -30q21 -6 61 -17q16 -4 16 -5q-1 -3 -17 -2q-26 5 -61 14q-9 -72 -47 -155q-28 -61 -51 -96q49 -4 104 -13q59 -9 118 -30q4 7 8 16q50 109 102 242q12 25 32 71q7 16 32 22q3 1 5 -1q1 -3 -2 -10.5t-24 -70.5z"/>
<glyph glyph-name="afii10032" horiz-adv-x="619" unicode="О" d="M536 557q-30 45 -82 72q-57 30 -126 30h-4q-76 -1 -126 -49.5t-50 -114.5q0 -8 1 -16q2 -21 7 -36q57 65 145 107q67 32 139 32q10 0 20 -1q46 -3 76 -24zM629 498q12 -44 12 -95q0 -135 -76 -261q-53 -88 -143 -149q-98 -66 -195 -66q-83 0 -138.5 49.5t-61.5 133.5 q-1 13 -1 25q0 94 46 188q29 61 65 101q-14 26 -16 60v11q0 70 59.5 121t148.5 52h7q188 0 244 -164q8 -23 -4 -25q-8 -1 -16 22q-5 14 -18 38q-28 31 -81 33h-12q-75 0 -133 -36q-77 -47 -141 -136q29 -46 85 -68q11 -4 10 -6q-3 -4 -16 1q-59 21 -90 57q-15 -22 -43 -69 q-60 -115 -60 -205q0 -149 128 -170q18 -3 35 -3q86 0 169 67q68 55 121 145q98 164 98 295q0 137 -125 215q-6 2 -3 5q3 2 9 -1q39 -20 75 -60q46 -49 61 -105z"/>
<glyph glyph-name="afii10033" horiz-adv-x="605" unicode="П" d="M519 110q28 65 50.5 112.5t40.5 82t33 58t29 41.5q12 15 26 28.5t29 23.5t29 16t26 6q3 0 5 -2l1 -1q-2 0 -6 -2q-8 -3 -20.5 -10.5t-28 -21.5t-30.5 -36q-19 -27 -40.5 -67t-42 -82.5t-38.5 -82.5t-30 -68q-12 -27 -24.5 -55.5t-25.5 -59.5q10 10 24.5 20.5t25.5 10.5 q3 0 4 -1q-5 3 -18 -8.5t-28 -26.5t-27.5 -28.5t-15.5 -13.5q-7 0 -10 4t-3 7q0 2 2 6q31 81 63 150zM788 475h1h-1zM567 582h-62q-75 0 -144 -10q-107 -15 -151 -46t-44 -70q0 -10 3 -22q2 -11 14.5 -24t31 -25.5t40.5 -24t45 -19.5q10 -5 11 -5q0 -1 -3 -2q-2 0 -5.5 0.5 t-8.5 2.5q-84 22 -123.5 46.5t-46.5 53.5q-2 9 -2 17q0 19 13.5 39t49 39.5t87.5 33.5t117 23q37 5 92 9q47 3 99 5q2 3 4 7q10 16 21.5 31.5t25 28.5t28.5 20q16 8 20 8q1 0 1 -0.5t1 -0.5l-13 -17q-6 -8 -14 -21t-16 -28q-7 -13 -15 -27q51 2 105 5q66 3 126.5 8.5 t110.5 14.5t80 23q1 -1 1 -2q0 -5 -17 -11q-26 -10 -70 -19.5t-94.5 -17.5t-103.5 -14t-97 -9h-53q-3 -5 -5 -10q-7 -15 -23.5 -50.5t-36.5 -77.5t-40 -82.5t-34 -65.5q-42 -78 -85 -141t-89 -112q-128 -135 -241 -135q-38 0 -58.5 15.5t-20.5 40.5q0 28 22 52t64 44 q16 9 22 9q4 0 4 -3l-22 -14q-57 -38 -57 -79q0 -23 17 -37t44 -14q100 0 208 142q29 38 63 94t73 131q13 24 27 50.5t31.5 60.5t40.5 78z"/>
<glyph glyph-name="afii10034" horiz-adv-x="618" unicode="Р" d="M694 401q8 26 8 48q0 108 -191 132q-31 4 -47 5q-26 -53 -91 -186q-33 -68 -59 -114q62 -30 134 -31h5q196 0 241 146zM746 399q-25 -88 -117 -127q-69 -29 -166 -29h-13q-79 2 -141 33q-143 -260 -236 -345q-34 -31 -55 -31h-4q-34 6 -34 65q0 69 64 138q14 16 30 26 t18 7l-10 -9q-14 -12 -26 -30q-45 -68 -48 -149v-5q0 -32 11 -34h2q14 0 45 34t89 140q17 31 114 216q-23 16 -38 32t-15 24q0 2 1 3q1 0 6 -6q6 -10 14 -16q13 -14 36 -29q15 31 48 94q70 135 102 188q-43 2 -151 9q-64 5 -89 11q-43 11 -43 34q0 28 63 43q38 9 75 9 q10 0 20 -1q24 -2 24 -5q0 -4 -16 -3q-13 1 -24 1q-106 0 -106 -42q0 -26 99 -35q46 -2 154 -11q21 33 35 48q20 21 41 33.5t25 8.5l-15 -21q-29 -40 -46 -72q13 -1 47 -5q236 -29 236 -153q0 -19 -6 -39z"/>
<glyph glyph-name="afii10035" horiz-adv-x="743" unicode="С" d="M290 -73h-17q-125 0 -193 43q-77 47 -77 145q0 9 1 19q7 92 71 188q55 82 139 148q91 72 202 117q99 40 184 48q18 2 37 2q137 0 152 -69q2 -10 2 -19q0 -55 -65 -92q-60 -35 -133 -35q-48 0 -82 15q-25 12 -39 30q-11 15 -8 19l12 -12q16 -17 39 -27q33 -15 78 -15 q60 0 105 29q51 33 51 83q0 11 -3 22q-14 60 -119 60q-15 0 -31 -1q-69 -6 -156 -45q-104 -46 -191 -121q-78 -67 -127 -149q-56 -91 -61 -177q-1 -8 -1 -17q0 -88 60 -132q57 -42 164 -42h10q154 3 280 73q106 59 120 147q2 15 0 29q-3 18 -4 18q8 4 21 -14q8 -14 8 -29 q0 -84 -141 -162q-134 -74 -288 -77zM690 209v0v0z"/>
<glyph glyph-name="afii10036" horiz-adv-x="686" unicode="Т" d="M654 384q-47 -74 -102 -175q-49 -94 -83 -168q28 34 56 46q6 5 7 -1q-41 -30 -66 -64q-45 -46 -47 -46q-12 0 -5 20q1 5 4 12q33 69 103 207q31 56 90 155q-11 -7 -19 -8q-8 1 -8 6l16 8q21 6 49 23q10 7 13 2q0 -4 -8 -17zM599 110q28 65 50.5 112.5t40.5 82t33 58 t29 41.5q12 15 26 28.5t29 23.5t29 16t26 6q3 0 5 -2l1 -1q-1 0 -7 -2q-7 -3 -19.5 -10.5t-28 -21.5t-30.5 -36q-19 -27 -40.5 -67t-42 -82.5t-38.5 -82.5t-30 -68q-12 -27 -24.5 -55.5t-25.5 -59.5q10 10 24.5 20.5t25.5 10.5q2 0 3 -1q-5 2 -17 -9q-13 -11 -28 -26 t-27.5 -28.5t-15.5 -13.5q-7 0 -10 4t-3 7q0 2 2 6q31 81 63 150zM725 584h-113l-6 -12q-7 -15 -23.5 -50.5t-36.5 -77.5t-40 -82.5t-34 -65.5q-42 -78 -85 -141t-89 -112q-128 -135 -241 -135q-38 0 -58.5 15.5t-20.5 40.5q0 28 22 52t64 44q16 9 22 9q4 0 4 -3l-22 -14 q-57 -38 -57 -79q0 -23 17 -37t44 -14q100 0 208 142q29 38 63 94t73 131q13 24 27 50.5t31.5 60.5t40.5 78.5t53 104.5v1h-19q-83 0 -160 -10q-119 -15 -167.5 -46t-48.5 -71q0 -10 3 -22q2 -11 16 -24t34 -26t45 -24.5t50 -19.5q11 -4 12 -5q0 -1 -3 -2q-2 0 -6 0.5 t-10 2.5q-93 22 -137 47t-51 54q-2 9 -2 17q0 19 15 39t54 39.5t97 34t130 23.5q41 6 102 9q28 1 57 2l5 8q10 16 21.5 31.5t25 28.5t28.5 20q16 8 20 8l2 -1l-13 -17q-6 -8 -14 -21t-17 -28q-7 -13 -14 -27q14 1 29 1q70 3 143.5 6t140.5 8.5t122.5 15t88.5 23.5q1 -1 1 -2 q0 -5 -19 -11q-29 -10 -77.5 -19.5t-104.5 -18t-114.5 -14.5t-107.5 -9z"/>
<glyph glyph-name="afii10037" horiz-adv-x="695" unicode="У" d="M802 528q-15 -37 -44 -74q-43 -141 -89 -242q-120 -262 -285 -414q-178 -164 -353 -164q-38 0 -60 19q-17 13 -17 28q0 4 2 5q-2 -1 16 -11q23 -12 66 -14h14q82 0 153 33q70 33 147 108q148 144 286 440q24 50 75 162q-99 -169 -249 -300q-131 -114 -217 -142 q-19 -6 -33 -6q-10 0 -16 3q-13 6 -13 24q0 14 8 30q6 13 73.5 118.5t102.5 176.5q73 151 73 243v14q-6 96 -103 100h-9q-81 0 -165 -53q-70 -44 -118 -105q-53 -66 -53 -124v-6q2 -44 46 -46h3q28 0 63 16q13 6 13 5q2 -4 -11 -11q-36 -19 -68 -19q-57 0 -60 54v8 q0 60 41 125q40 62 96 100q98 66 208 66h13q70 -2 111 -44t41 -107q0 -93 -73 -230q-33 -63 -175 -276q-16 -24 -16 -35q0 -3 1 -5q3 -5 11 -5q9 0 25 7q80 35 197 137q151 132 266 331q14 39 37 86q14 28 28 28q2 0 8.5 -2t6.5 -14q0 -7 -4 -18z"/>
<glyph glyph-name="afii10038" horiz-adv-x="765" unicode="Ф" d="M351 187q42 85 76 151.5t57 110.5q-49 36 -83.5 39.5t-47.5 3.5q-42 0 -87 -16t-84.5 -54.5t-54.5 -90.5q-8 -27 -8 -48q0 -30 10.5 -54t37 -37.5t52 -15t33.5 -1.5q40 0 99 12zM529 439q-10 -20 -25 -50.5t-32.5 -65t-36.5 -70.5t-36 -66q49 -40 86 -44t52 -4 q42 0 88.5 16t88.5 56t58 93q8 27 8 48q0 30 -12 53.5t-40.5 36t-77 12.5t-121.5 -15zM749 581q7 -2 21 -5t28 -6.5t24.5 -6.5t10.5 -4q-2 -3 -7 -3q-20 0 -42 6t-36 10q-2 0 -13 2.5t-24 5.5t-25.5 6t-18.5 4l-54 12q-18 -32 -38 -70t-38 -77q-2 -4 -3 -5q66 13 120.5 13 t94 -13.5t60.5 -39.5t21 -62q0 -23 -6 -42q-9 -35 -36.5 -66.5t-65 -55t-82 -38.5t-71 -16.5t-34.5 -1.5q-36 0 -73 10t-68 39q-5 -6 -8 -13q-35 -60 -68.5 -110t-63.5 -85.5t-55.5 -55.5t-43.5 -20q-20 0 -29.5 17.5t-9.5 48.5q0 70 64 138q13 14 27 24t19 9h2l-10 -9 q-38 -34 -56 -85.5t-18 -100.5q0 -18 3.5 -25t10.5 -7q10 0 26 12.5t38.5 44t52.5 84t70 132.5q-55 -11 -102 -11q-7 0 -36 1t-65 16t-54.5 42t-18.5 62q0 23 6 43q9 34 34.5 64t61.5 52.5t78 36.5t68.5 16t36.5 2q32 0 68 -8.5t67 -32.5q2 5 4.5 8.5t4.5 7.5 q24 42 43.5 76.5t35.5 58.5l-53 12q-19 4 -61.5 13t-89.5 19t-87.5 17.5t-55.5 8.5q-11 1 -21 2t-20 1q-150 0 -150 -96q0 -23 22.5 -55t64.5 -58l7 -7l-2 -1q-2 0 -4 1l-6 3q-63 31 -89.5 60.5t-26.5 64.5q0 48 53 73t150 25q48 0 128 -13t196 -40q10 -3 24 -6.5t31 -8.5 q4 5 7 9t6 7q18 19 37 30.5t26 12.5q2 0 2 -0.5t1 -0.5l-15 -21q-6 -9 -14 -20.5t-16 -25.5q12 -4 25 -7t28 -7q3 0 14 -3t23.5 -6.5t23.5 -7t14 -4.5z"/>
<glyph glyph-name="afii10039" horiz-adv-x="638" unicode="Х" d="M940 552l-13 14q-16 16 -44 18h-11q-67 0 -141.5 -57.5t-172.5 -157.5q0 -97 -7 -165q-11 -110 -30 -166q29 55 73 69q9 5 9 -1q0 1 -17 -10q-24 -16 -53 -55q-11 -17 -37 -55q-12 -16 -19 -15q-16 2 -11 12q6 13 11 30q10 36 28 193q7 60 7 121q-45 -49 -149 -162 q-49 -52 -99 -94q-27 -23 -48 -36q35 -25 51 -34q35 -20 60 -21h7q64 0 92 56q5 10 8 8t-5 -19q-30 -60 -106 -60h-2q-62 1 -135 52q-57 -34 -102 -34q-17 0 -30.5 6t-9.5 12q0 1 11.5 -3.5t26.5 -4.5q37 0 92 33q-12 9 -32 25q-31 28 -77 69q-15 13 -23 13q-4 0 -7 -2 q-4 -3 -4 -9q0 -11 13 -34q17 -29 37 -40q-25 4 -42.5 22t-17.5 42q0 19 10 25q6 5 15 5q11 0 28 -7q21 -9 90 -60q27 -20 40 -31q16 11 45 34q55 45 105 98q46 49 157 171q0 101 -9 157q-24 150 -135 150q-95 0 -192 -86q-111 -99 -111 -191q0 -45 45 -47h7q28 0 58 14 q15 7 15 6q3 -3 -12 -11q-34 -17 -65 -17h-3q-56 2 -61 56q-1 7 -1 14q0 46 28 96q29 54 78 95q96 80 215 80q148 0 177 -143q13 -63 13 -131q91 97 161 152q88 68 154 68h10q28 -3 45 -23q13 -15 13 -29q0 -4 -1 -5z"/>
<glyph glyph-name="afii10040" horiz-adv-x="796" unicode="Ц" d="M597 -68q-7 -9 -13 -11t-10.5 0t-7 6.5t-2.5 8.5q0 5 2 9q19 52 37.5 98t37.5 91q-111 -182 -238 -182q-112 0 -218 99q-71 -47 -136 -47q-17 0 -28.5 4.5t-11.5 9.5l1 2l12 -4q7 -3 18 -3q58 0 131 52q-10 8 -36.5 35.5t-68.5 65.5q-12 9 -22 9q-7 0 -11.5 -4.5 t-4.5 -9.5q0 -9 8 -20.5t19 -21.5t22 -18q10 -8 15 -9q-28 0 -49.5 16t-21.5 45q0 16 8.5 25t22.5 9q26 0 61.5 -29t86.5 -73q56 43 103 103.5t91 141.5q68 127 68 212q0 107 -113 107q-37 0 -81.5 -26.5t-83 -66.5t-64.5 -85.5t-26 -83.5q0 -46 45 -46q33 0 65 17 q10 6 12 6q1 0 1 -2q0 -6 -9.5 -11t-22.5 -9.5t-26 -7t-20 -2.5q-61 0 -61 68q0 41 22 86.5t60 84t88.5 63.5t107.5 25q66 0 106.5 -37.5t40.5 -97.5q0 -91 -60 -205q-36 -67 -90 -126t-137 -123q116 -103 194 -103q121 0 250 216q22 53 45.5 103.5t45.5 93.5t41.5 76.5 t33.5 53.5t32 37.5t36 30t35 20t30 7.5q8 0 8 -4v-1q-18 -3 -38 -16t-41.5 -40t-46 -69t-52.5 -103q-7 -16 -22.5 -50t-34.5 -77t-39.5 -90.5t-38.5 -89t-31.5 -73t-18.5 -42.5q36 30 72 38t59 8q18 0 46 -5.5t52 -26.5t24 -49q0 -4 -1 -9q-6 -30 -29.5 -53t-56.5 -37.5 t-60 -17.5t-41 -3q-23 0 -45 4q-17 5 -49.5 16t-81.5 30q-24 9 -41 14.5t-28 7.5q-16 3 -31 3q-55 0 -83 -48l-12 3q23 42 57 59t65 17q14 0 29 -3t44 -13.5t61.5 -22.5t62 -22t45.5 -13q24 -5 46 -5q31 0 65.5 14t41 42.5t6.5 40.5q0 25 -17.5 43t-38.5 20t-28 2 q-30 0 -68.5 -12.5t-71.5 -39.5z"/>
<glyph glyph-name="afii10041" horiz-adv-x="761" unicode="Ч" d="M318 213q-29 24 -55.5 45.5t-43.5 31.5q-8 5 -11 5t-7.5 -4t-3.5 -7q1 -5 6 -11t11.5 -11.5t12.5 -9.5q5 -4 8 -5q-13 0 -25.5 9t-15.5 24q-2 9 4 14.5t13 7.5h3q13 0 48.5 -16.5t86.5 -51.5l7 -5q10 8 19 17q39 35 67.5 83.5t49.5 114.5q7 23 10.5 50.5t3.5 47.5 q0 107 -113 107q-37 0 -81.5 -26.5t-83 -66.5t-64.5 -85.5t-26 -83.5q0 -46 45 -46q33 0 65 17q10 6 12 6q1 0 1 -2q0 -6 -9.5 -11t-22.5 -9.5t-26 -7t-20 -2.5q-61 0 -61 68q0 41 22 86.5t60 84t88.5 63.5t107.5 25q49 0 81.5 -20t49 -52t17 -53.5t0.5 -23.5q0 -38 -14 -75 q-17 -54 -50.5 -101.5t-90.5 -99.5q-9 -8 -21 -17q100 -66 160 -66q39 0 72 34.5t66 87t70.5 116t85.5 121.5q16 19 33.5 36t35.5 30t34.5 21t29.5 8q8 0 8 -4v-1q-18 -3 -38 -16t-41.5 -40t-46 -69t-52.5 -103l-21 -48q-14 -32 -31 -71.5t-35.5 -83t-34.5 -81.5t-28 -67.5 t-17 -40.5q11 12 28 26t31 14q4 0 6 -1q0 -2 -6 -5l-12 -6q-27 -18 -42 -34.5t-24 -28.5t-13.5 -19t-10.5 -7q-8 0 -11.5 5t-3.5 10t2 9q6 17 16.5 45t22.5 61.5t25 69t25 68t22.5 58.5t16.5 41q-21 -32 -39 -59t-37 -46.5t-40.5 -30.5t-48.5 -11q-48 0 -104 15 q-44 12 -87 42q-6 -2 -12 -5q-19 -9 -37.5 -14.5t-32.5 -5.5t-24.5 3.5t-11.5 7.5l1 2l10 -3q8 -2 16 -2q12 0 29 6t35 15q6 4 13 7z"/>
<glyph glyph-name="afii10042" horiz-adv-x="1144" unicode="Ш" d="M1034 138q-111 -182 -238 -182q-106 0 -206 88q-12 -10 -24 -21q-33 -27 -73 -45.5t-90 -18.5q-57 0 -110.5 21t-107.5 71q-71 -47 -136 -47q-18 0 -29 5t-11 9q0 1 1 2l12 -4q7 -3 18 -3q58 0 131 52q-5 4 -13 12l-20 20q-27 28 -72 69q-13 9 -22 9q-5 0 -8 -2 q-8 -4 -8 -12q0 -12 23 -37.5t42 -31.5q-40 0 -61 28q-11 16 -11 33q0 18 11 27q8 7 20 7q10 0 23 -6q17 -8 36 -22t42 -34q8 -7 20 -17t27 -23q13 10 23 18t18 16q83 82 153 211q67 122 68 207v6q0 104 -110 106h-2q-75 0 -166 -92q-90 -92 -90 -170q0 -46 45 -46 q33 0 65 17q12 7 13 6q3 -4 -11 -13q-35 -19 -67 -19q-56 0 -60 57v11q0 84 82 172q81 87 192 87h3q61 -1 102.5 -34t44.5 -88v-14q0 -91 -60 -204q-56 -105 -167 -202q-8 -7 -22.5 -18.5t-37.5 -28.5q57 -51 105 -73t86 -23q48 2 87 24.5t74 58.5l3 3l-13 14l-27 27 q-27 28 -72 69q-13 9 -22 9q-5 0 -8 -2q-8 -4 -8 -12q0 -12 23 -37.5t42 -31.5q-40 0 -61 28q-11 16 -11 33q0 18 11 27q8 7 20 7q10 0 23 -6q17 -8 36 -22t42 -34q4 -3 11.5 -10t16.5 -14.5t18 -16.5l2 -2l16 22q20 28 39 58q16 22 33 55t33.5 67.5t30.5 65.5t23 49 q58 118 96 172q31 43 69 68q34 23 58 26q4 1 6 1q3 0 6 -1t2 -4q-5 -1 -11.5 -3t-14.5 -5q-35 -17 -77 -80q-34 -51 -75 -140q-16 -36 -35 -76.5t-38.5 -80t-39.5 -75.5t-39 -62q-23 -27 -50 -60l-12 -14q111 -97 186 -98h3q120 0 250 216q17 38 34 76.5t35 75.5 q58 118 96 172q31 43 69 68q34 23 58 26q7 1 11 0t3 -4q-5 -1 -11.5 -3t-14.5 -5q-35 -17 -77 -80q-34 -51 -75 -140q-65 -143 -108 -246q-14 -34 -28.5 -70t-30.5 -76q27 30 57 40q4 1 8 -1q0 -2 -6 -5l-12 -6q-12 -8 -23 -19t-22 -24q-30 -38 -33 -39q-6 -7 -11 -7h-3 q-18 6 -11 24q19 52 37.5 99t37.5 92z"/>
<glyph glyph-name="afii10043" horiz-adv-x="1205" unicode="Щ" d="M997 -73q-7 -9 -14 -7q-18 6 -11 24q19 52 38.5 99t38.5 92l1 3q-111 -182 -240 -182q-110 0 -214 95q-14 -14 -30 -28q-33 -27 -73 -45.5t-90 -18.5q-57 0 -110.5 21t-107.5 71q-71 -47 -136 -47q-18 0 -29 5t-11 9q0 1 1 2l12 -4q7 -3 18 -3q58 0 131 52q-5 4 -13 12 l-20 20q-27 28 -72 69q-13 9 -22 9q-5 0 -8 -2q-8 -4 -8 -12q0 -12 23 -37.5t42 -31.5q-40 0 -61 28q-11 16 -11 33q0 18 11 27q8 7 20 7q10 0 23 -6q17 -8 36 -22t42 -34q8 -7 20 -17t27 -23q13 10 23 18t18 16q83 82 153 211q67 122 68 207v6q0 104 -110 106h-2 q-75 0 -166 -92q-90 -92 -90 -170q0 -46 45 -46q33 0 65 17q12 7 13 6q3 -4 -11 -13q-35 -19 -67 -19q-56 0 -60 57v11q0 84 82 172q81 87 192 87h3q61 -1 102.5 -34t44.5 -88v-14q0 -91 -60 -204q-56 -105 -167 -202q-8 -7 -22.5 -18.5t-37.5 -28.5q57 -51 105 -73t86 -23 q48 2 87 24.5t74 58.5l10 10q-3 3 -6 7l-27 27q-27 28 -72 69q-13 9 -22 9q-5 0 -8 -2q-8 -4 -8 -12q0 -12 23 -37.5t42 -31.5q-40 0 -61 28q-11 16 -11 33q0 18 11 27q8 7 20 7q10 0 23 -6q17 -8 36 -22t42 -34q4 -3 11.5 -10t16.5 -15l12 -10l10 14q20 28 39 58 q16 22 33 55t33.5 67.5t30.5 65.5t23 49q58 118 96 172q31 43 69 68q34 23 58 26q4 1 6 1q3 0 6 -1t2 -4q-5 -1 -11.5 -3t-14.5 -5q-35 -17 -77 -80q-34 -51 -75 -140q-16 -36 -35 -76.5t-38.5 -80t-39.5 -75.5t-39 -62q-23 -27 -50 -60q-3 -3 -6 -7l3 -2q115 -102 191 -103 h3q120 0 250 216q17 38 34 76.5t35 75.5q58 118 96 172q31 43 69 68q34 23 58 26q7 1 11 0t3 -4q-5 -1 -11.5 -3t-14.5 -5q-35 -17 -77 -80q-34 -51 -75 -140q-65 -143 -108 -246q-14 -34 -30.5 -78.5t-32.5 -84.5q47 30 76 33.5t41 3.5q29 0 57 -11t45 -35.5t17 -51.5 q0 -6 -1 -12q-6 -30 -29.5 -53t-56.5 -37.5t-60 -17.5t-41 -3q-23 0 -45 4q-17 5 -49.5 16t-81.5 30q-24 9 -41 14.5t-28 7.5q-16 3 -31 3q-55 0 -83 -48l-12 3q23 42 57 59t65 17q14 0 29 -3t44 -13.5t61.5 -22.5t62 -22t45.5 -13q24 -5 46 -5q31 0 65.5 14t41.5 44.5 t7 45.5q0 22 -11 45t-33 29.5t-36 6.5q-22 0 -58.5 -11.5t-89.5 -53.5z"/>
<glyph glyph-name="afii10044" horiz-adv-x="761" unicode="Ъ" d="M531 637q5 17 5 27v6q-2 10 -10 10h-3l-35 -10q-19 -10 -36 -30t-31 -44q-4 -5 -7 -11q27 3 54 9t53 13q7 17 10 30zM358 310l8 3q35 64 57 103q30 53 38 69q31 56 47 93q3 6 6 13q-32 -11 -65 -21q-26 -8 -50 -15q-1 -3 -3 -6q-10 -23 -16 -43t-4 -32v-11h-1l-2 1 q-5 0 -7 13t1 29q4 23 9 43q-5 -1 -10 -3q-39 -10 -67 -11h-13q-38 0 -68 16q-34 19 -60 47q-29 35 -29 80q0 12 2 25q2 7 7 7q1 0 1 -4t-1 -6q-1 -8 -1 -16q0 -43 28 -75q33 -38 116 -38q10 0 21 1q38 3 80 8q2 0 4 1q12 32 46 63q30 28 58 40q18 8 32 8q7 0 13 -2 q15 -5 15 -32v-7q-1 -16 -6 -38q3 1 7 2q40 11 72 24q7 3 9 1t0 -4q-2 -4 -8 -8t-12 -5q-32 -10 -71 -23q-4 -17 -11 -36q-18 -55 -53 -131q-22 -47 -50 -101q6 1 11 2q36 8 63 9h11q63 0 115 -22q57 -23 85 -67q24 -36 24 -83q0 -9 -1 -19q-6 -58 -63 -126 q-67 -71 -171 -91q-57 -12 -129 -12q-45 0 -97 5q0 -2 -1 0q-13 2 -27 3l1 4q-24 3 -46 6l-2 -4q-10 -17 -18 -35t-18 -42l-7 -23h-2q-13 5 -13 36q0 29 22 74q-8 1 -15 2q-50 8 -82 11q-15 1 -27 1q-14 1 -24 -1q-18 -4 -30 -18q-13 -11 -13 -21q1 -7 9 -15q18 -16 68 -28 q10 -4 29 -6q4 -6 1 -9q-2 -2 -14 -1t-30 7q-57 15 -81 39q-13 14 -13 27q0 10 8 21q18 19 62 21q11 1 23 1q34 0 71 -5q33 -4 66 -9q3 6 7 13q11 19 25 47t32 60l36 64t36 63q18 30 31 53q10 19 19 35h-1v1q-12 -3 -27 -9q-20 -9 -40 -19t-33 -22t-10 -23q1 -7 9 -13 t23 -10q-17 -3 -29 -3q-13 0 -20 4q-15 9 -15 19q-1 11 15 24q18 14 43 27t51 23q20 7 34 11l-1 -9q1 1 2 1q3 6 6 11l-7 -3v1zM276 -57q0 2 2 0h-2zM276 -57l-1 -2q2 0 4 -1q-1 2 -1 3q42 -4 80 -4q59 0 108 9q90 16 148 79q12 11 20 23t18 24q28 50 28 95v9q-3 48 -29 83 t-70 55q-37 16 -78 16q-8 0 -17 -1q-23 -2 -58 -10q-3 -1 -7 -2q-14 -26 -28 -53q-21 -40 -50 -91t-58 -99t-53 -87q-12 -20 -21 -33q34 -7 57 -13h8z"/>
<glyph glyph-name="afii10045" horiz-adv-x="1059" unicode="Ы" d="M928 218q7 16 11 25q51 116 103 257q12 27 33 76q7 17 32 23q3 1 5 -1q1 -3 -2 -11t-24 -75q-48 -154 -116 -309q-37 -85 -120 -210q56 59 102 78q8 3 8 -3l-19 -12q-37 -26 -87 -78t-68 -76l-10 -10l-5 7l27 49q63 115 130 270zM408 298l9 3q32 58 52 94q28 49 36 64 q29 51 45 85t21 54t3 30t-9 13q-6 3 -15 -1t-29 -17q-24 -20 -46 -42q-23 -23 -39 -45t-26 -44t-10 -41l-1 -11l-2 2q-5 0 -7 13t0 28q15 77 83 131q31 24 57 34q15 6 26 6q9 0 17 -4q17 -7 17 -36q0 -30 -18 -84q-17 -52 -50 -122q-20 -44 -46 -94l10 2q24 3 44 3 q10 0 19 -1q68 -3 124 -33q55 -30 85 -76q25 -39 25 -84q-1 -8 -1 -17q-6 -55 -60 -107q-62 -63 -164 -75q-31 -4 -67 -4q-80 0 -183 19v5q-24 5 -44 9l-2 -4q-11 -15 -18 -32t-18 -39l-6 -22h-1q-14 7 -14 39q0 27 19 67l-13 3q-49 11 -81 17q-22 4 -37 3q-7 -1 -13 -1 q-18 -2 -30 -14q-11 -9 -11 -18q1 -8 9 -16q18 -18 67 -32q10 -6 28 -9q4 -3 4 -5t-2 -3q-1 -2 -13 0t-32 9q-28 8 -48 20t-31 24q-13 15 -13 28q0 10 8 18q12 11 36 14q13 2 28 2q12 0 26 -2q30 -2 62 -9q33 -7 64 -14q6 12 17 32q19 35 43 79t52 88q26 45 47 77 q10 17 19 33h-2v1q-11 -3 -27 -7q-20 -6 -39 -14q-20 -8 -32 -20q-12 -10 -9 -22q1 -6 9 -13t22 -12q-9 -1 -17 -1q-22 0 -31 6q-13 8 -15 18q-2 12 15 24t41 22t50 18q19 6 33 9v-8q1 0 3 1q2 5 5 9l-8 -2v1zM776 -108q4 -6 4 -8q0 -1 -1 -1q-2 0 -8 4zM335 -49l2 -1 q-1 3 -2 1zM335 -49v-2l3 -1l-1 2q70 -11 128 -11q29 0 55 3q89 9 144 65q13 9 21 20t18 22q25 44 25 85q0 6 -1 12q-4 47 -30 83q-25 36 -69 58t-94 22q-22 0 -57 -6l-7 -1q-12 -24 -26 -49q-20 -37 -48 -84t-54 -91q-27 -44 -50 -79q-12 -18 -20 -31q11 -3 21 -6l27 -9 q8 -1 15 -2z"/>
<glyph glyph-name="afii10046" horiz-adv-x="700" unicode="Ь" d="M221 -56l-13 1l-2 -10q13 -2 27 -4v-3q-13 2 -27 3v4q-24 3 -44 6l-2 -4q-10 -17 -18 -35t-16 -42l-7 -23h-2q-12 5 -14 34v5q0 28 19 71q-8 1 -15 2q-51 8 -83 11q-15 1 -27 1q-13 1 -23 -1q-18 -4 -31 -18q-11 -10 -11 -20q0 -8 9 -16q19 -16 69 -28q12 -4 30 -6 q4 -4 4 -6t-2 -3q-2 -2 -14 -1t-31 7q-57 15 -83 39q-15 14 -14 29q0 10 7 19q13 12 37 17t54 5t65 -4q34 -5 66 -10q7 13 17 35q19 38 43 85t50 96t46 84q9 18 18 35h-1v1q-12 -3 -27 -9q-21 -9 -40 -19t-31 -22t-9 -23q1 -7 9 -13t23 -10q-16 -3 -28 -3q-13 0 -21 4 q-14 8 -15 17q-3 12 14 26t41 27t51 23q20 7 34 11l-1 -9q1 1 2 1q3 6 5 11h1q33 65 53 104q27 53 35 69q28 57 44 93t21 58q3 15 3 24v8q-2 10 -10 12q-6 2 -16 -3t-28 -20q-24 -23 -46 -47t-38 -49t-26 -49t-10 -43l-1 -11h-1l-2 1q-6 0 -8 13t1 29q7 41 28 77t54 66 q30 28 57 40q18 8 32 8q7 0 12 -2q17 -6 17 -38q-1 -32 -17 -88q-16 -55 -48 -131q-19 -47 -45 -101q6 1 10 2q36 8 63 9h7q43 0 81 -11q42 -12 74 -34t53 -52t26 -67q1 -10 1 -20q0 -27 -10 -55q-14 -39 -49 -78q-64 -71 -167 -91q-57 -12 -129 -12q-45 0 -97 5q0 -2 -1 0 h1v8v5q-6 1 -13 3zM303 309v1q2 1 4 1zM309 312v0q-1 0 -2 -1q1 1 2 1z"/>
<glyph glyph-name="afii10047" horiz-adv-x="611" unicode="Э" d="M128 6q-36 3 -61.5 10t-41 16.5t-21.5 19t-6 16.5q0 33 51 47q29 7 29 1q2 -2 -8 -18q-6 -7 -9 -15t-4 -16q-1 -5 2.5 -13t12.5 -16t23.5 -14.5t34.5 -7.5h10q51 0 107 19t116 65q42 32 83 77q32 35 65 78q-106 4 -185 26q-16 4 -16 9q-2 3 8 1q39 -8 121 -12 q45 -1 83 -3h5l2 3q21 30 39 65t30.5 71t18.5 67.5t6 56.5v8q-2 49 -30 79t-85 33h-15q-38 0 -71.5 -9t-59 -28.5t-38 -45.5t-12.5 -54q0 -17 8.5 -33.5t22 -34.5t30 -34.5t34.5 -29.5l8 -8q0 -2 -2 -2q-5 0 -12 6q-67 42 -97 77.5t-30 69.5q0 29 17 55.5t47.5 45.5t67 27.5 t71.5 8.5q11 0 23 -1q83 -5 125.5 -47.5t44.5 -108.5v-9q0 -55 -22.5 -110.5t-59.5 -107.5q-3 -3 -5 -7q17 2 25 3h6q21 0 24 -6q2 -11 -18 -16q-18 -2 -54 -4q-28 -35 -59 -65q-43 -43 -82 -73q-29 -24 -63.5 -45t-73 -36.5t-75.5 -23t-70 -7.5h-15z"/>
<glyph glyph-name="afii10048" horiz-adv-x="1343" unicode="Ю" d="M1250 545q-30 45 -82 72q-57 30 -126 30h-4q-76 -1 -126 -49.5t-50 -114.5q0 -8 1 -16q2 -21 7 -36q57 65 145 107q67 32 139 32q10 0 20 -1q46 -3 76 -24zM565 310h-12t-15 1h-24q-82 0 -170 -22q-51 -11 -90 -26.5t-68 -34.5q-168 -109 -168 -227q0 -80 96 -80 q116 0 272 150q83 80 179 239zM1343 486q12 -44 12 -95q0 -135 -76 -261q-53 -88 -143 -149q-98 -66 -195 -66q-83 0 -138.5 49.5t-61.5 133.5q-1 12 -1 25q0 82 35 164q-12 2 -24.5 4.5t-24.5 4.5q-53 9 -112 12q-88 -144 -197 -249q-68 -65 -143 -103q-87 -45 -162 -45 q-107 0 -107 96q0 32 11.5 65t33 64.5t52.5 60.5t70 53q61 37 155 58q46 10 87.5 14.5t78.5 4.5h15q14 0 30.5 -0.5t34.5 -1.5q32 52 55 100q43 91 66 153q-23 5 -49.5 11.5t-56.5 14.5t-54 14.5t-41 10.5q-32 7 -61.5 12t-57.5 7q-11 1 -21 1q-44 0 -78 -18 q-57 -30 -57 -97v-11q2 -30 27 -67q10 -15 21 -27t22 -22q7 -8 6 -9q-2 -3 -10 4q-91 65 -100 113q-3 15 -3 28q0 73 82 101q25 8 52 12t54 4h13q37 -1 88.5 -10t120.5 -28q35 -10 61.5 -17.5t45.5 -14.5q4 13 6 30q1 7 5 8q3 0 5 -4.5t4 -11.5t2.5 -15.5t0.5 -14.5 q11 -3 26 -7.5t35 -9.5q16 -4 16 -5q-2 -3 -17 -2q-13 2 -28.5 5.5t-32.5 8.5q-9 -71 -47 -155q-29 -62 -51 -96q25 -2 50.5 -5t53.5 -8q13 -2 26 -4.5t27 -6.5q3 7 7 14q29 61 65 101q-14 26 -16 60v11q0 70 59.5 121t148.5 52h7q188 0 244 -164q8 -23 -4 -25q-8 -1 -16 22 q-5 14 -18 38q-28 31 -81 33h-12q-75 0 -133 -36q-77 -47 -141 -136q29 -46 85 -68q11 -4 10 -6q-3 -4 -16 1q-59 21 -90 57q-15 -22 -43 -69q-5 -10 -10 -19q5 -2 9.5 -3t9.5 -3q3 -2 14 -6t24.5 -8.5t26 -9t18.5 -7.5q11 -5 9 -7q-1 -2 -13 2q-6 3 -18.5 7t-25 8.5 t-23.5 8t-15 4.5q-5 2 -10 3t-10 3q-46 -99 -46 -178q0 -149 128 -170q18 -3 35 -3q86 0 169 67q68 55 121 145q98 164 98 295q0 137 -125 215q-6 2 -3 5q3 2 9 -1q39 -20 75 -60q46 -49 61 -105z"/>
<glyph glyph-name="afii10049" horiz-adv-x="683" unicode="Я" d="M30 -75q10 -2 22 -2q14 0 28 3q28 6 59 25t64 53t68 87q39 63 81 105t84 67t84 33q11 2 21 3q-35 4 -62 16q-55 24 -82 63t-27 86t26 89t79 72t131 34h23q59 -1 113 -9q65 -10 120 -23q56 -13 98 -25t68 -13q32 0 52 14t21 31q-2 27 -61 46q-4 0 -6 2t-3 4q1 2 3 1t6 1 q46 -9 69 -30t24 -44q1 -4 1 -8q0 -12 -8 -20q-10 -11 -27 -17t-37 -8q-8 -1 -16 -1q-11 0 -22 2q-34 6 -84 22t-106 32t-114 27q-35 6 -70 6q-22 -1 -42 -3q-54 -6 -98 -36t-74 -94q-17 -38 -17 -77t21 -70t64 -49q35 -15 85 -15l3 2h1l1 2q19 45 35 77q17 32 31 56l28 46 q14 22 32 39t39 29q20 12 40 20t37 9q4 0 0 -3t-3 -4q-25 -3 -45 -13q-20 -9 -39 -31t-37 -57t-39 -87v9q-6 -16 -17 -46q-9 -24 -20 -53q20 -6 36 -18t24 -27q8 -16 7 -35q-3 -18 -17 -30t-27 -13q8 11 13 23t5 23q0 35 -23 54q-10 7 -21 12l-1 -1q-12 -35 -26 -74 q-14 -40 -25 -74q-12 -34 -21 -61l-13 -39q7 6 25 22t38 31t38 27t28 11q0 -1 -6 -5l-14 -8q-30 -22 -54 -48t-42 -46q-18 -22 -29 -36q-12 -14 -20 -15q-11 1 -15 7t-5 11q0 3 1 5q14 56 30 104t32 97q19 57 35 99h-12q-37 -4 -67 -15q-40 -15 -70 -41t-56 -60 q-24 -34 -48 -70t-50 -70t-62 -62t-82 -44q-48 -18 -114 -20q-15 -1 -27 -1q-63 0 -71 33q-1 4 -1 9q0 18 20 36q24 22 58 32q11 4 15 2q1 -1 -8 -6q-49 -20 -49 -56q0 -39 55 -39h9z"/>
<glyph glyph-name="afii10065" horiz-adv-x="259" unicode="а" d="M192 234q2 6 2 11q0 19 -20 19q-32 0 -72 -49q-35 -45 -66 -114q-17 -38 -17 -60q0 -14 10 -15h1q20 0 60 46q35 40 69 94q20 33 33 68zM245 264q-18 -44 -55 -139q-23 -60 -54 -117q26 33 54 55q23 18 35 22q6 3 7 1q2 -3 -5 -6q-16 -8 -42 -33t-50 -54q-14 -17 -26 -17 h-2q-14 2 -5 22q24 54 69 171q-37 -66 -85 -116q-43 -45 -67 -45h-1q-30 2 -30 44q0 33 20 77q23 50 72 95q54 50 93 50h3q25 -1 28 -24q7 13 11 19q8 10 17 10h3q11 -2 11 -10q0 -2 -1 -5z"/>
<glyph glyph-name="afii10066" d="M185 197q-2 -10 -3 -20t-4 -21q-7 -23 -16 -42q-11 -24 -26.5 -45t-33 -36.5t-34.5 -25t-32 -9.5q-23 0 -34.5 18t-11.5 47q0 30 10 59t26.5 54t39 45t46.5 32q14 7 19 7h1l-12 -12q-17 -17 -35 -42.5t-32 -54.5t-23 -59t-9 -57q0 -26 17 -26q8 0 20 9.5t25 25.5t26 37 t24 43q14 29 21 56.5t6 45.5q2 13 2 25q0 25 -8.5 54.5t-19.5 60.5t-15 48t-4 25q0 16 9 29q24 19 40.5 19.5t22.5 0.5q21 0 47 -3t42 -3.5t17 -0.5q30 0 61 16q1 1 2 1h1q-2 -7 -25.5 -20t-56.5 -22t-69 -9t-64 20q-13 -5 -13 -22.5t6 -42t16.5 -54t19.5 -58t12.5 -47.5 t3.5 -30q0 -9 -2 -16z" unicode="б"/>
<glyph glyph-name="afii10067" horiz-adv-x="221" unicode="в" d="M209 339q22 14 37.5 31t26 34t16 35t5.5 30q0 19 -8 28q-6 6 -14 6q-11 0 -33 -13t-60 -73q-18 -29 -32 -58.5t-28 -59.5q23 7 46.5 17.5t43.5 22.5zM31 283q-30 0 -32 19q0 7 6.5 18.5t18.5 11.5q2 0 2 -1q0 -2 -3.5 -10.5t-1.5 -15.5q4 -11 15.5 -13t21.5 -2t21 1 q22 45 46.5 83.5t49 68t48 48t43.5 23.5q6 1 12 1q16 0 26.5 -7.5t13.5 -19.5q2 -7 2 -15t-2 -16q-6 -28 -31.5 -61t-70.5 -65q-16 -11 -42.5 -22t-58.5 -19q-3 -5 -5 -11q-34 -76 -58 -143t-24 -109q0 -22 17 -22q18 0 38.5 26t38 60.5t28.5 69.5t11 54q0 10 -5 18 t-11.5 14t-11.5 11t-5 9q0 3 3.5 7.5t8.5 4.5q8 0 16 -6.5t19 -29.5q11 -11 26 -11q9 0 20 5t10 6q2 -2 2 -3q0 -5 -11 -11.5t-22 -6.5q-13 0 -21 5q7 -14 7 -41q0 -38 -15 -72.5t-37.5 -61t-47.5 -42t-46 -15.5q-42 3 -42 55q0 73 78 234q-12 -2 -23 -2.5t-22 1.5z"/>
<glyph glyph-name="afii10068" horiz-adv-x="157" unicode="г" d="M14 214q16 21 35 39t37 28q17 10 31 10l1 -1q14 0 23 -16q5 -10 5 -22t-5 -26q-10 -28 -28 -62q-19 -32 -39 -66t-32 -65q-8 -11 -3 -15t19 1t32 17q19 12 37 32q8 5 9 5l1 -1q1 -2 -4 -9q-33 -41 -61 -56q-23 -12 -39 -12q-4 1 -7 1q-18 4 -22 22l-2 10q0 16 11 37 q3 7 15 25t25 42l28 48q15 26 23 47t8 34t-13 12q-5 0 -17 -8q-12 -7 -26 -19t-26 -26q-13 -14 -21 -26z"/>
<glyph glyph-name="afii10069" horiz-adv-x="242" unicode="д" d="M77 -45q-44 -26 -82 -79q-28 -39 -39 -86q-4 -16 2 -18q7 -1 21 11q24 21 48 65q27 49 50 107zM259 264q0 -6 -6 -10.5t-9 -3.5q1 2 -2 12.5t-20 10.5q-34 0 -71 -22q-73 -43 -118 -149q-16 -38 -17 -62q-1 -15 8 -17h3q16 0 46 32q25 27 85 114q11 17 29 42q15 13 34 21 q10 4 11 1q0 -1 -8 -9q-37 -75 -96 -235q12 7 27 14q12 6 28 8q10 2 10 -1q0 -2 -7.5 -4.5t-28.5 -11.5q-12 -5 -34 -20q-30 -64 -71 -126q-22 -33 -56.5 -63.5t-51.5 -30.5q-13 0 -13 15q0 4 1 8q7 44 53 105q38 50 97 89q6 12 68 170q-38 -61 -72 -96q-36 -37 -58 -37h-1 q-32 2 -33 45v3q0 32 17 70q39 87 129 131q51 25 91 25q36 0 36 -18z"/>
<glyph glyph-name="afii10070" horiz-adv-x="187" unicode="е" d="M174 275q-17 0 -42 -19q-21 -16 -31 -31q13 -7 27 -7h2q20 0 38 15.5t18 29.5q0 12 -12 12zM215 268q0 -20 -19 -36q-27 -23 -60 -23q-5 0 -11 1q-16 2 -29 8q-18 -26 -28 -45q-29 -59 -42 -105q-5 -20 -5 -34q0 -23 13 -27q3 -1 6 -1q14 0 35 16.5t37.5 44.5t25.5 63 q3 12 6 12q4 0 3 -11q-1 -28 -24 -67q-43 -73 -89 -73q-5 0 -9 1q-39 6 -39 57q0 18 5 38q15 59 53 108q72 91 145 91h2q24 0 24 -18z"/>
<glyph glyph-name="afii10072" horiz-adv-x="425" unicode="ж" d="M-27 12q0 7 5.5 19t16.5 12q2 0 2 -1q1 -2 -1 -10.5t-2 -16.5q0 -11 9 -11q17 0 39.5 27.5t42 66.5t32.5 80.5t13 71.5t-18 30q-8 0 -19.5 -8.5t-23.5 -23.5t-24 -34.5t-22 -41.5q-4 -11 -6.5 -16.5t-2.5 -6.5q-3 3 -2 5q0 22 12 47t29.5 45.5t36 34t31.5 13.5 q46 0 46 -60q0 -36 -16 -77v-2q0 1 1 2q21 24 42 49t37.5 44.5t19.5 18.5q12 0 11 -10q-1 -18 -17 -55.5t-37 -85.5q-8 -22 -12 -35.5t-11 -33.5q6 6 19.5 23t28.5 35t27 32l9 9q15 33 35 62q25 36 55 59.5t57 23.5t27 -19q0 -7 -6 -18t-17 -11q-2 0 -2 1q-1 2 1.5 10.5 t2.5 16.5q0 11 -11 11q-17 0 -39.5 -27.5t-42 -66.5t-32.5 -80.5t-13 -71.5t18 -30q8 0 19.5 8.5t23.5 23.5t24 34.5t22 41.5q4 11 6.5 16.5t2.5 6.5q3 -3 2 -5q0 -23 -12 -47.5t-29.5 -45t-36 -34t-31.5 -13.5q-46 0 -46 60q0 36 15 77l2 4q-7 -7 -14 -16 q-20 -24 -39.5 -49.5t-35 -44.5t-17.5 -18q-13 0 -11 9q0 18 11 47.5t29 77.5q10 23 18.5 44t14.5 41q-6 -6 -20.5 -23t-30.5 -35q-13 -14 -24 -27q-15 -34 -35 -63q-25 -36 -54.5 -59.5t-56.5 -23.5q-23 0 -26 17z"/>
<glyph glyph-name="afii10073" horiz-adv-x="159" unicode="з" d="M84 -83q-18 -45 -54 -84t-82 -67t-96 -42q-38 -10 -72 -10q-12 0 -25 1q-55 3 -77 27q-14 14 -14 39q0 15 5 33q7 22 13 40t24 38q6 6 10 8t6 1q0 -1 -2 -4l-6 -9t-8 -13t-8 -15q-9 -17 -9 -34v-6q2 -20 13 -40q25 -35 80 -49q11 -2 23 -2q25 0 52 9q39 14 74 38t63 58 t44 72q8 16 14 40t7 46v8q0 18 -4 32q-5 17 -19 20l-8 -4q-6 -2 -12 -6q-8 -4 -15 -6t-12 -2q-3 0 -4 1q1 18 11 26t23 6q1 -1 5 -1h6q32 32 56 67t36 64q8 21 8 37q0 6 -2 12q-4 20 -31 22q-6 0 -20 -6q-13 -6 -27 -14t-24 -16l-8 -6q-4 -1 -4 0q-1 4 11 15t30 21t38 18 q13 4 23 4q6 0 12 -1q24 -7 32 -22q6 -11 7 -24q1 -5 -1 -11q-4 -20 -18 -44t-30 -46q-18 -22 -39 -42q-20 -19 -37 -32q26 -4 38 -21t15 -39q1 -9 1 -19q0 -13 -2 -26q-4 -23 -10 -40z"/>
<glyph glyph-name="afii10074" horiz-adv-x="244" unicode="и" d="M246 293q0 -2 -3 -9q-32 -50 -66 -141q-12 -33 -40 -100q27 27 56 43q12 6 13 3q2 -2 -6 -7t-38 -29t-64 -60q-2 -4 -3 -7q-3 -5 -6 -5h-1q-10 2 2 20q14 40 41 115q-31 -48 -49 -69q-41 -46 -63 -46q-28 0 -28 26q0 34 35 118q15 35 55 107q-8 -2 -14 -2q-8 1 -16 4 q2 1 20 5q36 9 48 17q4 2 6 1q1 -1 0 -5q-38 -72 -61 -127q-26 -62 -34 -95q-3 -10 -3 -18q0 -11 7 -13h2q11 0 38 30q29 33 67 98q4 5 6 14q21 53 37 83t36 42q15 9 22 9q4 0 4 -2z"/>
<glyph glyph-name="afii10075" horiz-adv-x="244" unicode="й" d="M338 447q-24 -22 -44 -42t-52 -33q-25 -11 -45 -11q-19 0 -35 10q-12 9 -12 23q0 16 15 39q10 17 20 14l-4 -13q-1 -6 -1 -10q0 -15 14 -25q11 -7 28 -5t35 10q17 8 35 17t30 17t17 12l2 1q1 0 -3 -4zM246 293q0 -2 -3 -9q-32 -50 -66 -141q-12 -33 -40 -100q27 27 56 43 q12 6 13 3q2 -2 -6 -7t-38 -29t-64 -60q-2 -4 -3 -7q-3 -5 -6 -5h-1q-10 2 2 20q14 40 41 115q-31 -48 -49 -69q-41 -46 -63 -46q-28 0 -28 26q0 34 35 118q15 35 55 107q-8 -2 -14 -2q-8 1 -16 4q2 1 20 5q36 9 48 17q4 2 6 1q1 -1 0 -5q-38 -72 -61 -127q-26 -62 -34 -95 q-3 -10 -3 -18q0 -11 7 -13h2q11 0 38 30q29 33 67 98q4 5 6 14q21 53 37 83t36 42q15 9 22 9q4 0 4 -2z"/>
<glyph glyph-name="afii10076" horiz-adv-x="263" unicode="к" d="M61 184q-31 -39 -50.5 -86.5t-19.5 -95.5q13 21 38 93q16 44 32 89zM238 257q0 16 -23 16q-43 0 -98 -50q20 -5 43 -5h14q26 2 45 13.5t19 25.5zM401.5 -128.5q-30.5 -16.5 -67.5 -16.5h-5q-52 1 -101 52q-45 46 -77 123q-39 93 -45 177q-46 -125 -88 -193q-5 -8 -14 -20 q-6 -8 -14 -7q-10 3 -10 21q0 41 18 84q23 56 69 108q18 50 39 95q38 83 78.5 137t83.5 82q23 14 31 14q2 0 3 -1l-22 -22q-35 -35 -70 -90q-32 -50 -71 -131q-7 -16 -24 -54q63 60 123 60q40 0 40 -25q0 -22 -32 -38.5t-72 -17.5q-24 0 -36 3q9 -73 46 -171 q66 -176 153 -179h3q68 0 79 79l5 -1q8 -10 8 -21q0 -31 -30.5 -47.5z"/>
<glyph glyph-name="afii10077" horiz-adv-x="256" unicode="л" d="M-19 13q0 22 17 51q24 41 91 114q39 36 102 110q6 8 11 8h1q15 -2 15 -16q0 -18 -12 -34q-8 -15 -18 -46q-28 -85 -30 -140v-5q0 -35 26 -35q9 0 18 5q21 12 21 5q0 -6 -29 -18q-27 -11 -40 -11q-36 0 -36 48v8q3 52 43 154q11 29 22 48q-25 -27 -75 -83 q-83 -104 -107 -167q0 -1 -1.5 -13t-3.5 -12q-4 0 -9.5 8.5t-5.5 20.5z"/>
<glyph glyph-name="afii10078" horiz-adv-x="318" unicode="м" d="M-29 21q0 27 21 68q20 36 59 83q34 36 95 100q5 13 18 11q9 -2 9 -11q0 -15 -13 -32q-8 -29 -13 -86q-5 -61 -10 -80q16 35 58 87q38 44 96 116q6 10 13 10q2 0 4 -1q13 -6 12 -16q0 -11 -14 -34q-8 -14 -20 -46q-29 -82 -36 -141v-9q0 -30 24 -31q8 0 19 5q4 2 11 7.5 t8 3.5q2 -6 -20 -19.5t-46 -13.5q-37 0 -37 43q0 5 1 11q6 60 49 154q7 21 24 52q-30 -35 -86 -104q-35 -45 -61 -94q-10 -19 -19 -31q-14 -19 -30 -19q-4 0 -6.5 1.5t-2.5 4.5q0 10 18 33q3 30 12 109q6 54 23 92q-42 -45 -65 -76q-62 -83 -76 -161q-2 -9 0 -17q2 -5 0 -5 q-19 0 -19 36z"/>
<glyph glyph-name="afii10079" horiz-adv-x="239" unicode="н" d="M136 116l16 45l1 3h-16h-27t-31 -1q-8 -21 -15 -43t-15 -42q-9 -15 -21 -33t-26 -38q-6 -9 -12 -9q-8 0 -8 10q0 3 3 11l53 141q-6 -1 -14 -2t-13 -1q-8 0 -8 4q0 8 41 13l32 85q1 2 1 5q0 5 -5 5q-6 0 -23 -10q-3 -3 -5 -3t-2 2q0 6 8 12t18 12l20 8t13 4q8 0 13 -2 t5 -12q0 -6 -1 -9q-7 -15 -15 -41t-19 -54q22 -1 40 -3t31 -4q20 46 34 74q17 31 37 43q15 9 21 9q4 0 4 -2t-3 -9q-32 -50 -66 -141q-12 -33 -40 -100q27 27 56 43q12 6 13 3q1 -2 -7 -7t-36 -29q-30 -24 -65 -60q-2 -4 -3 -7q-3 -5 -6 -5h-1q-10 2 2 20q14 40 41 115z"/>
<glyph glyph-name="afii10080" d="M222 259q0 -2 -9 -7q-10 -5 -20 -5q-11 0 -22 6q12 -23 12 -56q0 -37 -16 -74q-25 -55 -69 -93q-37 -32 -62 -32q-5 0 -9 1q-37 10 -37 64q0 28 12 61q31 90 110 129q18 9 20 7l-12 -12q-61 -64 -90 -164q-9 -31 -9 -49q0 -26 17 -26q23 0 58 52q39 57 57 123q7 25 7 42 q0 27 -18 44q-13 12 -15 17q-4 10 7 15q3 1 5 1q7 1 12 -9q7 -14 18 -25q8 -9 24 -12q9 -1 19 1t10 1z" unicode="о"/>
<glyph glyph-name="afii10081" horiz-adv-x="234" unicode="п" d="M226 252q-17 -40 -52 -126q-14 -34 -37 -108q-3 -13 1 -15q6 -3 24 14q8 7 9 6q2 -2 -5 -10q-29 -33 -49 -33h-3q-15 2 -15 21q0 4 1 9q7 45 39 123q14 32 40 95q4 10 1 12q-4 2 -12 -6q-41 -41 -76 -84q-19 -23 -79 -122q-5 -6 -16 -21q-7 -11 -15 -8q-5 2 -5 8 q0 5 3 12l91 240q4 10 -4 10q-5 0 -23 -10q-5 -5 -7 -2q-1 2 4 7q30 27 55 30h3q10 0 14 -6q3 -6 0 -17q-22 -54 -62 -159q29 38 64 79q42 48 74 75q16 13 28 13q3 0 6 -1q7 -3 7 -11q0 -6 -4 -15z"/>
<glyph glyph-name="afii10082" horiz-adv-x="252" unicode="р" d="M-37 -48q-46 -72 -75 -145q-14 -34 -29 -107q17 37 47 104q3 6 57 148zM131 58q-4 -1 -16 -3t-17 -4q0 -22 4 -42q12 12 29 49zM232 248q-9 -73 -63 -175q7 1 22.5 4t16.5 2q1 -4 -16 -10q-6 -2 -28 -7q-16 -26 -52 -62q-9 -11 -17 -11q-13 0 -13 20v6q3 13 8 45l5 4 q27 0 42 5q14 32 35 100q19 63 21 94q-32 -13 -119 -157q-37 -62 -70 -138q-23 -57 -69 -162q-28 -58 -65 -114q-13 -20 -23 -20h-2t-1 4q0 7 3 24q9 52 32 111q31 82 92 171q13 34 46 124q19 53 49 151q-10 3 -27 7q30 6 73 24q2 -1 5 -5l-6 -16q-29 -81 -83 -224 q45 85 90 152q59 87 96 87h2q17 -1 17 -24q0 -4 -1 -10z"/>
<glyph glyph-name="afii10083" horiz-adv-x="177" unicode="с" d="M196 266q0 -14 -16 -25q-10 -5 -11 -2q-1 1 2 9.5t3 16.5q0 10 -7 11h-4q-28 0 -69.5 -59.5t-60.5 -128.5q-9 -34 -9 -52q0 -25 18 -25q23 0 56 42q24 29 40 62q11 22 10 22q6 -1 -4 -27q-19 -49 -57 -85q-28 -27 -55 -27q-44 0 -45 50v3q0 44 25 95q29 58 73 97.5 t83 40.5q28 0 28 -18zM148 137v0v0z"/>
<glyph glyph-name="afii10084" horiz-adv-x="353" unicode="т" d="M344 252q-17 -40 -52 -126q-14 -35 -38 -108q-3 -13 2 -15q8 -1 23 14q7 7 9 6q3 -3 -4 -10q-30 -33 -50 -33h-3q-14 2 -14 22v8q4 31 40 123q12 30 39 95q5 13 2 14q-3 2 -13 -8q-45 -44 -75 -82t-81 -126q-3 -6 -15 -18t-19 -10q-5 2 4 25q12 33 42 110q13 31 38 95 q4 12 2 13q-4 2 -13 -7q-41 -41 -76 -84q-24 -29 -79 -120q-5 -6 -16 -21q-6 -12 -15 -9q-5 2 -5 9q0 5 3 12q11 28 49 127l42 111q4 10 -4 10q-5 0 -23 -10q-6 -4 -7 -2t4 7q30 27 55 30h3q10 0 14 -6q3 -6 0 -17q-7 -25 -27 -74q-27 -62 -35 -85q29 38 64 79q42 48 74 75 q16 13 28 13q3 0 6 -1q11 -5 3 -26q-8 -20 -57 -139q31 41 63 78q41 47 74 75q16 13 28 13q3 0 6 -1q8 -3 8 -11q0 -6 -4 -15z"/>
<glyph glyph-name="afii10085" horiz-adv-x="251" unicode="у" d="M240 256q0 -14 -5 -31q-17 -57 -46 -123q-57 -130 -124 -213q-70 -86 -160 -141q-93 -57 -166 -57q-29 0 -48 19q-8 9 -8 14q0 3 3 5q-1 -1 9 -8q17 -12 49 -12q79 0 144.5 42.5t146.5 146.5q67 87 130 236q-21 -32 -70 -77.5t-64 -67.5q-6 -9 -13 -7q-16 4 -10 23 q18 43 25 65q26 88 29 147v6q0 33 -21 33q-2 0 -14.5 -5.5t-13.5 -4.5q-3 4 14 14q27 15 45 15q29 0 29 -44v-11q-6 -71 -37 -154q-12 -31 -29 -62q33 34 92 97q60 71 93 170q2 7 3 16q0 6 2 6q4 0 9 -9q6 -12 6 -28z"/>
<glyph glyph-name="afii10086" horiz-adv-x="360" unicode="ф" d="M264 70q-4 -1 -17 -2.5t-18 -4.5q0 -11 1.5 -20.5t3.5 -19.5q7 6 14.5 17t15.5 30zM119 216q4 1 17.5 3t18.5 4q-1 22 -6 40q-14 -11 -30 -47zM210 244q58 145 123.5 211t133.5 66q30 0 30 -23q0 -13 -9 -25.5t-29 -25.5q-9 -6 -12 -6q-2 0 -2 2l9 9q15 15 15 32 q0 23 -25 23q-49 0 -92.5 -60t-95.5 -189l-6 -13q-2 -6 -11 -28.5l-21 -52.5q38 55 73 88t61 33q19 -1 20 -23v-7q0 -33 -18 -76t-48 -94q4 0 11.5 1t14.5 2t12.5 2t6.5 1q1 -3 -8 -7.5t-42 -9.5q-3 -5 -12.5 -16.5t-20.5 -23.5t-22 -21t-18 -9q-14 0 -17 20q0 6 2.5 17.5 t4.5 30.5l6 4q27 0 47 5q6 12 15.5 37.5t18.5 54t15.5 55t6.5 39.5q-14 -5 -49.5 -42.5t-77.5 -103.5q-14 -35 -26 -64.5t-17 -43.5q-32 -75 -71 -135t-82.5 -101.5t-91 -63.5t-95.5 -22q-12 0 -23.5 3.5t-20.5 9t-14.5 12t-5.5 11.5q0 4 1 4t20 -9.5t46 -9.5q113 0 187 87 q23 29 51.5 82t60.5 131q5 14 13 34l16 40q-34 -42 -64 -63.5t-52 -21.5q-19 1 -20 23v7q0 33 18 76.5t48 94.5q-5 0 -12 -1l-14 -2t-12.5 -2t-6.5 -1q-1 3 8 6.5t42 9.5q3 5 12 16.5t20.5 23.5t22.5 21t18 9q14 0 17 -20q0 -5 -2.5 -17t-4.5 -31l-6 -4q-27 0 -47 -5 q-6 -12 -15.5 -37.5t-18.5 -54t-15.5 -55t-6.5 -39.5q11 4 39.5 27.5t63.5 69.5q5 13 9 24t7 19z"/>
<glyph glyph-name="afii10087" horiz-adv-x="212" unicode="х" d="M262 264q-11 4 -28 -2q-21 -7 -47 -28q-42 -34 -71 -63q0 -11 1 -40v-49q0 -40 1 -51q1 -15 8 -15q8 0 22 24q5 8 6 7q2 -1 1 -5q-3 -15 -19 -32.5t-29 -17.5q-21 1 -26 38q-1 7 -1 54v60q-33 -31 -62 -66q-47 -56 -62 -90q-8 -18 -7 -18q-4 0 -4 6q0 5 3 14 q14 47 59 100q30 35 73 75q-1 16 -4 48q-5 36 -19 43q-8 4 -18 2t-11 0t11 8q16 8 31 8h3q31 -2 39 -48q3 -17 4 -34q23 24 64 57q31 25 55 29q6 1 10 1q17 0 17 -15z"/>
<glyph glyph-name="afii10088" horiz-adv-x="244" unicode="ц" d="M196 78q-14 -11 -42 -33.5t-56 -51.5q-3 -12 -9 -12t-6 5q0 3 4.5 14.5t11 29.5t15 40.5t17.5 45.5q-43 -65 -68.5 -90t-43.5 -25q-28 0 -28 26q0 14 3.5 32.5t13.5 44.5t27.5 62t45.5 86q-10 -2 -14 -2q-4 1 -8 1.5t-8 2.5q18 5 32 9q12 4 23 7.5t13 5.5q2 1 5 1 q2 0 2 -2q0 -1 -0.5 -1.5t-0.5 -1.5q-46 -88 -72 -152t-26 -87q0 -14 9 -14q12 0 40 32.5t65 95.5q4 4 6 14q31 72 51.5 103t42.5 31q4 0 5 -1v-1q0 -3 -3 -9q-14 -21 -23.5 -41.5t-20.5 -47.5t-25.5 -63.5t-36.5 -88.5q8 8 18.5 17t21.5 17q4 1 15.5 7.5t21.5 13.5l4 -11 q-14 -17 -22.5 -29t-13 -21t-6 -17.5t-1.5 -17.5q0 -3 1 -10.5t2 -15.5t1.5 -15.5t0.5 -11.5q0 -15 -7.5 -29t-20 -25t-27.5 -18t-30 -8h-4q-25 0 -23 27q-1 13 5 27q13 -30 33 -30h3q43 1 41 41v32q0 37 14.5 61.5t31.5 50.5z"/>
<glyph glyph-name="afii10089" horiz-adv-x="244" unicode="ч" d="M131 116q1 1 3.5 7.5t5 14t5 14.5t2.5 9q5 12 10 23q-38 -50 -62 -71q-28 -25 -46 -25q-26 0 -26 23q0 9 3.5 24.5t10.5 32.5q8 20 19.5 40.5t24.5 43.5q-10 -2 -14 -2q-4 1 -8 1.5t-8 2.5q18 5 32 9q12 4 23 7.5t13 5.5q2 1 5 1q2 0 2 -2l-1 -3q-16 -29 -29 -56.5 t-24 -51.5q-5 -12 -8 -25t-4 -19q-2 -14 8 -14q12 0 42 32q26 28 62 78q15 30 26 48q21 31 43 31q4 0 5 -1v-1q0 -3 -3 -9q-14 -21 -23.5 -41.5t-20.5 -47.5t-25.5 -63.5t-36.5 -88.5q7 7 16.5 15.5t19 15.5t18 11.5t13.5 4.5q2 0 2 -2t-27.5 -21.5t-80.5 -73.5 q-3 -12 -9 -12t-6 5q0 3 4.5 14.5t11 29.5t15 40.5t17.5 45.5z"/>
<glyph glyph-name="afii10090" horiz-adv-x="362" unicode="ш" d="M362 294q0 -2 -3 -9q-32 -50 -66 -141q-12 -33 -40 -100q27 27 56 43q12 6 13 3q2 -2 -6 -7t-38 -29t-64 -60q-2 -4 -3 -7q-3 -5 -6 -5h-1q-10 2 2 20q14 40 41 115q-31 -48 -49 -69q-41 -46 -63 -46q-28 0 -28 26t21 82q-30 -45 -47 -65q-41 -46 -63 -46q-28 0 -28 26 q0 34 35 118q15 35 55 107q-8 -2 -14 -2q-8 1 -16 4q2 1 20 5q36 9 48 17q4 2 6 1q1 -1 0 -5q-38 -72 -61 -127q-26 -62 -34 -95q-3 -10 -3 -18q0 -11 7 -13h2q11 0 38 30q29 33 67 98q1 2 0 -4q1 3 2 5q15 35 55 107q-8 -2 -14 -2q-8 1 -16 4q2 1 20 5q36 9 48 17q4 2 6 1 q1 -1 0 -5q-38 -72 -61 -127q-26 -62 -34 -95q-3 -10 -3 -18q0 -11 7 -13h2q11 0 38 30q29 33 67 98q4 5 6 14q21 52 37 82t36 44q15 9 22 8q4 0 4 -2z"/>
<glyph glyph-name="afii10091" horiz-adv-x="362" unicode="щ" d="M214 -6q-3 -12 -9 -12t-6 5q0 3 4.5 14.5t11 29.5t15 40.5t17.5 45.5q-43 -65 -68.5 -90t-43.5 -25q-28 0 -28 26q0 14 3.5 32.5t13.5 44.5q-39 -58 -63 -81q-25 -25 -43 -25q-28 0 -28 26q0 14 3.5 32.5t13.5 44.5t27.5 62t45.5 86q-10 -2 -14 -2q-4 1 -8 1.5t-8 2.5 q18 5 32 9q12 4 23 7.5t13 5.5q2 1 5 1q2 0 2 -2l-1 -3q-46 -88 -72 -152t-26 -87q0 -14 9 -14q12 0 40 32.5t65 95.5q6 10 11 22q18 36 46 86q-10 -2 -14 -2q-4 1 -8 1.5t-8 2.5q18 5 32 9q12 4 23 7.5t13 5.5q2 1 5 1q2 0 2 -2l-1 -3q-46 -88 -72 -152t-26 -87 q0 -14 9 -14q12 0 40 32.5t65 95.5q4 4 6 14q31 72 51.5 103t42.5 31q4 0 5 -1v-1q0 -3 -3 -9q-14 -21 -23.5 -41.5t-20.5 -47.5t-25.5 -63.5t-36.5 -88.5q11 8 21.5 17t21.5 17q4 1 15.5 7.5t21.5 13.5l4 -11q-14 -17 -22.5 -29t-13 -21t-6 -17.5t-1.5 -17.5q0 -3 1 -10.5 t2 -15.5t1.5 -15.5t0.5 -11.5q0 -15 -7.5 -29t-20 -25t-27.5 -18t-30 -8h-4q-25 0 -23 27q-1 13 5 27q13 -30 33 -30h3q43 1 41 41v32q0 37 14.5 61.5t31.5 50.5q-14 -11 -42 -32.5t-56 -50.5z"/>
<glyph glyph-name="afii10092" horiz-adv-x="251" unicode="ъ" d="M146 258q-30 -11 -46.5 -14.5t-34.5 -3.5q-23 0 -34.5 7.5t-11.5 19.5q0 9 9 18.5t19 9.5q2 0 2 -2q0 -3 -7.5 -6t-7.5 -10q0 -8 17 -11.5t48 -3.5q29 0 47 3.5t39 18.5q10 4 11 4q2 0 2 -3q0 -2 1 -4t-1 -5q-3 -5 -15 -26.5t-27 -51.5t-30.5 -63.5t-25.5 -63 t-11.5 -50.5t10.5 -26q4 -2 8 -2q12 0 28.5 14t32.5 39t24 48.5t8 37.5q0 6 -1 11q-4 15 -16.5 23t-12.5 13q0 2 2.5 5.5t7.5 3.5q8 0 14.5 -4.5t16.5 -20.5q9 -8 23 -8q8 0 17.5 3.5t8.5 4.5l2 -2q0 -4 -10 -8.5t-19 -4.5q-10 0 -18 4q3 -6 8.5 -18t5.5 -20 q0 -26 -12.5 -50t-31.5 -42t-39 -26.5t-37 -8.5q-5 0 -10 1q-19 1 -31.5 13t-13.5 30q0 17 5.5 36.5t17 45.5t29 61.5t40.5 83.5z"/>
<glyph glyph-name="afii10093" horiz-adv-x="326" unicode="ы" d="M321 278q-30 -54 -58 -127q-26 -67 -43 -119q26 24 49 35q8 4 8 0q-34 -25 -55 -49q-32 -36 -37 -35q-13 0 -12 13q0 3 2 8q15 49 50 147q17 41 52 112q-11 -5 -17 -7q-11 0 -11 3t14 7q23 7 48 21q7 4 10 4q1 0 2 -1t1 -3q0 -3 -3 -9zM-7 31q0 17 5.5 36.5t17 46.5 t29 62.5t40.5 83.5q-5 -2 -13 -7.5t-11 -6.5q-11 0 -11 3q0 1 8.5 6t20 10.5t24 11t21.5 7.5q4 1 6.5 2.5t4.5 1.5t2 -3q0 -2 1 -4t-1 -5q-3 -5 -15 -26.5t-27 -51.5t-30.5 -63.5t-25.5 -63t-11.5 -50.5t10.5 -26q4 -2 8 -2q12 0 28.5 14t32.5 39t24 48.5t8 37.5q0 6 -1 11 q-4 15 -16.5 23t-12.5 13q0 2 2.5 5.5t7.5 3.5q8 0 14.5 -4.5t16.5 -20.5q9 -8 23 -8q8 0 17.5 3.5t8.5 4.5l2 -2q0 -4 -10 -8.5t-19 -4.5q-10 0 -18 4q3 -6 8.5 -18t5.5 -20q0 -26 -12.5 -50t-31.5 -42t-39 -26.5t-37 -8.5q-5 0 -10 1q-19 1 -31.5 13t-13.5 30z"/>
<glyph glyph-name="afii10094" horiz-adv-x="217" unicode="ь" d="M-7 31q0 17 5.5 36.5t17 46.5t29 62.5t40.5 83.5q-5 -2 -12.5 -5.5t-10.5 -4.5q-11 0 -11 3q0 1 8 4t19 7.5t24 9.5t22 10q10 4 11 4q2 0 2 -3q0 -2 1 -4t-1 -5q-3 -5 -15 -26.5t-27 -51.5t-30.5 -63.5t-25.5 -63t-11.5 -50.5t10.5 -26q4 -2 8 -2q12 0 28.5 14t32.5 39 t24 48.5t8 37.5q0 6 -1 11q-4 15 -16.5 23t-12.5 13q0 2 2.5 5.5t7.5 3.5q8 0 14.5 -4.5t16.5 -20.5q9 -8 23 -8q8 0 17.5 3.5t8.5 4.5l2 -2q0 -4 -10 -8.5t-19 -4.5q-10 0 -18 4q3 -6 8.5 -18t5.5 -20q0 -26 -12.5 -50t-31.5 -42t-39 -26.5t-37 -8.5q-5 0 -10 1 q-19 1 -31.5 13t-13.5 30z"/>
<glyph glyph-name="afii10095" horiz-adv-x="203" unicode="э" d="M-14 16q0 14 16 25q10 5 11 2q1 -1 -2 -9.5t-3 -16.5q0 -10 7 -11h4q28 0 68 57q20 29 35 60q-32 5 -59 15q-7 2 -7 6q-1 2 4 0q18 -5 57 -7q6 -1 11 -1q13 28 21 58q9 34 9 52q0 25 -18 25q-23 0 -56 -42q-24 -29 -40 -62q-11 -22 -10 -22q-6 1 4 27q19 49 57 85 q28 27 55 27q44 0 45 -50v-3q0 -44 -25 -95v-1q19 2 26 4q13 0 15 -4q1 -8 -9 -11q-12 -1 -40 -3q-27 -48 -65 -83q-44 -39 -83 -40q-28 0 -28 18zM34 145v0v0z"/>
<glyph glyph-name="afii10096" horiz-adv-x="326" unicode="ю" d="M343 263q0 -2 -9.5 -7t-19.5 -5q-11 0 -22 6q12 -23 12 -56q0 -37 -16 -74q-25 -56 -65.5 -90.5t-65.5 -34.5q-5 0 -9 1q-37 10 -37 64q0 28 12 61q6 19 15 36h-1q-9 0 -23 -1l-28 -1h-7l-10 -30q-10 -28 -20 -54q-10 -15 -21.5 -33t-25.5 -38q-6 -9 -12 -9q-8 0 -8 10 q0 3 3 11l53 141l-9 -1q-12 -2 -18 -2q-8 0 -8 4q0 5 12 8q11 3 29 5l32 85q1 2 1 5q0 5 -5 5q-6 0 -23 -10q-3 -3 -5 -3t-2 2q0 6 8 12.5t18.5 11.5t20 8.5t12.5 3.5q8 0 13 -2.5t5 -11.5q0 -6 -1 -9q-6 -14 -13.5 -36t-16.5 -48q-2 -6 -4 -11h11q23 -1 40 -4q4 0 7 -1 q32 57 91 86q18 9 20 7l-12 -12q-61 -64 -90 -164q-9 -31 -9 -49q0 -26 17 -26q23 0 58 52q39 57 57 123q7 25 7 42q0 27 -18 44q-13 12 -15 17q-4 10 7 15q3 1 5 1q7 0 13 -11.5t17 -22.5q8 -9 24 -12q9 -1 19 1t10 1z"/>
<glyph glyph-name="afii10097" horiz-adv-x="256" unicode="я" d="M210 255q2 4 2 5.5t2 5.5q-6 5 -15.5 9t-20.5 4t-23.5 -4t-23.5 -14t-19.5 -26.5t-9.5 -40.5q-1 -14 1.5 -26.5t9 -21t17.5 -10.5t27 5q9 25 22.5 55.5t30.5 58.5zM-5 -26q1 -5 1 -9q0 -8 -2 -8q-3 0 -13 7.5t-10 16.5t8 25.5t25 37t44 42.5t65 43q-6 1 -14 5t-15.5 12 t-13 20t-5.5 29q0 19 8.5 36.5t23 31t32.5 21t38 7.5q25 0 53 -14q8 15 11 15q15 0 15 -16q-1 -11 -6 -22q1 -2 3 -6.5t4.5 -9.5t4 -9t1.5 -5q0 -5 -3 -6.5t-4 -1.5q2 0 -3.5 10t-9.5 15q-15 -24 -26.5 -52t-19.5 -54.5t-12 -49.5t-4 -37q0 -32 24 -32q10 0 21 6t16 6 q3 0 3 -2t-8.5 -7t-20 -10t-23.5 -8.5t-19 -3.5q-33 0 -33 41q0 15 4.5 34.5t17.5 53.5q-6 -2 -11 -2.5t-10 -1.5q-24 -6 -47 -25.5t-41.5 -42.5t-31.5 -45.5t-17 -34.5z"/>
<glyph glyph-name="afii10071" horiz-adv-x="187" unicode="ё" d="M157 345q0 -23 -23 -23t-23 23t23 23t23 -23zM241 345q0 -23 -23 -23t-23 23t23 23t23 -23zM174 275q-17 0 -42 -19q-21 -16 -31 -31q13 -7 27 -7h2q20 0 38 15.5t18 29.5q0 12 -12 12zM215 268q0 -20 -19 -36q-27 -23 -60 -23q-5 0 -11 1q-16 2 -29 8q-18 -26 -28 -45 q-29 -59 -42 -105q-5 -20 -5 -34q0 -23 13 -27q3 -1 6 -1q14 0 35 16.5t37.5 44.5t25.5 63q3 12 6 12q4 0 3 -11q-1 -28 -24 -67q-43 -73 -89 -73q-5 0 -9 1q-39 6 -39 57q0 18 5 38q15 59 53 108q72 91 145 91h2q24 0 24 -18z"/>
<glyph glyph-name="afii10101" horiz-adv-x="207" unicode="є" d="M230 267q0 -14 -16 -25q-10 -5 -11 -2q-1 1 2 9.5t3 16.5q0 10 -7 11h-4q-28 1 -68 -57q-20 -29 -35 -60q7 -1 14 -1q5 0 11 1q39 2 57 7q5 2 4 0q0 -4 -7 -6q-27 -10 -59 -15h-27q-12 -28 -20 -57q-9 -34 -9 -52q0 -25 18 -25q23 0 56 42q24 29 40 62q11 22 10 22 q6 -1 -4 -27q-19 -49 -57 -85q-28 -27 -55 -27q-44 0 -45 50v3q0 43 25 95h-12q-10 3 -9 11q2 4 15 4q3 -1 13 -1q27 49 66 83q44 40 83 41q28 0 28 -18zM182 138v0v0z"/>
<glyph glyph-name="afii10102" horiz-adv-x="221" unicode="ѕ" d="M829 754v9q0 38 -22 62q-28 28 -82 28q-79 0 -181 -62q-89 -54 -165 -133q-128 -133 -222 -298q53 -17 120 -17q85 0 191 38q102 36 167 86q183 140 194 287zM859 750q-6 -149 -210 -300q-66 -49 -168 -83q-108 -35 -204 -35q-74 0 -125 19q-17 -30 -37 -74 q-65 -141 -84 -225q-3 -14 -3 -24q0 -21 14 -23h4q19 0 45 36q26 34 43 78q9 23 24 78q1 8 1 15q0 27 -21 41q-18 11 -5 23q10 9 25 -8q11 -13 16 -26q11 -11 29 -11q14 0 25 6q3 1 6.5 3.5t4.5 2.5q5 -3 -5.5 -11.5t-29.5 -10.5q-16 0 -25 5q6 -15 6 -38q0 -39 -15 -75 q-22 -52 -59.5 -85t-67.5 -33h-3q-41 3 -41 56q0 67 76 231q21 44 43 83q-29 15 -38 37q-5 13 1 13q-1 0 8.5 -15t33.5 -27q83 149 225 294q76 77 177 133q114 62 202 62q62 0 97 -30t35 -77v-5z"/>
<glyph glyph-name="afii10103" horiz-adv-x="142" unicode="і" d="M134 275q-30 -54 -58 -127q-26 -67 -43 -119q26 24 49 35q8 4 8 0q-34 -25 -55 -49q-32 -36 -37 -35q-12 0 -12 11q0 5 2 10q15 49 50 147q17 41 52 112q-11 -5 -17 -7q-11 0 -11 3t14 7q23 7 48 21q10 5 12 3q3 -3 -2 -12zM207 440q-20 -24 -45 -62q-8 -21 -16 -21h-1 q-7 1 -10.5 7.5t-3.5 11.5q0 3 1 6q5 16 32 35q24 17 43 23z"/>
<glyph glyph-name="afii10104" horiz-adv-x="142" unicode="ї" d="M99 345q0 -23 -23 -23t-23 23t23 23t23 -23zM183 345q0 -23 -23 -23t-23 23t23 23t23 -23zM134 275q-30 -54 -58 -127q-26 -67 -43 -119q26 24 49 35q8 4 8 0q-34 -25 -55 -49q-32 -36 -37 -35q-12 0 -12 11q0 5 2 10q15 49 50 147q17 41 52 112q-11 -5 -17 -7 q-11 0 -11 3t14 7q23 7 48 21q7 4 10 4q1 0 2 -1t1 -3q0 -3 -3 -9z"/>
<glyph glyph-name="afii10110" horiz-adv-x="251" unicode="ў" d="M338 447q-23 -22 -43.5 -42t-52.5 -33q-25 -11 -45 -11q-19 0 -35 10q-12 9 -12 23q0 16 15 39q10 17 20 14l-4 -13q-1 -6 -1 -10q0 -15 14 -25q11 -7 28 -5t35 9.5t35.5 17.5t29.5 17.5t16 9.5l3 3q1 0 -3 -4zM240 256q0 -14 -5 -31q-17 -57 -46 -123 q-57 -130 -124 -213q-70 -86 -160 -141q-93 -57 -166 -57q-29 0 -48 19q-8 9 -8 14q0 3 3 5q-1 -1 9 -8q17 -12 49 -12q79 0 144.5 42.5t146.5 146.5q67 87 130 236q-21 -32 -70 -77.5t-64 -67.5q-6 -9 -13 -7q-16 4 -10 23q18 43 25 65q26 88 29 147v6q0 33 -21 33 q-2 0 -14.5 -5.5t-13.5 -4.5q-3 4 14 14q27 15 45 15q29 0 29 -44v-11q-6 -71 -37 -154q-12 -31 -29 -62q33 34 92 97q60 71 93 170q2 7 3 16q0 6 2 6q4 0 9 -9q6 -12 6 -28z"/>
<glyph glyph-name="afii10050" horiz-adv-x="605" unicode="Ґ" d="M416 289q27 50 68 131q31 61 84 163q-131 38 -246 38q-181 0 -181 -118q0 -28 31 -66q26 -32 57 -53q7 -7 7 -8q-1 -3 -13 4q-107 60 -116 114q-2 10 -2 18q0 70 90 102q64 22 153 22q21 0 36 -1q107 -10 194 -32q20 34 48 65q11 12 33 22q15 8 20 8q2 0 2 -1l-13 -17 q-26 -33 -53 -87q103 -28 171 -66l20 22q54 55 69 55q3 0 4 -2q1 -1 1 -2q0 -6 -22 -22q-3 -4 -41 -42q-9 -9 -16 -17q17 -10 32 -22q16 -12 11 -16q1 1 -13 9q-15 9 -38 19q-14 -16 -24 -29q-25 -30 -66 -87q-4 -7 -5 -5q-3 2 3 15q27 53 71 107q2 3 5 6q-62 25 -171 56 q-22 -48 -74 -158q-36 -75 -69 -137q-74 -136 -165 -234q-127 -135 -241 -135q-37 0 -58 15t-21 39q0 56 86 98q26 13 26 6l-22 -14q-57 -37 -57 -80q0 -21 16.5 -35.5t44.5 -14.5q100 0 208 142q58 76 136 225z"/>
<glyph glyph-name="afii10098" horiz-adv-x="186" unicode="ґ" d="M80 254l-2 -3l3 -7q14 2 20 3q2 0 3 1q-13 -48 -37 -99q-13 -29 -27 -65t-38 -75l-5 -5t-9 -8t-12 -8t-14 -4q-4 0 -7 3q4 -1 13 15t20 40q12 24 24 56q12 30 22 60t19 55q8 26 10 42q-5 -2 -9 -3t-10 -2q-8 0 -8 3l30 15t22 10t12 6q4 2 6 2q6 0 6 -6v-3t-1 -3 q-2 -8 -4 -17q-15 0 -27 -3zM104 248h10t18 2q12 1 40 2q8 0 18 2t20 5t16 7q8 4 11 6q7 9 7 17q0 6 -4 11t-12 7q-4 1 -8 1t-10 -1q-4 0 -6 -2t-4 -3q-2 -4 0 -8l4 -8t3 -10q0 -4 -5 -8q-8 -6 -22 -8t-32 -2t-36 -1h-5q-2 -4 -3 -9z"/>
<glyph glyph-name="endash" horiz-adv-x="300" unicode="–" d="M280 148q-52 6 -138 6h-45q-12 0 -38 -2q-22 -2 -30 -1q-11 0 -11 4q2 25 94 28h9q37 0 80 -7q54 -10 79 -28z"/>
<glyph glyph-name="emdash" horiz-adv-x="600" unicode="—" d="M580 148q-96 9 -271 9q-109 0 -197 -3l-81 -3q-13 0 -13 3q0 16 38 22q53 10 204 10q95 0 186 -10q99 -11 134 -28z"/>
<glyph glyph-name="quoteleft" horiz-adv-x="112" unicode="‘" d="M169 393q-27 -33 -45 -75q-10 -24 -21 -24q-2 0 -4 1q-16 5 -16 16q0 6 4 13q17 38 82 69z"/>
<glyph glyph-name="quotesinglbase" horiz-adv-x="106" unicode="‚" d="M29 18q-19 -40 -83 -69q27 33 46 75q11 23 22 23h2q16 -5 16 -17q0 -5 -3 -12z"/>
<glyph glyph-name="quotedblleft" horiz-adv-x="191" unicode="“" d="M169 393q-27 -33 -45 -75q-10 -24 -21 -24q-2 0 -4 1q-16 5 -16 16q0 6 4 13q17 38 82 69zM248 393q-27 -33 -45 -75q-10 -24 -21 -24q-2 0 -4 1q-16 5 -16 16q0 6 4 13q17 38 82 69z"/>
<glyph glyph-name="quotedblright" horiz-adv-x="191" unicode="”" d="M148 361q-17 -38 -82 -69q29 37 45 75q10 24 21 24q2 0 4 -1q15 -4 15 -16q0 -6 -3 -13zM227 361q-17 -38 -82 -69q29 37 45 75q10 24 21 24q2 0 4 -1q15 -4 15 -16q0 -6 -3 -13z"/>
<glyph glyph-name="dagger" horiz-adv-x="186" unicode="†" d="M227 254q-37 3 -92 3q-12 -25 -26 -56q-70 -161 -101 -260q-7 -24 -11 -24q-3 0 -3 10t3 29q5 41 27 117.5t43 126.5q13 32 27 58h-10q-59 0 -59 4q0 13 54 13h16h7q35 66 70 114q13 17 30.5 30.5t22.5 13.5h1q3 -2 -8 -20q-33 -53 -76 -140q57 -5 85 -19z"/>
<glyph glyph-name="daggerdbl" horiz-adv-x="211" unicode="‡" d="M249 260q-37 3 -91 3q-12 -22 -60 -134q63 -5 89 -20q-39 3 -96 3q-47 -118 -63 -171q-7 -24 -11 -24q-3 0 -3 12q0 10 2 27q7 50 40 157h-12q-59 0 -59 4q0 6 19.5 10t40.5 4h10h6q14 41 26 69q14 34 30 64h-11q-59 0 -59 4q0 13 54 13h16h8q35 65 67 108 q13 17 30.5 30.5t22.5 13.5h1q3 -2 -8 -20q-36 -56 -73 -134q52 -3 84 -19z"/>
<glyph glyph-name="ellipsis" horiz-adv-x="308" unicode="…" d="M33 23q-3 -26 -28 -28h-3q-10 0 -16 5.5t-6 17.5q0 10 8.5 19t14.5 9.5t8 0.5q9 0 16 -7t6 -17zM137 23q-2 -26 -28 -28h-3q-10 0 -16 5t-6 15q0 30 28 32h3q9 0 16 -6.5t6 -17.5zM213 -5h-3q-9 0 -15 5.5t-6 17.5q1 27 27 29h3q10 0 16 -6t6 -15q0 -29 -28 -31z"/>
</font>
</defs>
</svg>
